<svg width="146" height="24" viewBox="0 0 146 24" fill="none" xmlns="http://www.w3.org/2000/svg">
<path d="M5.13047 19.0863H13.0157C13.6553 19.0863 14.1206 19.1594 14.41 19.3038C14.6977 19.45 14.8906 19.6777 14.9853 19.9903C15.0835 20.2996 15.1342 20.7108 15.1342 21.2274C15.1342 21.7406 15.0835 22.1518 14.9853 22.4644C14.8906 22.7737 14.7281 22.9861 14.498 23.1034C14.1274 23.2988 13.6249 23.3956 12.9886 23.3956H2.5517C1.19801 23.3956 0.406106 23.0269 0.175979 22.2877C0.0575319 21.9802 0 21.4857 0 20.806V4.61554C0 4.17204 0.0135369 3.83899 0.0406106 3.61639C0.0710688 3.39039 0.164134 3.1321 0.318116 2.84153C0.588854 2.32156 1.34353 2.05988 2.58554 2.05988C3.93415 2.05988 4.73452 2.41842 4.98834 3.1338C5.08309 3.46515 5.13047 3.96983 5.13047 4.64953V19.0863Z" fill="#68B19F"/>
<path d="M26.9381 9.68612C27.0548 8.5986 27.818 8.05484 29.2258 8.05484C29.9839 8.05484 30.5457 8.11431 30.9111 8.23156C31.2766 8.34541 31.5305 8.54932 31.676 8.84329C31.8249 9.13386 31.9129 9.39045 31.9399 9.61135C31.967 9.83395 31.9806 10.1687 31.9806 10.6173V20.806C31.9806 21.2512 31.967 21.586 31.9399 21.812C31.9129 22.0346 31.8317 22.2911 31.6963 22.58C31.4255 23.083 30.7622 23.3345 29.7064 23.3345C28.6539 23.3345 27.9483 23.2053 27.5878 22.947C27.2308 22.6854 27.0227 22.2996 26.9651 21.7916C26.2511 22.8213 25.0581 23.3345 23.3846 23.3345C21.7145 23.3345 20.1646 22.5698 18.7347 21.0371C17.3032 19.5061 16.5891 17.727 16.5891 15.7015C16.5891 13.6726 17.3083 11.8951 18.7483 10.3726C20.1866 8.84669 21.767 8.08203 23.4862 8.08203C24.1444 8.08203 24.7451 8.20098 25.2866 8.43547C25.8281 8.66657 26.2037 8.88407 26.4169 9.08798C26.6284 9.29189 26.8027 9.4924 26.9381 9.68612ZM21.6655 15.7422C21.6655 16.3812 21.9159 16.9589 22.4168 17.4755C22.9176 17.9886 23.5234 18.2435 24.2375 18.2435C24.9549 18.2435 25.5505 17.9835 26.0243 17.4619C26.4981 16.9368 26.735 16.3591 26.735 15.7286C26.735 15.0948 26.5066 14.5052 26.0514 13.9614C25.5996 13.4177 24.9905 13.1458 24.2239 13.1458C23.4608 13.1458 22.8432 13.4177 22.3694 13.9614C21.899 14.5052 21.6655 15.0999 21.6655 15.7422Z" fill="#68B19F"/>
<path d="M55.6995 2.05988C56.1412 2.05988 56.4728 2.07347 56.6945 2.10066C56.9195 2.12785 57.1717 2.2213 57.4526 2.37933C57.7318 2.53397 57.928 2.79735 58.0414 3.16779C58.1582 3.53482 58.2174 4.0293 58.2174 4.64953C58.2174 5.27145 58.1582 5.76763 58.0414 6.13807C57.928 6.50511 57.725 6.76169 57.4323 6.90613C57.1429 7.05227 56.8874 7.14063 56.6674 7.17121C56.4458 7.1984 56.1023 7.212 55.6386 7.212H46.7652V10.1483H52.4778C52.9414 10.1483 53.2849 10.1653 53.5066 10.1959C53.7265 10.2231 53.9837 10.3148 54.2782 10.4678C54.779 10.7634 55.0295 11.5315 55.0295 12.7719C55.0295 14.1313 54.6606 14.9368 53.9262 15.1849C53.6182 15.2851 53.1275 15.3344 52.4507 15.3344H46.7652V20.8332C46.7652 21.3005 46.7517 21.6403 46.7246 21.8527C46.6975 22.0668 46.6045 22.3183 46.4471 22.6072C46.1764 23.1339 45.4217 23.3956 44.1864 23.3956C42.8327 23.3956 42.0408 23.0269 41.8107 22.2877C41.6923 21.9802 41.6347 21.4857 41.6347 20.806V4.61554C41.6347 3.62828 41.8175 2.95538 42.183 2.59684C42.5519 2.24 43.249 2.05988 44.2744 2.05988H55.6995Z" fill="#68B19F"/>
<path d="M70.4773 8.23156C70.8462 8.34541 71.1508 8.54252 71.3911 8.8229C71.6347 9.10497 71.7566 9.55697 71.7566 10.1823C71.7566 10.8042 71.5704 11.4839 71.2015 12.2214C70.8361 12.9555 70.3047 13.3225 69.611 13.3225C69.2624 13.3225 68.929 13.246 68.6092 13.0914C68.2928 12.9385 67.8732 12.8603 67.3503 12.8603C66.8258 12.8603 66.3367 13.0438 65.8816 13.4109C65.4298 13.7779 65.2047 14.2248 65.2047 14.7499V20.8604C65.2047 21.309 65.1878 21.6454 65.1573 21.8663C65.1303 22.0889 65.0389 22.3472 64.8866 22.6412C64.5972 23.1442 63.8443 23.3956 62.6259 23.3956C61.6953 23.3956 61.0286 23.2308 60.6225 22.8995C60.3145 22.6276 60.1419 22.2113 60.1013 21.6488C60.1013 21.4551 60.1013 21.173 60.1013 20.806V10.5833C60.1013 10.1398 60.1149 9.80676 60.1419 9.58416C60.1724 9.35816 60.257 9.10837 60.3924 8.83649C60.6631 8.31652 61.4161 8.05484 62.653 8.05484C63.8121 8.05484 64.5363 8.27744 64.8257 8.72094C65.0423 9.0336 65.1506 9.35646 65.1506 9.68612C65.2453 9.55018 65.3824 9.38535 65.5634 9.18994C65.7479 8.99622 66.1405 8.73284 66.7412 8.40148C67.3402 8.07183 67.8664 7.9053 68.3182 7.9053C68.7734 7.9053 69.1541 7.93079 69.4621 7.98007C69.7734 8.03105 70.1118 8.11431 70.4773 8.23156Z" fill="#68B19F"/>
<path d="M83.2654 9.68612C83.3822 8.5986 84.1453 8.05484 85.5532 8.05484C86.3112 8.05484 86.873 8.11431 87.2385 8.23156C87.604 8.34541 87.8578 8.54932 88.0033 8.84329C88.1522 9.13386 88.2402 9.39045 88.2673 9.61135C88.2944 9.83395 88.3079 10.1687 88.3079 10.6173V20.806C88.3079 21.2512 88.2944 21.586 88.2673 21.812C88.2402 22.0346 88.159 22.2911 88.0236 22.58C87.7529 23.083 87.0896 23.3345 86.0337 23.3345C84.9812 23.3345 84.2756 23.2053 83.9152 22.947C83.5582 22.6854 83.35 22.2996 83.2925 21.7916C82.5784 22.8213 81.3855 23.3345 79.712 23.3345C78.0419 23.3345 76.4919 22.5698 75.0621 21.0371C73.6306 19.5061 72.9165 17.727 72.9165 15.7015C72.9165 13.6726 73.6356 11.8951 75.0756 10.3726C76.5139 8.84669 78.0944 8.08203 79.8135 8.08203C80.4718 8.08203 81.0725 8.20098 81.6139 8.43547C82.1554 8.66657 82.5311 8.88407 82.7443 9.08798C82.9558 9.29189 83.1301 9.4924 83.2654 9.68612ZM77.9928 15.7422C77.9928 16.3812 78.2433 16.9589 78.7441 17.4755C79.245 17.9886 79.8508 18.2435 80.5648 18.2435C81.2823 18.2435 81.8779 17.9835 82.3517 17.4619C82.8255 16.9368 83.0624 16.3591 83.0624 15.7286C83.0624 15.0948 82.834 14.5052 82.3788 13.9614C81.927 13.4177 81.3178 13.1458 80.5513 13.1458C79.7882 13.1458 79.1705 13.4177 78.6967 13.9614C78.2263 14.5052 77.9928 15.0999 77.9928 15.7422Z" fill="#68B19F"/>
<path d="M90.6277 10.6173C90.6277 10.1687 90.6412 9.83398 90.6683 9.61138C90.6988 9.39047 90.7834 9.13219 90.9187 8.83652C91.1895 8.33354 91.9425 8.08205 93.1794 8.08205C94.1084 8.08205 94.7649 8.24858 95.149 8.57823C95.4773 8.85011 95.6533 9.26813 95.6769 9.82888C95.6939 10.0243 95.704 10.3047 95.704 10.6717V20.8604C95.704 21.309 95.6871 21.6455 95.6566 21.8664C95.6296 22.089 95.5382 22.3472 95.3859 22.6412C95.1321 23.1442 94.3876 23.3957 93.1523 23.3957C91.934 23.3957 91.1895 23.134 90.9187 22.6072C90.7834 22.3184 90.6988 22.0669 90.6683 21.8528C90.6412 21.6404 90.6277 21.3005 90.6277 20.8332V10.6173ZM93.2132 0.863647L93.8765 1.00638C95.6719 1.59093 96.9714 2.01914 97.7752 2.29102C98.5772 2.5629 98.9799 3.03868 98.9799 3.71838C98.9799 4.08542 98.8733 4.47285 98.6618 4.88067C98.1373 5.91041 97.5586 6.42359 96.9223 6.42359C96.7464 6.42359 96.4367 6.35562 95.9951 6.21968L93.2132 4.99622L90.5126 6.1585C90.2419 6.29444 89.9136 6.36241 89.5312 6.36241C88.7968 6.36241 88.1961 5.86963 87.7308 4.88067C87.5007 4.37769 87.3856 3.96987 87.3856 3.65721C87.3856 3.03699 87.7511 2.60028 88.4821 2.34539L92.5161 1.00638L93.2132 0.863647Z" fill="#68B19F"/>
<path d="M102.805 15.7219C102.805 16.5477 103.076 17.1883 103.618 17.6454C104.159 18.1042 104.734 18.3319 105.344 18.3319C105.953 18.3319 106.521 18.1535 107.049 17.795C107.581 17.433 108.012 17.2512 108.342 17.2512C108.924 17.2512 109.63 17.7661 110.46 18.7941C110.902 19.3566 111.124 19.8612 111.124 20.3098C111.124 21.049 110.592 21.7372 109.533 22.3761C108.432 23.151 107.078 23.5384 105.472 23.5384C103.675 23.5384 101.946 22.8893 100.281 21.5877C99.4905 20.9675 98.8425 20.1382 98.3382 19.1C97.8373 18.0634 97.5869 16.9181 97.5869 15.6675C97.5869 14.4168 97.8373 13.2818 98.3382 12.2622C98.8425 11.2427 99.4905 10.4236 100.281 9.80169C101.887 8.52046 103.597 7.87814 105.411 7.87814C106.146 7.87814 106.861 7.9801 107.557 8.18401C108.256 8.38792 108.768 8.58843 109.093 8.78214L109.56 9.07441C109.907 9.30551 110.178 9.48903 110.372 9.62497C110.873 10.0158 111.124 10.4576 111.124 10.9504C111.124 11.4449 110.921 12.0022 110.515 12.6224C109.819 13.693 109.154 14.2265 108.518 14.2265C108.147 14.2265 107.625 14.0141 106.948 13.5876C106.599 13.258 106.102 13.0914 105.452 13.0914C104.805 13.0914 104.203 13.3259 103.645 13.7915C103.085 14.2537 102.805 14.8977 102.805 15.7219Z" fill="#68B19F"/>
<path d="M121.475 8.10924C123.406 8.10924 125.015 8.84842 126.301 10.3251C127.587 11.7983 128.23 13.6046 128.23 15.7423V20.8604C128.23 21.309 128.213 21.6455 128.183 21.8664C128.156 22.089 128.064 22.3472 127.912 22.6412C127.658 23.1442 126.914 23.3957 125.678 23.3957C124.501 23.3957 123.765 23.1442 123.472 22.6412C123.318 22.3472 123.225 22.0839 123.194 21.8528C123.167 21.6217 123.154 21.2733 123.154 20.806V15.7083C123.154 14.9164 122.93 14.2979 122.484 13.8527C122.04 13.4041 121.477 13.1798 120.792 13.1798C120.105 13.1798 119.501 13.3888 118.978 13.8051C118.458 14.2231 118.16 14.6921 118.084 15.2121V20.8604C118.084 21.309 118.067 21.6455 118.037 21.8664C118.01 22.089 117.918 22.3472 117.766 22.6412C117.512 23.1442 116.768 23.3957 115.533 23.3957C114.314 23.3957 113.57 23.134 113.299 22.6072C113.164 22.3184 113.079 22.0669 113.049 21.8528C113.021 21.6404 113.008 21.3005 113.008 20.8332V3.42612C113.008 2.97752 113.021 2.64276 113.049 2.42016C113.079 2.19926 113.164 1.95117 113.299 1.67929C113.57 1.15422 114.323 0.890839 115.56 0.890839C116.778 0.890839 117.512 1.15422 117.766 1.67929C117.918 1.96986 118.01 2.22815 118.037 2.45415C118.067 2.67675 118.084 3.0098 118.084 3.4533V9.89006C119.049 8.70398 120.179 8.10924 121.475 8.10924Z" fill="#68B19F"/>
<path d="M145.275 13.8935C145.275 15.0864 144.979 15.97 144.388 16.5443C143.801 17.1153 143.15 17.4007 142.432 17.4007H135.562C135.562 17.9445 135.88 18.3999 136.517 18.7669C137.156 19.134 137.796 19.3175 138.432 19.3175C139.556 19.3175 140.436 19.2019 141.072 18.9708L141.39 18.8553C141.853 18.6429 142.239 18.5358 142.547 18.5358C143.17 18.5358 143.701 18.9708 144.145 19.8409C144.397 20.3676 144.524 20.8128 144.524 21.1799C144.524 22.9114 142.463 23.7763 138.344 23.7763C136.918 23.7763 135.647 23.5282 134.533 23.0354C133.423 22.5376 132.559 21.88 131.941 21.0643C130.723 19.4925 130.114 17.7372 130.114 15.7966C130.114 13.3497 130.9 11.3956 132.476 9.93084C134.049 8.46779 136.017 7.73541 138.378 7.73541C141.062 7.73541 143.031 8.68529 144.287 10.5834C144.945 11.5944 145.275 12.6972 145.275 13.8935ZM139.156 14.7499C139.891 14.7499 140.26 14.4406 140.26 13.8187C140.26 13.3701 140.09 13.0099 139.752 12.738C139.413 12.4661 138.93 12.3302 138.303 12.3302C137.676 12.3302 137.053 12.5885 136.435 13.105C135.816 13.6182 135.508 14.1654 135.508 14.7499H139.156Z" fill="#68B19F"/>
</svg>
