<svg width="39" height="43" viewBox="0 0 39 43" fill="none" xmlns="http://www.w3.org/2000/svg">
<mask id="mask0_49_64" style="mask-type:luminance" maskUnits="userSpaceOnUse" x="0" y="0" width="39" height="43">
<path d="M0.5 0.955811H38.5V42.2258H0.5V0.955811Z" fill="white"/>
</mask>
<g mask="url(#mask0_49_64)">
<path fill-rule="evenodd" clip-rule="evenodd" d="M1.74681 0.963501H37.2751C37.357 0.963501 37.4376 0.972608 37.517 0.98942C37.597 1.00693 37.6744 1.03215 37.7498 1.06648C37.8246 1.1001 37.8962 1.14143 37.964 1.19047C38.0317 1.2395 38.0943 1.29554 38.1517 1.35789C38.2091 1.42094 38.2607 1.48889 38.3058 1.56174C38.351 1.63529 38.389 1.71305 38.4206 1.79501C38.4516 1.87627 38.4748 1.96033 38.491 2.04719C38.5071 2.13406 38.5148 2.22162 38.5148 2.30989V40.8955C38.5148 40.9838 38.5071 41.0714 38.491 41.1582C38.4748 41.2444 38.4516 41.3291 38.4206 41.4104C38.389 41.4924 38.351 41.5694 38.3058 41.643C38.2607 41.7165 38.2091 41.7845 38.1517 41.8475C38.0943 41.9099 38.0317 41.9652 37.964 42.0149C37.8962 42.064 37.8246 42.1053 37.7498 42.1389C37.6744 42.1726 37.597 42.1985 37.517 42.2153C37.4376 42.2328 37.357 42.2412 37.2751 42.2412H1.74681C1.66553 42.2412 1.58491 42.2328 1.50492 42.2153C1.42494 42.1985 1.34754 42.1726 1.27207 42.1389C1.19725 42.1053 1.12565 42.064 1.05793 42.0149C0.990199 41.9652 0.927632 41.9099 0.870226 41.8475C0.812819 41.7845 0.761218 41.7165 0.716066 41.643C0.670915 41.5694 0.632859 41.4924 0.601253 41.4104C0.570292 41.3291 0.547071 41.2444 0.530946 41.1582C0.51482 41.0714 0.50708 40.9838 0.50708 40.8955V2.30989C0.50708 2.22162 0.51482 2.13406 0.530946 2.04719C0.547071 1.96033 0.570292 1.87627 0.601253 1.79501C0.632859 1.71305 0.670915 1.63529 0.716066 1.56174C0.761218 1.48889 0.812819 1.42094 0.870226 1.35789C0.927632 1.29554 0.990199 1.2395 1.05793 1.19047C1.12565 1.14143 1.19725 1.1001 1.27207 1.06648C1.34754 1.03215 1.42494 1.00693 1.50492 0.98942C1.58491 0.972608 1.66553 0.963501 1.74681 0.963501Z" fill="#2196F3"/>
</g>
<path fill-rule="evenodd" clip-rule="evenodd" d="M2.21771 2.82129H36.8049V40.3842H2.21771V2.82129Z" fill="#186EB1"/>
<path fill-rule="evenodd" clip-rule="evenodd" d="M18.6076 10.5661L17.6123 8.69366V8.69436L17.6117 8.69366V8.69436L17.604 8.67825C17.4337 8.36722 17.1712 8.15356 16.8848 8.059C16.6042 7.96653 16.2997 7.98894 16.0372 8.14796C16.0275 8.15497 16.0179 8.16057 16.0082 8.16617C15.7508 8.3336 15.5812 8.6089 15.5141 8.91852C15.4464 9.23446 15.4851 9.58541 15.645 9.89924C15.6541 9.91325 15.6618 9.92866 15.6683 9.94407L16.6519 11.7941L18.6076 10.5661Z" fill="#FEFEFE"/>
<path fill-rule="evenodd" clip-rule="evenodd" d="M18.0471 14.4182L19.3513 11.9644L18.8688 11.0572L16.9131 12.2852L18.0471 14.4182Z" fill="#FEFEFE"/>
<path fill-rule="evenodd" clip-rule="evenodd" d="M21.0342 14.8386L23.0802 10.9906L21.1238 9.76404L12.3851 26.2023H14.9936L19.4184 17.8788C19.4236 17.8676 19.4294 17.8571 19.4352 17.8466L21.0303 14.847C21.0316 14.8442 21.0329 14.8414 21.0342 14.8386Z" fill="#FEFEFE"/>
<path fill-rule="evenodd" clip-rule="evenodd" d="M27.1341 26.6044L21.258 15.551L19.9538 18.0042L24.3793 26.3277C24.3857 26.3389 24.3922 26.3501 24.3973 26.362L25.9841 29.3469C25.9912 29.3588 25.9976 29.37 26.0028 29.3826L28.1604 33.4414L30.1167 32.2148L28.7641 29.6712C28.7551 29.6565 28.7467 29.6411 28.7396 29.6243L27.1593 26.6513C27.1496 26.6366 27.1412 26.6212 27.1341 26.6044Z" fill="#FEFEFE"/>
<path fill-rule="evenodd" clip-rule="evenodd" d="M24.0116 26.7711H7.53394V29.2222H25.3145L24.0116 26.7711Z" fill="#FEFEFE"/>
<path fill-rule="evenodd" clip-rule="evenodd" d="M7.01082 29.0288V26.9644L5.2583 27.9963L7.01082 29.0288Z" fill="#FEFEFE"/>
<path fill-rule="evenodd" clip-rule="evenodd" d="M11.5711 32.6393L9.61539 31.4113L8.63173 33.2614C8.62528 33.2768 8.61754 33.2922 8.60851 33.3062C8.44855 33.62 8.40985 33.971 8.47822 34.2869C8.54466 34.5965 8.7143 34.8718 8.97166 35.0393C8.98133 35.0449 8.99165 35.0505 9.00068 35.0575C9.26321 35.2165 9.56766 35.2389 9.84824 35.1464C10.1398 35.0505 10.4055 34.8312 10.5758 34.5111L11.5711 32.6393Z" fill="#FEFEFE"/>
<path fill-rule="evenodd" clip-rule="evenodd" d="M11.8323 32.1475L13.0856 29.7903H10.4772L9.87665 30.9195L11.8323 32.1475Z" fill="#FEFEFE"/>
<path fill-rule="evenodd" clip-rule="evenodd" d="M30.2237 32.8025L28.5751 33.8357L30.2766 34.9692L30.2237 32.8025Z" fill="#FEFEFE"/>
<path fill-rule="evenodd" clip-rule="evenodd" d="M33.4108 27.1368C33.1889 26.9112 32.8819 26.7711 32.5419 26.7711H30.5488L30.5508 29.2222H32.5419C32.8819 29.2222 33.1889 29.0821 33.4108 28.8558C33.6288 28.6345 33.7642 28.3298 33.7642 27.9963C33.7642 27.6629 33.6288 27.3581 33.4108 27.1368Z" fill="#FEFEFE"/>
<path fill-rule="evenodd" clip-rule="evenodd" d="M30.029 29.2222L30.027 26.7711H27.8243L29.1272 29.2222H30.029Z" fill="#FEFEFE"/>
<path fill-rule="evenodd" clip-rule="evenodd" d="M23.1873 10.4029L23.2402 8.23621L21.5392 9.36964L23.1873 10.4029Z" fill="#FEFEFE"/>
</svg>
