<svg xmlns="http://www.w3.org/2000/svg" xmlns:xlink="http://www.w3.org/1999/xlink" width="1611" zoomAndPan="magnify" viewBox="0 0 1208.25 389.249997" height="519" preserveAspectRatio="xMidYMid meet" version="1.0"><defs><g/><clipPath id="f9b6d3fab3"><path d="M 402 160 L 603 160 L 603 211 L 402 211 Z M 402 160 " clip-rule="nonzero"/></clipPath><clipPath id="a1dd129352"><path d="M 502.765625 7.328125 L 684.316406 188.882812 L 501.707031 371.492188 L 320.152344 189.941406 Z M 502.765625 7.328125 " clip-rule="nonzero"/></clipPath><clipPath id="4e33e14455"><path d="M 502.765625 7.328125 L 684.316406 188.882812 L 501.707031 371.492188 L 320.152344 189.941406 Z M 502.765625 7.328125 " clip-rule="nonzero"/></clipPath><clipPath id="9b761ae5e7"><path d="M 533 191 L 603 191 L 603 205 L 533 205 Z M 533 191 " clip-rule="nonzero"/></clipPath><clipPath id="ffffb99c15"><path d="M 502.765625 7.328125 L 684.316406 188.882812 L 501.707031 371.492188 L 320.152344 189.941406 Z M 502.765625 7.328125 " clip-rule="nonzero"/></clipPath><clipPath id="ca827da1e5"><path d="M 502.765625 7.328125 L 684.316406 188.882812 L 501.707031 371.492188 L 320.152344 189.941406 Z M 502.765625 7.328125 " clip-rule="nonzero"/></clipPath><clipPath id="760261525b"><path d="M 533 239 L 603 239 L 603 253 L 533 253 Z M 533 239 " clip-rule="nonzero"/></clipPath><clipPath id="a17279aa70"><path d="M 502.765625 7.328125 L 684.316406 188.882812 L 501.707031 371.492188 L 320.152344 189.941406 Z M 502.765625 7.328125 " clip-rule="nonzero"/></clipPath><clipPath id="c3b11335c2"><path d="M 502.765625 7.328125 L 684.316406 188.882812 L 501.707031 371.492188 L 320.152344 189.941406 Z M 502.765625 7.328125 " clip-rule="nonzero"/></clipPath><clipPath id="d4a371131f"><path d="M 403 89 L 603 89 L 603 139 L 403 139 Z M 403 89 " clip-rule="nonzero"/></clipPath><clipPath id="66b43cda44"><path d="M 502.765625 7.328125 L 684.316406 188.882812 L 501.707031 371.492188 L 320.152344 189.941406 Z M 502.765625 7.328125 " clip-rule="nonzero"/></clipPath><clipPath id="a1c86dce69"><path d="M 502.765625 7.328125 L 684.316406 188.882812 L 501.707031 371.492188 L 320.152344 189.941406 Z M 502.765625 7.328125 " clip-rule="nonzero"/></clipPath><clipPath id="d9fc416c74"><path d="M 533 215 L 603 215 L 603 229 L 533 229 Z M 533 215 " clip-rule="nonzero"/></clipPath><clipPath id="8d997c25d5"><path d="M 502.765625 7.328125 L 684.316406 188.882812 L 501.707031 371.492188 L 320.152344 189.941406 Z M 502.765625 7.328125 " clip-rule="nonzero"/></clipPath><clipPath id="b144681f50"><path d="M 502.765625 7.328125 L 684.316406 188.882812 L 501.707031 371.492188 L 320.152344 189.941406 Z M 502.765625 7.328125 " clip-rule="nonzero"/></clipPath><clipPath id="41babaa32c"><path d="M 402 232 L 601 232 L 601 290 L 402 290 Z M 402 232 " clip-rule="nonzero"/></clipPath><clipPath id="29af6d2622"><path d="M 502.765625 7.328125 L 684.316406 188.882812 L 501.707031 371.492188 L 320.152344 189.941406 Z M 502.765625 7.328125 " clip-rule="nonzero"/></clipPath><clipPath id="f2bc1ba8f9"><path d="M 502.765625 7.328125 L 684.316406 188.882812 L 501.707031 371.492188 L 320.152344 189.941406 Z M 502.765625 7.328125 " clip-rule="nonzero"/></clipPath></defs><g fill="#68b19f" fill-opacity="1"><g transform="translate(618.450233, 279.283794)"><g><path d="M 221.359375 -175.96875 C 232.140625 -172.113281 237.53125 -166.96875 237.53125 -160.53125 C 237.53125 -158.4375 236.5625 -154.492188 234.625 -148.703125 L 188.28125 -14.71875 C 187.957031 -13.59375 187.394531 -12.222656 186.59375 -10.609375 C 185.789062 -9.003906 183.660156 -6.875 180.203125 -4.21875 C 176.742188 -1.5625 172.640625 -0.234375 167.890625 -0.234375 C 163.140625 -0.234375 159.035156 -1.5625 155.578125 -4.21875 C 152.117188 -6.875 149.828125 -9.488281 148.703125 -12.0625 L 120.453125 -95.34375 C 102.585938 -42.5625 93.492188 -15.6875 93.171875 -14.71875 C 92.847656 -13.757812 92.125 -12.394531 91 -10.625 C 89.875 -8.851562 88.585938 -7.242188 87.140625 -5.796875 C 83.441406 -2.085938 79.015625 -0.234375 73.859375 -0.234375 C 68.710938 -0.234375 64.488281 -1.441406 61.1875 -3.859375 C 57.894531 -6.273438 55.679688 -8.691406 54.546875 -11.109375 L 52.859375 -14.71875 L 6.28125 -148.703125 C 4.507812 -154.003906 3.625 -157.945312 3.625 -160.53125 C 3.625 -166.96875 9.015625 -172.035156 19.796875 -175.734375 C 24.460938 -177.335938 28.6875 -178.140625 32.46875 -178.140625 C 36.25 -178.140625 39.144531 -176.851562 41.15625 -174.28125 C 43.164062 -171.707031 44.976562 -167.765625 46.59375 -162.453125 L 73.140625 -81.828125 L 99.453125 -161.25 C 101.703125 -168.007812 105.804688 -172.675781 111.765625 -175.25 C 114.335938 -176.375 117.675781 -176.9375 121.78125 -176.9375 C 125.882812 -176.9375 129.707031 -175.609375 133.25 -172.953125 C 136.789062 -170.296875 139.039062 -167.679688 140 -165.109375 L 167.765625 -81.34375 L 194.3125 -162.453125 C 195.601562 -166.160156 196.648438 -168.894531 197.453125 -170.65625 C 198.265625 -172.425781 199.753906 -174.15625 201.921875 -175.84375 C 204.097656 -177.539062 206.796875 -178.390625 210.015625 -178.390625 C 213.234375 -178.390625 217.015625 -177.582031 221.359375 -175.96875 Z M 221.359375 -175.96875 "/></g></g></g><g fill="#68b19f" fill-opacity="1"><g transform="translate(859.593005, 279.283794)"><g><path d="M 12.3125 -24.859375 C 8.125 -30.015625 6.03125 -34.644531 6.03125 -38.75 C 6.03125 -42.851562 9.492188 -48.28125 16.421875 -55.03125 C 20.441406 -58.894531 24.703125 -60.828125 29.203125 -60.828125 C 33.710938 -60.828125 39.988281 -56.804688 48.03125 -48.765625 C 50.289062 -46.023438 53.507812 -43.40625 57.6875 -40.90625 C 61.875 -38.414062 65.738281 -37.171875 69.28125 -37.171875 C 84.25 -37.171875 91.734375 -43.285156 91.734375 -55.515625 C 91.734375 -59.222656 89.679688 -62.320312 85.578125 -64.8125 C 81.472656 -67.3125 76.363281 -69.125 70.25 -70.25 C 64.132812 -71.375 57.535156 -73.179688 50.453125 -75.671875 C 43.367188 -78.171875 36.769531 -81.109375 30.65625 -84.484375 C 24.539062 -87.867188 19.429688 -93.21875 15.328125 -100.53125 C 11.222656 -107.851562 9.171875 -116.664062 9.171875 -126.96875 C 9.171875 -141.132812 14.441406 -153.488281 24.984375 -164.03125 C 35.523438 -174.570312 49.890625 -179.84375 68.078125 -179.84375 C 77.734375 -179.84375 86.539062 -178.59375 94.5 -176.09375 C 102.46875 -173.601562 107.984375 -171.066406 111.046875 -168.484375 L 117.078125 -163.90625 C 122.066406 -159.238281 124.5625 -155.296875 124.5625 -152.078125 C 124.5625 -148.859375 122.628906 -144.429688 118.765625 -138.796875 C 113.296875 -130.753906 107.660156 -126.734375 101.859375 -126.734375 C 98.484375 -126.734375 94.300781 -128.34375 89.3125 -131.5625 C 88.832031 -131.882812 87.90625 -132.6875 86.53125 -133.96875 C 85.164062 -135.257812 83.921875 -136.304688 82.796875 -137.109375 C 79.421875 -139.203125 75.113281 -140.25 69.875 -140.25 C 64.644531 -140.25 60.300781 -139 56.84375 -136.5 C 53.382812 -134.007812 51.65625 -130.550781 51.65625 -126.125 C 51.65625 -121.695312 53.707031 -118.113281 57.8125 -115.375 C 61.914062 -112.644531 67.023438 -110.796875 73.140625 -109.828125 C 79.253906 -108.867188 85.929688 -107.378906 93.171875 -105.359375 C 100.421875 -103.347656 107.101562 -100.894531 113.21875 -98 C 119.332031 -95.101562 124.441406 -90.070312 128.546875 -82.90625 C 132.648438 -75.75 134.703125 -66.941406 134.703125 -56.484375 C 134.703125 -46.023438 132.609375 -36.8125 128.421875 -28.84375 C 124.234375 -20.875 118.757812 -14.71875 112 -10.375 C 98.96875 -1.851562 85.050781 2.40625 70.25 2.40625 C 62.6875 2.40625 55.523438 1.484375 48.765625 -0.359375 C 42.003906 -2.210938 36.53125 -4.503906 32.34375 -7.234375 C 23.8125 -12.390625 17.859375 -17.378906 14.484375 -22.203125 Z M 12.3125 -24.859375 "/></g></g></g><g fill="#68b19f" fill-opacity="1"><g transform="translate(1000.319995, 279.283794)"><g><path d="M 52.375 -42.71875 L 126.734375 -42.71875 C 130.429688 -42.71875 133.203125 -42.597656 135.046875 -42.359375 C 136.898438 -42.117188 139.035156 -41.359375 141.453125 -40.078125 C 145.796875 -37.816406 147.96875 -31.539062 147.96875 -21.25 C 147.96875 -9.976562 144.992188 -3.378906 139.046875 -1.453125 C 136.304688 -0.484375 132.117188 0 126.484375 0 L 30.890625 0 C 19.628906 0 13.035156 -3.054688 11.109375 -9.171875 C 10.140625 -11.742188 9.65625 -15.847656 9.65625 -21.484375 L 9.65625 -155.703125 C 9.65625 -163.910156 11.179688 -169.5 14.234375 -172.46875 C 17.296875 -175.445312 23.09375 -176.9375 31.625 -176.9375 L 126.734375 -176.9375 C 130.429688 -176.9375 133.203125 -176.816406 135.046875 -176.578125 C 136.898438 -176.335938 139.035156 -175.570312 141.453125 -174.28125 C 145.796875 -172.03125 147.96875 -165.753906 147.96875 -155.453125 C 147.96875 -144.191406 144.992188 -137.59375 139.046875 -135.65625 C 136.304688 -134.695312 132.117188 -134.21875 126.484375 -134.21875 L 52.375 -134.21875 L 52.375 -109.828125 L 100.171875 -109.828125 C 103.878906 -109.828125 106.65625 -109.707031 108.5 -109.46875 C 110.351562 -109.226562 112.488281 -108.460938 114.90625 -107.171875 C 119.25 -104.921875 121.421875 -98.644531 121.421875 -88.34375 C 121.421875 -77.082031 118.363281 -70.488281 112.25 -68.5625 C 109.507812 -67.59375 105.320312 -67.109375 99.6875 -67.109375 L 52.375 -67.109375 Z M 52.375 -42.71875 "/></g></g></g><g fill="#68b19f" fill-opacity="1"><g transform="translate(51.569305, 279.636038)"><g><path d="M 120.203125 -46.34375 L 124.546875 -49.484375 C 130.015625 -52.703125 133.878906 -54.3125 136.140625 -54.3125 C 141.128906 -54.3125 146.519531 -49.804688 152.3125 -40.796875 C 155.851562 -35.160156 157.625 -30.648438 157.625 -27.265625 C 157.625 -23.890625 156.535156 -21.078125 154.359375 -18.828125 C 152.179688 -16.578125 149.644531 -14.566406 146.75 -12.796875 C 143.851562 -11.023438 141.078125 -9.332031 138.421875 -7.71875 C 135.773438 -6.113281 130.347656 -4.023438 122.140625 -1.453125 C 113.929688 1.117188 106.003906 2.40625 98.359375 2.40625 C 90.710938 2.40625 82.988281 1.398438 75.1875 -0.609375 C 67.382812 -2.617188 59.335938 -5.992188 51.046875 -10.734375 C 42.765625 -15.484375 35.320312 -21.273438 28.71875 -28.109375 C 22.125 -34.953125 16.691406 -43.722656 12.421875 -54.421875 C 8.160156 -65.128906 6.03125 -76.757812 6.03125 -89.3125 C 6.03125 -101.863281 8.117188 -113.25 12.296875 -123.46875 C 16.484375 -133.6875 21.835938 -142.132812 28.359375 -148.8125 C 34.878906 -155.488281 42.320312 -161.078125 50.6875 -165.578125 C 66.457031 -174.273438 82.304688 -178.625 98.234375 -178.625 C 105.796875 -178.625 113.476562 -177.457031 121.28125 -175.125 C 129.09375 -172.789062 135.007812 -170.414062 139.03125 -168 L 144.828125 -164.625 C 147.722656 -162.851562 149.972656 -161.398438 151.578125 -160.265625 C 155.765625 -156.890625 157.859375 -153.066406 157.859375 -148.796875 C 157.859375 -144.535156 156.171875 -140.070312 152.796875 -135.40625 C 146.515625 -126.71875 140.878906 -122.375 135.890625 -122.375 C 132.992188 -122.375 128.890625 -124.144531 123.578125 -127.6875 C 116.828125 -133.15625 107.816406 -135.890625 96.546875 -135.890625 C 86.085938 -135.890625 75.789062 -132.269531 65.65625 -125.03125 C 60.820312 -121.488281 56.796875 -116.5 53.578125 -110.0625 C 50.359375 -103.625 48.75 -96.34375 48.75 -88.21875 C 48.75 -80.09375 50.359375 -72.8125 53.578125 -66.375 C 56.796875 -59.9375 60.898438 -54.867188 65.890625 -51.171875 C 75.710938 -44.085938 85.929688 -40.546875 96.546875 -40.546875 C 101.535156 -40.546875 106.242188 -41.1875 110.671875 -42.46875 C 115.097656 -43.757812 118.273438 -45.050781 120.203125 -46.34375 Z M 120.203125 -46.34375 "/></g></g></g><g fill="#68b19f" fill-opacity="1"><g transform="translate(215.455025, 279.636038)"><g><path d="M 118.984375 -170.40625 C 120.273438 -172.820312 122.445312 -174.507812 125.5 -175.46875 C 128.5625 -176.4375 132.425781 -176.921875 137.09375 -176.921875 C 141.757812 -176.921875 145.460938 -176.519531 148.203125 -175.71875 C 150.941406 -174.914062 153.035156 -173.953125 154.484375 -172.828125 C 155.929688 -171.703125 157.054688 -170.09375 157.859375 -168 C 158.660156 -165.257812 159.0625 -161.078125 159.0625 -155.453125 L 159.0625 -21.484375 C 159.0625 -17.785156 158.941406 -15.007812 158.703125 -13.15625 C 158.460938 -11.300781 157.695312 -9.171875 156.40625 -6.765625 C 154.15625 -2.410156 147.878906 -0.234375 137.578125 -0.234375 C 126.316406 -0.234375 119.722656 -3.210938 117.796875 -9.171875 C 116.828125 -11.910156 116.34375 -16.09375 116.34375 -21.71875 L 116.34375 -70.71875 L 52.375 -70.71875 L 52.375 -21.484375 C 52.375 -17.785156 52.253906 -15.007812 52.015625 -13.15625 C 51.773438 -11.300781 51.007812 -9.171875 49.71875 -6.765625 C 47.46875 -2.410156 41.191406 -0.234375 30.890625 -0.234375 C 19.628906 -0.234375 13.035156 -3.210938 11.109375 -9.171875 C 10.140625 -11.910156 9.65625 -16.09375 9.65625 -21.71875 L 9.65625 -155.6875 C 9.65625 -159.382812 9.773438 -162.160156 10.015625 -164.015625 C 10.253906 -165.867188 11.019531 -168 12.3125 -170.40625 C 14.5625 -174.75 20.835938 -176.921875 31.140625 -176.921875 C 42.398438 -176.921875 49.078125 -173.945312 51.171875 -168 C 51.972656 -165.257812 52.375 -161.078125 52.375 -155.453125 L 52.375 -106.203125 L 116.34375 -106.203125 L 116.34375 -155.6875 C 116.34375 -159.382812 116.460938 -162.160156 116.703125 -164.015625 C 116.941406 -165.867188 117.703125 -168 118.984375 -170.40625 Z M 118.984375 -170.40625 "/></g></g></g><g clip-path="url(#f9b6d3fab3)"><g clip-path="url(#a1dd129352)"><g clip-path="url(#4e33e14455)"><path fill="#f8cf7c" d="M 402.800781 207.3125 L 486.472656 210.242188 C 493.628906 191.789062 518.359375 178.148438 547.859375 178.152344 L 602.503906 178.152344 L 602.503906 163.796875 L 514.34375 160.703125 C 507.183594 179.15625 482.453125 192.789062 452.964844 192.785156 C 432.550781 192.785156 414.425781 186.234375 402.804688 176.097656 Z M 402.800781 207.3125 " fill-opacity="1" fill-rule="nonzero"/></g></g></g><g clip-path="url(#9b761ae5e7)"><g clip-path="url(#ffffb99c15)"><g clip-path="url(#ca827da1e5)"><path fill="#68b19f" d="M 533.28125 197.679688 C 533.28125 201.363281 536.265625 204.351562 539.949219 204.351562 L 602.507812 204.351562 L 602.503906 191.015625 L 539.945312 191.015625 C 536.265625 191.011719 533.28125 194 533.28125 197.679688 Z M 533.28125 197.679688 " fill-opacity="1" fill-rule="nonzero"/></g></g></g><g clip-path="url(#760261525b)"><g clip-path="url(#a17279aa70)"><g clip-path="url(#c3b11335c2)"><path fill="#68b19f" d="M 539.945312 239.027344 C 536.261719 239.027344 533.277344 242.011719 533.277344 245.695312 C 533.277344 249.378906 536.265625 252.363281 539.945312 252.363281 L 602.425781 252.363281 C 602.445312 251.855469 602.503906 251.355469 602.503906 250.847656 L 602.503906 239.027344 Z M 539.945312 239.027344 " fill-opacity="1" fill-rule="nonzero"/></g></g></g><g clip-path="url(#d4a371131f)"><g clip-path="url(#66b43cda44)"><g clip-path="url(#a1c86dce69)"><path fill="#f47c57" d="M 452.964844 106.71875 C 482.457031 106.71875 507.183594 120.34375 514.34375 138.796875 L 602.503906 135.703125 L 602.503906 128.394531 C 602.503906 107.0625 585.210938 89.765625 563.878906 89.769531 L 441.425781 89.765625 C 421.917969 89.765625 405.835938 104.242188 403.214844 123.027344 C 414.855469 113.097656 432.796875 106.71875 452.964844 106.71875 Z M 452.964844 106.71875 " fill-opacity="1" fill-rule="nonzero"/></g></g></g><g clip-path="url(#d9fc416c74)"><g clip-path="url(#8d997c25d5)"><g clip-path="url(#b144681f50)"><path fill="#68b19f" d="M 539.945312 228.664062 L 602.503906 228.664062 L 602.503906 215.324219 L 539.945312 215.324219 C 536.265625 215.324219 533.277344 218.3125 533.277344 221.996094 C 533.277344 225.675781 536.261719 228.664062 539.945312 228.664062 Z M 539.945312 228.664062 " fill-opacity="1" fill-rule="nonzero"/></g></g></g><g clip-path="url(#41babaa32c)"><g clip-path="url(#29af6d2622)"><g clip-path="url(#f2bc1ba8f9)"><path fill="#68b19f" d="M 547.863281 264.222656 C 518.359375 264.222656 493.632812 250.589844 486.476562 232.132812 L 402.804688 235.066406 L 402.804688 250.847656 C 402.804688 272.179688 420.097656 289.476562 441.429688 289.472656 L 563.878906 289.472656 C 580.503906 289.472656 594.628906 278.953125 600.078125 264.222656 Z M 547.863281 264.222656 " fill-opacity="1" fill-rule="nonzero"/></g></g></g></svg>