<svg xmlns="http://www.w3.org/2000/svg" xmlns:xlink="http://www.w3.org/1999/xlink" width="487" zoomAndPan="magnify" viewBox="0 0 365.25 365.249987" height="487" preserveAspectRatio="xMidYMid meet" version="1.0"><defs><clipPath id="153b434b47"><path d="M 82 153 L 283 153 L 283 203 L 82 203 Z M 82 153 " clip-rule="nonzero"/></clipPath><clipPath id="389697edd7"><path d="M 182.414062 0.00390625 L 363.945312 181.53125 L 181.355469 364.121094 L -0.171875 182.589844 Z M 182.414062 0.00390625 " clip-rule="nonzero"/></clipPath><clipPath id="f631847ae0"><path d="M 182.414062 0.00390625 L 363.945312 181.53125 L 181.355469 364.121094 L -0.171875 182.589844 Z M 182.414062 0.00390625 " clip-rule="nonzero"/></clipPath><clipPath id="9729548613"><path d="M 212 183 L 283 183 L 283 197 L 212 197 Z M 212 183 " clip-rule="nonzero"/></clipPath><clipPath id="7475220320"><path d="M 182.414062 0.00390625 L 363.945312 181.53125 L 181.355469 364.121094 L -0.171875 182.589844 Z M 182.414062 0.00390625 " clip-rule="nonzero"/></clipPath><clipPath id="eea0d145f1"><path d="M 182.414062 0.00390625 L 363.945312 181.53125 L 181.355469 364.121094 L -0.171875 182.589844 Z M 182.414062 0.00390625 " clip-rule="nonzero"/></clipPath><clipPath id="25dc9e8c07"><path d="M 212 231 L 283 231 L 283 246 L 212 246 Z M 212 231 " clip-rule="nonzero"/></clipPath><clipPath id="0dfa5904e1"><path d="M 182.414062 0.00390625 L 363.945312 181.53125 L 181.355469 364.121094 L -0.171875 182.589844 Z M 182.414062 0.00390625 " clip-rule="nonzero"/></clipPath><clipPath id="2364a3bc70"><path d="M 182.414062 0.00390625 L 363.945312 181.53125 L 181.355469 364.121094 L -0.171875 182.589844 Z M 182.414062 0.00390625 " clip-rule="nonzero"/></clipPath><clipPath id="10e98d5294"><path d="M 82 82 L 283 82 L 283 132 L 82 132 Z M 82 82 " clip-rule="nonzero"/></clipPath><clipPath id="8c64f49f13"><path d="M 182.414062 0.00390625 L 363.945312 181.53125 L 181.355469 364.121094 L -0.171875 182.589844 Z M 182.414062 0.00390625 " clip-rule="nonzero"/></clipPath><clipPath id="077a229a6d"><path d="M 182.414062 0.00390625 L 363.945312 181.53125 L 181.355469 364.121094 L -0.171875 182.589844 Z M 182.414062 0.00390625 " clip-rule="nonzero"/></clipPath><clipPath id="d79820065c"><path d="M 212 207 L 283 207 L 283 222 L 212 222 Z M 212 207 " clip-rule="nonzero"/></clipPath><clipPath id="a841e11ee9"><path d="M 182.414062 0.00390625 L 363.945312 181.53125 L 181.355469 364.121094 L -0.171875 182.589844 Z M 182.414062 0.00390625 " clip-rule="nonzero"/></clipPath><clipPath id="5c250e1ece"><path d="M 182.414062 0.00390625 L 363.945312 181.53125 L 181.355469 364.121094 L -0.171875 182.589844 Z M 182.414062 0.00390625 " clip-rule="nonzero"/></clipPath><clipPath id="66bd2ce997"><path d="M 82 224 L 280 224 L 280 283 L 82 283 Z M 82 224 " clip-rule="nonzero"/></clipPath><clipPath id="eb140b8d50"><path d="M 182.414062 0.00390625 L 363.945312 181.53125 L 181.355469 364.121094 L -0.171875 182.589844 Z M 182.414062 0.00390625 " clip-rule="nonzero"/></clipPath><clipPath id="7428951641"><path d="M 182.414062 0.00390625 L 363.945312 181.53125 L 181.355469 364.121094 L -0.171875 182.589844 Z M 182.414062 0.00390625 " clip-rule="nonzero"/></clipPath></defs><g clip-path="url(#153b434b47)"><g clip-path="url(#389697edd7)"><g clip-path="url(#f631847ae0)"><path fill="#f8cf7c" d="M 82.464844 199.960938 L 166.128906 202.890625 C 173.285156 184.441406 198.011719 170.804688 227.503906 170.804688 L 282.144531 170.804688 L 282.144531 156.449219 L 193.996094 153.359375 C 186.835938 171.808594 162.109375 185.4375 132.621094 185.433594 C 112.210938 185.433594 94.089844 178.886719 82.46875 168.753906 Z M 82.464844 199.960938 " fill-opacity="1" fill-rule="nonzero"/></g></g></g><g clip-path="url(#9729548613)"><g clip-path="url(#7475220320)"><g clip-path="url(#eea0d145f1)"><path fill="#68b19f" d="M 212.929688 190.332031 C 212.929688 194.015625 215.914062 197 219.597656 197 L 282.148438 197 L 282.144531 183.667969 L 219.59375 183.667969 C 215.914062 183.664062 212.929688 186.648438 212.929688 190.332031 Z M 212.929688 190.332031 " fill-opacity="1" fill-rule="nonzero"/></g></g></g><g clip-path="url(#25dc9e8c07)"><g clip-path="url(#0dfa5904e1)"><g clip-path="url(#2364a3bc70)"><path fill="#68b19f" d="M 219.59375 231.671875 C 215.910156 231.671875 212.925781 234.65625 212.925781 238.339844 C 212.925781 242.019531 215.910156 245.007812 219.59375 245.007812 L 282.066406 245.007812 C 282.082031 244.5 282.144531 244 282.144531 243.492188 L 282.144531 231.671875 Z M 219.59375 231.671875 " fill-opacity="1" fill-rule="nonzero"/></g></g></g><g clip-path="url(#10e98d5294)"><g clip-path="url(#8c64f49f13)"><g clip-path="url(#077a229a6d)"><path fill="#f47c57" d="M 132.621094 99.378906 C 162.113281 99.378906 186.835938 113.003906 193.996094 131.453125 L 282.144531 128.363281 L 282.144531 121.054688 C 282.144531 99.722656 264.851562 82.429688 243.523438 82.433594 L 121.085938 82.429688 C 101.578125 82.429688 85.5 96.902344 82.878906 115.6875 C 94.519531 105.761719 112.457031 99.378906 132.621094 99.378906 Z M 132.621094 99.378906 " fill-opacity="1" fill-rule="nonzero"/></g></g></g><g clip-path="url(#d79820065c)"><g clip-path="url(#a841e11ee9)"><g clip-path="url(#5c250e1ece)"><path fill="#68b19f" d="M 219.59375 221.308594 L 282.144531 221.308594 L 282.144531 207.972656 L 219.59375 207.972656 C 215.910156 207.972656 212.925781 210.957031 212.925781 214.640625 C 212.925781 218.324219 215.910156 221.308594 219.59375 221.308594 Z M 219.59375 221.308594 " fill-opacity="1" fill-rule="nonzero"/></g></g></g><g clip-path="url(#66bd2ce997)"><g clip-path="url(#eb140b8d50)"><g clip-path="url(#7428951641)"><path fill="#68b19f" d="M 227.507812 256.867188 C 198.011719 256.867188 173.289062 243.234375 166.128906 224.78125 L 82.46875 227.710938 L 82.46875 243.492188 C 82.46875 264.824219 99.761719 282.113281 121.089844 282.109375 L 243.523438 282.109375 C 260.148438 282.109375 274.269531 271.59375 279.71875 256.867188 Z M 227.507812 256.867188 " fill-opacity="1" fill-rule="nonzero"/></g></g></g></svg>