<svg width="18" height="17" viewBox="0 0 18 17" fill="none" xmlns="http://www.w3.org/2000/svg">
<mask id="mask0_101_84" style="mask-type:luminance" maskUnits="userSpaceOnUse" x="0" y="0" width="18" height="17">
<path d="M0.908325 0.404633H17.2355V16.7318H0.908325V0.404633Z" fill="white"/>
</mask>
<g mask="url(#mask0_101_84)">
<path d="M9.07189 0.404633C4.57084 0.404633 0.908325 4.06687 0.908325 8.5682C0.908325 13.0695 4.57084 16.7318 9.07189 16.7318C13.5732 16.7318 17.2355 13.0695 17.2355 8.5682C17.2355 4.06687 13.5732 0.404633 9.07189 0.404633ZM4.4871 14.0384C4.56308 11.5724 6.58761 9.58865 9.07189 9.58865C11.5562 9.58865 13.5807 11.5724 13.657 14.0384C12.415 15.0808 10.8164 15.7113 9.07189 15.7113C7.32743 15.7113 5.72882 15.0808 4.4871 14.0384ZM6.52078 6.01709C6.52078 4.61037 7.66518 3.46597 9.07189 3.46597C10.4786 3.46597 11.623 4.61037 11.623 6.01709C11.623 7.4238 10.4786 8.5682 9.07189 8.5682C7.66518 8.5682 6.52078 7.4238 6.52078 6.01709ZM14.5793 13.1117C14.2099 11.2044 12.8722 9.64328 11.1 8.95281C12.0312 8.3081 12.6435 7.23303 12.6435 6.01709C12.6435 4.04801 11.041 2.44552 9.07189 2.44552C7.1031 2.44552 5.50033 4.04801 5.50033 6.01709C5.50033 7.23303 6.1126 8.3081 7.04376 8.95336C5.27184 9.64383 3.93389 11.205 3.56398 13.1122C2.54298 11.8766 1.92877 10.2927 1.92877 8.5682C1.92877 4.62922 5.13292 1.42508 9.07189 1.42508C13.0109 1.42508 16.215 4.62922 16.215 8.5682C16.215 10.2927 15.6008 11.8766 14.5793 13.1117Z" fill="#2B2B2B"/>
</g>
</svg>
