<svg xmlns="http://www.w3.org/2000/svg" xmlns:xlink="http://www.w3.org/1999/xlink" width="308" zoomAndPan="magnify" viewBox="0 0 230.87999 225" height="300" preserveAspectRatio="xMidYMid meet" version="1.0"><defs><clipPath id="9b007f766a"><path d="M 0 0.0585938 L 230.128906 0.0585938 L 230.128906 224.191406 L 0 224.191406 Z M 0 0.0585938 " clip-rule="nonzero"/></clipPath></defs><g clip-path="url(#9b007f766a)"><path fill="#cacaca" d="M 101.261719 0.21875 C 101.320312 0.273438 101.957031 0.40625 102.707031 0.515625 C 105.460938 0.910156 109.832031 2.691406 111.554688 4.136719 C 112.828125 5.183594 115.117188 7.527344 115.117188 7.753906 C 115.117188 7.886719 115.230469 8.074219 115.378906 8.148438 C 115.625 8.296875 116.992188 10.132812 116.992188 10.320312 C 116.992188 10.378906 117.234375 10.847656 117.515625 11.335938 C 118.171875 12.460938 118.921875 14.726562 118.828125 15.308594 C 118.753906 15.835938 117.460938 16.601562 115.867188 17.089844 C 115.304688 17.238281 114.742188 17.445312 114.628906 17.519531 C 114.5 17.632812 114.535156 18.269531 114.761719 19.640625 C 115.171875 22.078125 115.191406 22.941406 114.855469 23.894531 C 114.59375 24.609375 114.609375 24.738281 115.230469 26.40625 C 115.585938 27.382812 116.054688 28.546875 116.261719 29.015625 C 116.484375 29.464844 116.691406 30.269531 116.75 30.796875 C 116.84375 31.675781 116.824219 31.75 116.355469 31.976562 C 116.074219 32.109375 115.453125 32.203125 114.96875 32.203125 L 114.085938 32.203125 L 114.046875 33.195312 C 113.992188 34.449219 113.375 36.871094 112.792969 38.089844 C 112.265625 39.214844 111.3125 40.261719 110.824219 40.261719 C 110.636719 40.261719 110.375 40.375 110.261719 40.523438 C 109.792969 41.085938 106.324219 41.425781 105.011719 41.03125 C 104.222656 40.789062 103.605469 41.085938 102.445312 42.25 C 101.675781 43.019531 101.394531 43.636719 101.804688 43.636719 C 101.898438 43.636719 101.992188 44.011719 101.992188 44.480469 C 101.992188 44.949219 102.070312 45.324219 102.179688 45.324219 C 102.273438 45.324219 102.367188 45.625 102.367188 45.980469 C 102.367188 46.335938 102.445312 46.636719 102.554688 46.636719 C 102.648438 46.636719 102.742188 46.730469 102.742188 46.84375 C 102.742188 47.21875 105.386719 52.28125 106.605469 54.269531 C 108.179688 56.796875 109.847656 60.0625 110.597656 62.046875 C 110.9375 62.890625 111.535156 64.035156 111.949219 64.578125 C 112.359375 65.121094 112.753906 65.722656 112.8125 65.890625 C 112.886719 66.078125 113.035156 66.324219 113.128906 66.433594 C 113.65625 66.996094 113.992188 67.464844 113.953125 67.597656 C 113.953125 67.671875 113.972656 67.859375 114.046875 68.011719 C 114.105469 68.160156 114.253906 68.761719 114.367188 69.324219 C 114.648438 70.652344 115.15625 72.132812 115.324219 72.132812 C 115.398438 72.132812 116.410156 73.070312 117.59375 74.214844 C 119.449219 76.054688 119.917969 76.410156 121.398438 77.101562 C 122.316406 77.535156 123.890625 78.378906 124.867188 78.976562 C 130.976562 82.707031 131.128906 82.785156 134.429688 84.039062 C 135.722656 84.527344 137.484375 85.296875 138.363281 85.726562 C 139.246094 86.160156 141.777344 87.300781 143.988281 88.238281 C 146.203125 89.175781 149.03125 90.507812 150.269531 91.203125 C 153.15625 92.8125 154.375 93.300781 155.425781 93.320312 C 156.363281 93.320312 156.363281 93.320312 157.339844 91.390625 C 158.761719 88.558594 160.335938 86.925781 163.261719 85.277344 C 164.03125 84.863281 164.800781 84.507812 165.007812 84.507812 C 165.195312 84.507812 165.363281 84.433594 165.363281 84.359375 C 165.363281 84.152344 166.75 83.777344 168.457031 83.550781 C 169.28125 83.441406 170.050781 83.269531 170.144531 83.195312 C 170.367188 83.007812 171.886719 82.859375 174.847656 82.746094 C 177.265625 82.632812 177.230469 82.613281 177.90625 84.414062 C 178.148438 85.035156 178.410156 85.691406 178.503906 85.859375 C 178.597656 86.046875 178.671875 86.328125 178.671875 86.476562 C 178.671875 86.628906 178.75 86.910156 178.84375 87.09375 C 179.367188 88.125 180.8125 93.714844 181.09375 95.8125 C 181.429688 98.289062 181.355469 99.488281 180.8125 100.59375 C 179.703125 102.824219 177.566406 103.6875 172.675781 103.894531 C 168.644531 104.0625 168.363281 104.117188 167.386719 105.019531 C 166.28125 106.03125 166.074219 106.96875 166.691406 108.054688 C 167.386719 109.273438 168.175781 110.941406 168.175781 111.207031 C 168.175781 111.335938 168.378906 111.824219 168.644531 112.273438 C 168.90625 112.722656 169.207031 113.304688 169.335938 113.566406 C 169.46875 113.832031 169.617188 114.074219 169.691406 114.128906 C 169.75 114.1875 169.917969 114.542969 170.03125 114.917969 C 170.160156 115.3125 170.332031 115.628906 170.40625 115.628906 C 170.480469 115.628906 170.648438 115.949219 170.761719 116.363281 C 170.894531 116.753906 171.117188 117.1875 171.269531 117.316406 C 171.417969 117.449219 171.550781 117.65625 171.550781 117.769531 C 171.550781 117.992188 172.1875 119.25 173.667969 122.003906 C 174.078125 122.773438 174.792969 124.125 175.242188 125.003906 C 175.710938 125.886719 176.367188 127.105469 176.722656 127.722656 C 177.078125 128.339844 177.53125 129.183594 177.734375 129.597656 C 177.960938 130.011719 178.1875 130.480469 178.28125 130.628906 C 178.355469 130.777344 178.636719 131.324219 178.878906 131.847656 C 179.125 132.355469 179.421875 132.917969 179.554688 133.066406 C 179.667969 133.214844 180.097656 133.984375 180.492188 134.753906 C 181.449219 136.570312 182.234375 137.976562 182.480469 138.277344 C 182.589844 138.429688 182.984375 139.140625 183.339844 139.871094 C 183.714844 140.601562 184.183594 141.277344 184.390625 141.390625 C 184.597656 141.503906 184.804688 141.652344 184.859375 141.707031 C 184.917969 141.765625 185.199219 141.878906 185.515625 141.933594 C 185.816406 141.988281 186.585938 142.121094 187.203125 142.234375 C 187.824219 142.347656 188.628906 142.550781 188.984375 142.703125 C 189.339844 142.851562 189.773438 143.019531 189.941406 143.058594 C 190.109375 143.113281 190.371094 143.414062 190.503906 143.734375 C 190.726562 144.222656 190.878906 144.316406 191.757812 144.425781 C 192.304688 144.484375 192.867188 144.671875 193.015625 144.800781 C 193.148438 144.933594 193.617188 145.101562 194.027344 145.175781 C 194.964844 145.328125 196.296875 146.507812 196.296875 147.183594 C 196.296875 147.425781 196.351562 147.691406 196.429688 147.765625 C 196.597656 147.914062 197.027344 149.113281 197.234375 149.9375 C 198.039062 153.257812 197.570312 152.9375 201.828125 152.9375 C 203.796875 152.957031 206.269531 153.070312 207.359375 153.21875 C 210.828125 153.6875 213.058594 154.0625 213.167969 154.234375 C 213.226562 154.308594 214.105469 154.664062 215.136719 155.019531 C 216.167969 155.375 217.089844 155.75 217.199219 155.882812 C 217.292969 156.015625 217.707031 156.238281 218.082031 156.40625 C 218.457031 156.558594 218.8125 156.761719 218.886719 156.875 C 218.945312 156.96875 219.167969 157.0625 219.355469 157.0625 C 219.542969 157.0625 219.730469 157.136719 219.769531 157.214844 C 219.789062 157.308594 220.292969 157.683594 220.855469 158.074219 C 222.113281 158.902344 224.90625 161.621094 226.085938 163.15625 C 226.554688 163.777344 227.042969 164.375 227.175781 164.507812 C 227.289062 164.636719 227.570312 165.050781 227.8125 165.445312 C 228.054688 165.835938 228.316406 166.210938 228.410156 166.269531 C 228.523438 166.34375 228.691406 166.699219 228.824219 167.074219 C 229.03125 167.695312 229.03125 167.789062 228.730469 167.9375 C 228.542969 168.050781 228.132812 168.125 227.8125 168.125 C 227.492188 168.125 227.230469 168.199219 227.230469 168.292969 C 227.230469 168.367188 226.707031 168.519531 226.070312 168.574219 C 225.414062 168.648438 224.289062 168.835938 223.574219 168.988281 C 222.84375 169.15625 221.550781 169.34375 220.6875 169.4375 C 219.824219 169.53125 219.058594 169.679688 219 169.773438 C 218.945312 169.851562 218.382812 170.039062 217.761719 170.167969 C 217.144531 170.300781 216.28125 170.523438 215.832031 170.675781 C 215.402344 170.824219 214.707031 170.9375 214.292969 170.9375 C 213.882812 170.9375 213.507812 171.050781 213.414062 171.199219 C 213.339844 171.332031 212.644531 171.59375 211.875 171.78125 C 210.339844 172.15625 210.375 172.304688 212.0625 172.625 C 212.609375 172.738281 213.09375 172.886719 213.152344 172.960938 C 213.28125 173.167969 215.382812 174.125 215.683594 174.125 C 215.8125 174.125 216.074219 174.253906 216.261719 174.40625 C 217.011719 174.96875 218.007812 175.585938 218.402344 175.71875 C 218.625 175.773438 218.792969 175.90625 218.792969 175.980469 C 218.792969 176.054688 219.1875 176.410156 219.675781 176.75 C 222.429688 178.71875 225.710938 182.410156 227.136719 185.109375 C 227.476562 185.785156 227.832031 186.421875 227.925781 186.554688 C 228.207031 186.910156 229.441406 190.398438 229.894531 192.027344 C 230.25 193.378906 230.25 202.378906 229.875 203.558594 C 229.253906 205.566406 228.488281 207.816406 228.261719 208.246094 C 227.417969 209.914062 227.082031 210.550781 226.3125 211.714844 C 225.84375 212.425781 225.355469 213.101562 225.226562 213.175781 C 225.09375 213.25 224.980469 213.4375 224.980469 213.589844 C 224.980469 214.078125 220.257812 218.613281 219.019531 219.308594 C 218.738281 219.457031 218.476562 219.625 218.417969 219.683594 C 218.15625 219.945312 216.769531 220.769531 216.355469 220.902344 C 216.09375 220.976562 215.832031 221.125 215.777344 221.21875 C 215.589844 221.5 213.152344 222.496094 212.664062 222.496094 C 212.421875 222.496094 212.234375 222.570312 212.234375 222.644531 C 212.234375 222.8125 211.125 223.246094 210.675781 223.246094 C 210.488281 223.246094 210.207031 223.320312 210.019531 223.414062 C 209.851562 223.507812 209.195312 223.695312 208.578125 223.84375 C 207.019531 224.183594 197.890625 224.183594 196.578125 223.84375 C 196.054688 223.714844 195.304688 223.507812 194.890625 223.394531 C 194.476562 223.300781 193.992188 223.132812 193.820312 223.039062 C 193.632812 222.945312 193.316406 222.871094 193.109375 222.871094 C 192.902344 222.871094 192.734375 222.777344 192.734375 222.683594 C 192.734375 222.570312 192.601562 222.496094 192.453125 222.496094 C 192.003906 222.496094 189.660156 221.519531 189.433594 221.257812 C 189.324219 221.105469 189.117188 220.996094 188.964844 220.996094 C 188.609375 220.996094 186.921875 219.90625 186.921875 219.683594 C 186.921875 219.570312 186.773438 219.496094 186.585938 219.496094 C 186.042969 219.476562 184.992188 218.613281 182.121094 215.78125 C 181.054688 214.714844 180.171875 213.71875 180.171875 213.589844 C 180.171875 213.4375 180.023438 213.214844 179.835938 213.082031 C 179.328125 212.746094 177.753906 210.121094 176.929688 208.300781 C 176.3125 206.914062 175.785156 205.246094 175.109375 202.527344 C 175 202.003906 174.847656 200.183594 174.792969 198.460938 C 174.679688 195.273438 174.921875 192.964844 175.597656 190.847656 C 176.03125 189.535156 176.011719 189.515625 174.679688 189.574219 C 174.042969 189.609375 172.242188 189.648438 170.707031 189.667969 L 167.894531 189.703125 L 166.972656 191.089844 C 166.113281 192.421875 162.851562 196.058594 162.511719 196.058594 C 162.4375 196.058594 162.195312 196.226562 161.988281 196.433594 C 161.648438 196.773438 161.632812 196.902344 161.820312 197.765625 C 162.042969 198.835938 161.929688 200.203125 161.539062 201.160156 C 161.144531 202.058594 159.34375 203.671875 158.539062 203.820312 C 158.179688 203.894531 157.863281 204.046875 157.808594 204.175781 C 157.695312 204.535156 79.816406 204.609375 79.457031 204.234375 C 79.308594 204.101562 78.914062 203.914062 78.578125 203.839844 C 78.257812 203.765625 77.621094 203.390625 77.207031 202.976562 C 76.777344 202.585938 76.421875 202.265625 76.402344 202.285156 C 76.140625 202.828125 75.933594 203.503906 75.933594 203.933594 C 75.933594 204.234375 75.800781 204.589844 75.652344 204.757812 C 75.503906 204.910156 75.371094 205.246094 75.371094 205.507812 C 75.371094 205.769531 75.277344 205.996094 75.183594 205.996094 C 75.070312 205.996094 74.996094 206.203125 74.996094 206.464844 C 74.996094 206.726562 74.902344 206.933594 74.808594 206.933594 C 74.695312 206.933594 74.621094 207.140625 74.621094 207.402344 C 74.621094 207.664062 74.527344 207.871094 74.433594 207.871094 C 74.320312 207.871094 74.246094 208.039062 74.246094 208.246094 C 74.246094 208.453125 74.152344 208.621094 74.058594 208.621094 C 73.945312 208.621094 73.871094 208.828125 73.871094 209.089844 C 73.871094 209.351562 73.777344 209.558594 73.683594 209.558594 C 73.570312 209.558594 73.496094 209.691406 73.496094 209.839844 C 73.496094 209.988281 73.402344 210.121094 73.308594 210.121094 C 73.195312 210.121094 73.121094 210.328125 73.121094 210.589844 C 73.121094 210.851562 73.027344 211.058594 72.933594 211.058594 C 72.820312 211.058594 72.746094 211.191406 72.746094 211.339844 C 72.746094 211.488281 72.652344 211.621094 72.558594 211.621094 C 72.445312 211.621094 72.371094 211.75 72.371094 211.902344 C 72.371094 212.050781 72.277344 212.183594 72.183594 212.183594 C 72.070312 212.183594 71.996094 212.296875 71.996094 212.425781 C 71.996094 212.558594 71.828125 212.78125 71.621094 212.933594 C 71.414062 213.082031 71.246094 213.308594 71.246094 213.4375 C 71.246094 213.570312 71.152344 213.683594 71.058594 213.683594 C 70.945312 213.683594 70.871094 213.777344 70.871094 213.890625 C 70.871094 214.132812 70.160156 214.808594 69.898438 214.808594 C 69.820312 214.808594 69.746094 214.9375 69.746094 215.109375 C 69.746094 215.371094 69.390625 215.726562 67.742188 217.246094 C 67.515625 217.453125 67.101562 217.714844 66.839844 217.84375 C 66.578125 217.957031 66.371094 218.125 66.371094 218.21875 C 66.371094 218.484375 65.960938 218.839844 65.246094 219.214844 C 64.890625 219.402344 64.496094 219.644531 64.367188 219.757812 C 63.746094 220.300781 63.558594 220.433594 63.371094 220.433594 C 63.261719 220.433594 63.035156 220.5625 62.886719 220.714844 C 62.714844 220.863281 62.433594 220.996094 62.230469 220.996094 C 62.042969 220.996094 61.871094 221.070312 61.871094 221.164062 C 61.871094 221.40625 59.378906 222.496094 58.816406 222.496094 C 58.535156 222.496094 58.308594 222.550781 58.308594 222.625 C 58.308594 222.71875 57.652344 222.964844 56.847656 223.207031 C 56.0625 223.449219 55.140625 223.730469 54.84375 223.84375 C 54.074219 224.125 45.785156 224.257812 44.15625 224.011719 C 42.128906 223.730469 39.226562 222.964844 39 222.683594 C 38.945312 222.605469 38.644531 222.496094 38.324219 222.4375 C 37.519531 222.289062 35.625 221.386719 35.625 221.183594 C 35.625 221.070312 35.476562 220.996094 35.289062 220.996094 C 34.894531 220.996094 33 219.925781 33 219.699219 C 33 219.605469 32.792969 219.476562 32.550781 219.417969 C 32.308594 219.363281 31.761719 218.96875 31.332031 218.558594 C 30.917969 218.144531 30.488281 217.808594 30.414062 217.808594 C 30.320312 217.808594 29.90625 217.453125 29.496094 217.019531 C 29.082031 216.570312 28.539062 216.027344 28.292969 215.800781 C 27.28125 214.902344 25.125 212.257812 25.125 211.9375 C 25.125 211.828125 25.015625 211.601562 24.863281 211.453125 C 24.300781 210.816406 22.78125 207.832031 22.59375 206.988281 C 22.539062 206.652344 22.390625 206.371094 22.296875 206.371094 C 22.203125 206.371094 22.125 206.128906 22.125 205.828125 C 22.125 205.507812 22.050781 205.226562 21.957031 205.171875 C 21.863281 205.113281 21.75 204.796875 21.695312 204.457031 C 21.640625 204.121094 21.46875 203.164062 21.300781 202.359375 C 20.890625 200.164062 20.757812 197.335938 20.984375 195.214844 C 21.207031 193.152344 21.433594 191.824219 21.65625 191.335938 C 21.789062 191.015625 21.265625 190.996094 12.828125 190.960938 L 3.847656 190.902344 L 3.789062 190.398438 C 3.734375 189.871094 3.546875 189.761719 2.441406 189.648438 C 1.917969 189.589844 1.933594 189.871094 2.253906 186.125 C 2.347656 184.828125 2.535156 183.273438 2.628906 182.65625 C 2.722656 182.035156 2.890625 181.023438 2.984375 180.40625 C 3.398438 177.628906 3.789062 175.699219 3.960938 175.550781 C 4.054688 175.4375 4.128906 175.210938 4.128906 175.023438 C 4.128906 174.667969 4.503906 173.355469 5.367188 170.636719 C 5.703125 169.585938 5.816406 168.949219 5.742188 168.539062 C 5.628906 168.105469 5.535156 148.570312 5.609375 146.320312 C 5.628906 146.113281 5.777344 146.003906 6.097656 146.003906 L 6.566406 146.003906 L 6.566406 142.441406 C 6.566406 139.121094 6.546875 138.878906 6.226562 138.878906 C 5.609375 138.878906 5.402344 138.148438 5.476562 136.195312 C 5.535156 134.601562 5.496094 134.378906 5.214844 134.378906 C 5.046875 134.378906 4.785156 134.246094 4.632812 134.097656 C 4.390625 133.851562 3.339844 133.648438 0.792969 133.308594 L 0.00390625 133.214844 L 0.00390625 81.714844 L 0.417969 81.660156 C 0.660156 81.621094 1.183594 81.660156 1.597656 81.734375 C 2.007812 81.808594 12.789062 81.863281 25.539062 81.882812 C 40.78125 81.882812 48.769531 81.941406 48.84375 82.070312 C 48.898438 82.164062 49.480469 82.257812 50.117188 82.257812 C 50.753906 82.277344 51.636719 82.351562 52.066406 82.445312 C 52.515625 82.558594 53.210938 82.707031 53.605469 82.800781 C 54.015625 82.878906 54.46875 83.082031 54.636719 83.234375 C 54.804688 83.421875 55.628906 83.609375 56.8125 83.757812 L 58.683594 83.984375 L 58.683594 134.378906 L 64.984375 134.378906 C 70.589844 134.378906 71.246094 134.339844 70.984375 134.097656 C 70.835938 133.945312 70.328125 133.757812 69.859375 133.703125 C 69.316406 133.628906 68.996094 133.480469 68.996094 133.328125 C 68.996094 133.179688 68.902344 133.066406 68.808594 133.066406 C 68.695312 133.066406 68.621094 131.378906 68.621094 128.378906 C 68.621094 125.378906 68.695312 123.691406 68.808594 123.691406 C 68.902344 123.691406 68.996094 123.5625 68.996094 123.410156 C 68.996094 122.847656 70.382812 122.734375 77.132812 122.792969 C 84.109375 122.847656 83.921875 122.886719 81.78125 122.136719 C 81.464844 122.003906 81.183594 121.796875 81.183594 121.6875 C 81.183594 121.554688 81.109375 121.441406 81.015625 121.441406 C 80.921875 121.441406 80.582031 121.179688 80.246094 120.878906 C 79.910156 120.5625 79.570312 120.316406 79.476562 120.316406 C 79.382812 120.316406 79.308594 120.1875 79.308594 120.035156 C 79.308594 119.886719 79.214844 119.753906 79.121094 119.753906 C 79.007812 119.753906 78.933594 119.625 78.933594 119.472656 C 78.933594 119.324219 78.859375 119.191406 78.785156 119.191406 C 78.597656 119.191406 77.996094 117.019531 77.769531 115.535156 C 77.675781 114.917969 77.527344 113.457031 77.472656 112.273438 L 77.339844 110.117188 L 76.738281 109.96875 C 75.988281 109.78125 75.988281 109.78125 75.839844 105.882812 C 75.765625 104.175781 75.632812 102.75 75.539062 102.730469 C 75.445312 102.695312 75.371094 101.699219 75.371094 100.519531 C 75.371094 99.226562 75.296875 98.382812 75.183594 98.382812 C 75.070312 98.382812 74.996094 97.351562 74.996094 95.664062 C 74.996094 93.976562 74.921875 92.945312 74.808594 92.945312 C 74.695312 92.945312 74.621094 92.382812 74.621094 91.632812 C 74.621094 90.882812 74.546875 90.320312 74.433594 90.320312 C 74.320312 90.320312 74.246094 89.328125 74.246094 87.695312 C 74.246094 86.066406 74.171875 85.070312 74.058594 85.070312 C 73.945312 85.070312 73.871094 84.003906 73.871094 82.257812 C 73.871094 80.515625 73.796875 79.445312 73.683594 79.445312 C 73.570312 79.445312 73.496094 77.609375 73.496094 74.289062 C 73.496094 70.972656 73.570312 69.136719 73.683594 69.136719 C 73.796875 69.136719 73.871094 68.234375 73.871094 66.792969 C 73.871094 65.347656 73.945312 64.449219 74.058594 64.449219 C 74.171875 64.449219 74.246094 63.753906 74.246094 62.761719 C 74.246094 61.765625 74.320312 61.074219 74.433594 61.074219 C 74.546875 61.074219 74.621094 60.511719 74.621094 59.761719 C 74.621094 59.011719 74.695312 58.449219 74.808594 58.449219 C 74.902344 58.449219 74.996094 57.980469 74.996094 57.417969 C 74.996094 56.855469 75.070312 56.386719 75.183594 56.386719 C 75.277344 56.386719 75.371094 56.085938 75.371094 55.730469 C 75.371094 55.375 75.445312 55.074219 75.519531 55.074219 C 75.613281 55.074219 75.785156 54.605469 75.914062 54.042969 C 76.046875 53.480469 76.234375 52.972656 76.328125 52.917969 C 76.421875 52.84375 76.496094 52.675781 76.496094 52.523438 C 76.496094 52.394531 76.964844 51.304688 77.527344 50.160156 C 78.089844 49 78.558594 47.949219 78.558594 47.855469 C 78.558594 47.742188 78.726562 47.539062 78.933594 47.386719 C 79.140625 47.238281 79.308594 46.976562 79.308594 46.789062 C 79.308594 46.601562 79.382812 46.449219 79.496094 46.449219 C 79.589844 46.449219 79.683594 46.28125 79.683594 46.074219 C 79.683594 45.867188 79.757812 45.699219 79.871094 45.699219 C 79.964844 45.699219 80.058594 45.570312 80.058594 45.417969 C 80.058594 45.269531 80.132812 45.136719 80.246094 45.136719 C 80.339844 45.136719 80.433594 45.007812 80.433594 44.855469 C 80.433594 44.707031 80.507812 44.574219 80.621094 44.574219 C 80.714844 44.574219 80.808594 44.5 80.808594 44.386719 C 80.808594 44.179688 81.21875 43.65625 82.0625 42.773438 C 82.402344 42.4375 82.683594 42.082031 82.703125 42.007812 C 82.703125 41.929688 83.132812 41.480469 83.640625 41.011719 C 84.144531 40.542969 85.289062 39.476562 86.171875 38.613281 C 87.6875 37.132812 87.78125 37.058594 88.402344 37.1875 L 89.058594 37.300781 L 89.058594 36.34375 C 89.058594 35.820312 89.132812 35.386719 89.246094 35.386719 C 89.339844 35.386719 89.433594 35.011719 89.433594 34.582031 C 89.433594 33.886719 89.355469 33.71875 88.964844 33.550781 C 88.699219 33.417969 88.363281 33.324219 88.214844 33.324219 C 88.0625 33.324219 87.933594 33.25 87.933594 33.175781 C 87.933594 33.082031 87.726562 32.914062 87.464844 32.800781 C 86.9375 32.558594 86.769531 32.425781 85.683594 31.414062 C 85.269531 31.039062 84.933594 30.644531 84.933594 30.53125 C 84.933594 30.421875 84.839844 30.328125 84.746094 30.328125 C 84.632812 30.328125 84.558594 30.195312 84.558594 30.046875 C 84.558594 29.894531 84.464844 29.765625 84.371094 29.765625 C 84.257812 29.765625 84.183594 29.613281 84.183594 29.425781 C 84.183594 29.238281 84.015625 28.976562 83.808594 28.828125 C 83.601562 28.675781 83.433594 28.414062 83.433594 28.226562 C 83.433594 28.039062 83.339844 27.890625 83.246094 27.890625 C 83.132812 27.890625 83.058594 27.71875 83.058594 27.515625 C 83.058594 27.308594 82.964844 27.140625 82.871094 27.140625 C 82.757812 27.140625 82.683594 26.96875 82.683594 26.765625 C 82.683594 26.558594 82.589844 26.390625 82.496094 26.390625 C 82.382812 26.390625 82.308594 26.183594 82.308594 25.921875 C 82.308594 25.65625 82.214844 25.453125 82.121094 25.453125 C 82.007812 25.453125 81.933594 25.246094 81.933594 24.984375 C 81.933594 24.71875 81.839844 24.515625 81.746094 24.515625 C 81.632812 24.515625 81.558594 24.253906 81.558594 23.953125 C 81.558594 23.632812 81.464844 23.390625 81.371094 23.390625 C 81.257812 23.390625 81.183594 23.050781 81.183594 22.640625 C 81.183594 22.226562 81.089844 21.890625 80.996094 21.890625 C 80.882812 21.890625 80.808594 21.515625 80.808594 21.046875 C 80.808594 20.578125 80.714844 20.203125 80.621094 20.203125 C 80.507812 20.203125 80.433594 19.640625 80.433594 18.890625 C 80.433594 18.140625 80.359375 17.578125 80.246094 17.578125 C 80.132812 17.578125 80.058594 16.789062 80.058594 15.609375 C 80.058594 14.429688 80.132812 13.640625 80.246094 13.640625 C 80.359375 13.640625 80.433594 13.132812 80.433594 12.515625 C 80.433594 11.898438 80.507812 11.390625 80.621094 11.390625 C 80.714844 11.390625 80.808594 11.089844 80.808594 10.734375 C 80.808594 10.378906 80.882812 10.078125 80.996094 10.078125 C 81.089844 10.078125 81.183594 9.816406 81.183594 9.515625 C 81.183594 9.195312 81.257812 8.953125 81.371094 8.953125 C 81.464844 8.953125 81.558594 8.785156 81.558594 8.578125 C 81.558594 8.371094 81.632812 8.203125 81.746094 8.203125 C 81.839844 8.203125 81.933594 8.074219 81.933594 7.921875 C 81.933594 7.773438 82.007812 7.640625 82.121094 7.640625 C 82.214844 7.640625 82.308594 7.472656 82.308594 7.265625 C 82.308594 7.058594 82.382812 6.890625 82.496094 6.890625 C 82.589844 6.890625 82.683594 6.761719 82.683594 6.609375 C 82.683594 6.460938 82.757812 6.328125 82.871094 6.328125 C 82.964844 6.328125 83.058594 6.199219 83.058594 6.046875 C 83.058594 5.898438 83.132812 5.765625 83.226562 5.765625 C 83.320312 5.765625 83.828125 5.371094 84.332031 4.867188 C 84.839844 4.378906 85.457031 3.855469 85.683594 3.703125 C 85.90625 3.554688 86.207031 3.308594 86.359375 3.179688 C 86.488281 3.066406 86.734375 2.953125 86.882812 2.953125 C 87.050781 2.953125 87.183594 2.878906 87.183594 2.804688 C 87.183594 2.410156 91.175781 0.929688 93.332031 0.5 C 94.476562 0.273438 101.074219 0.046875 101.261719 0.21875 Z M 107.242188 81.019531 C 107.242188 81.507812 107.335938 81.882812 107.46875 81.921875 C 107.597656 81.976562 107.75 82.503906 107.824219 83.121094 C 107.898438 83.722656 108.050781 84.808594 108.160156 85.539062 C 108.273438 86.253906 108.425781 87.265625 108.460938 87.789062 C 108.519531 88.296875 108.648438 89.140625 108.742188 89.664062 C 108.835938 90.171875 109.003906 91.519531 109.117188 92.664062 C 109.230469 93.789062 109.398438 95.269531 109.511719 95.945312 C 109.605469 96.621094 109.753906 98.214844 109.832031 99.507812 C 109.980469 102.1875 109.773438 101.925781 112.359375 102.824219 C 113.765625 103.292969 114.421875 103.554688 114.96875 103.835938 C 115.15625 103.929688 115.472656 104.007812 115.679688 104.007812 C 115.886719 104.007812 116.203125 104.082031 116.390625 104.175781 C 116.5625 104.269531 117.96875 104.738281 119.523438 105.226562 C 121.058594 105.710938 122.503906 106.179688 122.710938 106.257812 C 123.367188 106.5 131.351562 108.957031 132.460938 109.257812 C 133.882812 109.648438 135.121094 110.023438 135.402344 110.195312 C 135.589844 110.304688 135.871094 110.378906 136.019531 110.378906 C 136.171875 110.378906 136.453125 110.457031 136.640625 110.550781 C 136.808594 110.644531 137.296875 110.8125 137.707031 110.925781 C 138.121094 111.019531 139.152344 111.335938 139.996094 111.597656 C 140.839844 111.863281 141.664062 112.066406 141.816406 112.066406 C 141.964844 112.066406 142.207031 112.179688 142.339844 112.3125 C 142.46875 112.460938 143.144531 112.628906 143.800781 112.707031 C 144.476562 112.78125 145.09375 112.910156 145.207031 113.003906 C 145.300781 113.082031 145.675781 113.191406 145.996094 113.269531 C 147.570312 113.566406 147.777344 113.625 147.871094 113.867188 C 147.925781 114.019531 148.132812 114.128906 148.320312 114.128906 C 149.238281 114.128906 152.050781 116.269531 152.050781 116.941406 C 152.050781 117.128906 152.164062 117.316406 152.3125 117.375 C 152.464844 117.429688 152.78125 117.917969 153.042969 118.480469 C 154.769531 122.042969 154.9375 127.574219 153.53125 135.128906 C 153.0625 137.660156 152.855469 139.121094 152.445312 142.910156 C 152.332031 143.828125 152.125 145.570312 151.957031 146.753906 C 151.789062 147.933594 151.582031 149.453125 151.488281 150.125 C 151.394531 150.800781 151.226562 152.019531 151.113281 152.84375 C 150.871094 154.515625 150.605469 156.351562 150.34375 158.1875 C 150.25 158.863281 150.121094 159.820312 150.0625 160.34375 C 150.007812 160.851562 149.894531 161.449219 149.800781 161.65625 C 149.707031 161.863281 149.59375 162.5 149.539062 163.0625 C 149.445312 164.09375 149.277344 165.351562 148.882812 167.84375 C 148.769531 168.554688 148.546875 170.039062 148.394531 171.125 C 148.246094 172.210938 148.019531 173.597656 147.925781 174.21875 C 147.832031 174.835938 147.664062 175.90625 147.550781 176.597656 C 147.457031 177.292969 147.328125 178.0625 147.269531 178.304688 C 147.15625 178.71875 147.214844 178.792969 147.71875 178.90625 C 148.039062 178.980469 148.300781 179.113281 148.300781 179.1875 C 148.300781 179.410156 150.589844 180.085938 152.03125 180.273438 C 152.6875 180.367188 153.269531 180.515625 153.324219 180.609375 C 153.402344 180.703125 153.886719 180.890625 154.433594 181.042969 C 155.21875 181.230469 155.464844 181.230469 155.78125 181.023438 C 156.007812 180.890625 156.175781 180.722656 156.175781 180.648438 C 156.175781 180.574219 156.496094 180.347656 156.871094 180.144531 C 157.261719 179.957031 157.769531 179.582031 157.996094 179.335938 C 158.21875 179.113281 158.707031 178.644531 159.0625 178.34375 C 159.4375 178.023438 159.738281 177.722656 159.738281 177.628906 C 159.738281 177.554688 160.074219 177.199219 160.488281 176.824219 C 160.898438 176.449219 161.238281 176.019531 161.238281 175.886719 C 161.238281 175.738281 161.3125 175.625 161.386719 175.625 C 161.554688 175.625 163.300781 173.28125 163.300781 173.054688 C 163.300781 173 163.507812 172.664062 163.769531 172.324219 C 164.03125 171.988281 164.332031 171.519531 164.445312 171.273438 C 164.539062 171.03125 164.835938 170.507812 165.082031 170.09375 C 165.644531 169.15625 166.824219 166.71875 167.78125 164.542969 C 168.773438 162.257812 170.238281 157.195312 170.628906 154.71875 C 171.550781 148.757812 171.472656 145.925781 170.273438 140.660156 C 170.105469 139.929688 170.011719 139.664062 169.28125 137.996094 C 169.074219 137.546875 168.925781 137.078125 168.925781 136.929688 C 168.925781 136.777344 168.867188 136.628906 168.773438 136.589844 C 168.699219 136.554688 168.0625 135.390625 167.367188 134.003906 C 166.675781 132.617188 166.035156 131.339844 165.941406 131.191406 C 165.867188 131.042969 165.679688 130.703125 165.550781 130.441406 C 164.40625 128.304688 163.957031 127.480469 163.695312 127.066406 C 163.523438 126.804688 163.261719 126.335938 163.113281 126.035156 C 162.960938 125.71875 162.757812 125.378906 162.679688 125.285156 C 162.289062 124.796875 160.46875 121.835938 160.226562 121.3125 C 160.074219 120.972656 159.175781 119.511719 158.257812 118.066406 C 157.320312 116.625 156.550781 115.367188 156.550781 115.253906 C 156.550781 115.066406 156.175781 114.316406 155.988281 114.128906 C 155.574219 113.738281 154.300781 110.457031 154.300781 109.800781 C 154.300781 109.519531 154.058594 108.75 153.757812 108.09375 C 153.457031 107.4375 153.136719 106.648438 153.0625 106.351562 C 152.988281 106.03125 152.875 105.695312 152.78125 105.601562 C 152.707031 105.488281 152.539062 105.019531 152.425781 104.53125 C 152.292969 104.042969 152.089844 103.539062 151.9375 103.425781 C 151.789062 103.3125 151.675781 103.011719 151.675781 102.75 C 151.675781 102.507812 151.488281 102.058594 151.261719 101.757812 C 150.90625 101.269531 150.886719 101.0625 150.980469 99.730469 C 151.09375 98.230469 150.980469 97.820312 150.402344 97.820312 C 150.25 97.820312 149.875 97.707031 149.558594 97.558594 C 149.015625 97.3125 145.9375 96.527344 144.363281 96.207031 C 144.007812 96.152344 143.613281 96.019531 143.519531 95.945312 C 143.3125 95.777344 142.132812 95.496094 140.144531 95.101562 C 139.414062 94.96875 138.328125 94.707031 137.707031 94.539062 C 134.671875 93.695312 134.054688 93.582031 133.867188 93.769531 C 133.734375 93.902344 133.414062 93.882812 132.835938 93.734375 C 132.367188 93.601562 131.820312 93.507812 131.617188 93.507812 C 131.410156 93.507812 131.089844 93.433594 130.902344 93.339844 C 130.734375 93.246094 130.039062 93.078125 129.367188 92.964844 C 127.847656 92.683594 123.722656 91.5 122.710938 91.050781 C 122.296875 90.882812 121.753906 90.65625 121.492188 90.601562 C 120.742188 90.375 116.765625 88.40625 116.128906 87.9375 C 115.8125 87.695312 115.492188 87.507812 115.398438 87.507812 C 115.003906 87.507812 113.128906 85.800781 108.894531 81.566406 C 108.144531 80.816406 107.46875 80.195312 107.375 80.195312 C 107.300781 80.195312 107.242188 80.570312 107.242188 81.019531 Z M 120.554688 129.484375 C 120.554688 129.691406 120.460938 129.917969 120.367188 129.972656 C 120.253906 130.027344 120.179688 130.328125 120.179688 130.609375 C 120.179688 130.890625 120.105469 131.191406 120.011719 131.285156 C 119.917969 131.398438 119.746094 131.808594 119.617188 132.222656 C 119.484375 132.636719 119.277344 133.214844 119.148438 133.535156 C 119.015625 133.835938 118.773438 134.585938 118.585938 135.183594 C 118.417969 135.785156 118.15625 136.382812 118.003906 136.535156 C 117.855469 136.664062 117.742188 136.871094 117.742188 136.964844 C 117.742188 137.304688 116.46875 138.277344 115.828125 138.410156 C 115.492188 138.484375 115.15625 138.632812 115.097656 138.746094 C 115.023438 138.839844 114.328125 138.972656 113.542969 139.027344 L 112.117188 139.121094 L 112.117188 140.226562 C 112.117188 141.089844 112.25 141.578125 112.699219 142.496094 C 113.035156 143.132812 114.011719 145.253906 114.875 147.222656 C 115.734375 149.171875 116.878906 151.589844 117.40625 152.5625 C 118.4375 154.496094 123.011719 162.5 123.890625 163.925781 L 124.433594 164.789062 L 124.585938 164.058594 C 124.660156 163.664062 124.792969 162.914062 124.867188 162.40625 C 124.960938 161.882812 125.109375 160.964844 125.203125 160.34375 C 125.316406 159.726562 125.503906 158.621094 125.617188 157.90625 C 125.746094 157.175781 125.917969 156.164062 126.027344 155.65625 C 126.121094 155.132812 126.253906 154.214844 126.308594 153.59375 C 126.347656 152.976562 126.480469 152.394531 126.574219 152.28125 C 126.667969 152.1875 126.742188 151.8125 126.742188 151.4375 C 126.742188 151.082031 126.929688 149.734375 127.132812 148.441406 C 127.359375 147.144531 127.566406 145.722656 127.621094 145.253906 C 127.660156 144.785156 127.773438 144.238281 127.867188 144.035156 C 127.960938 143.828125 128.070312 143.359375 128.128906 143.003906 C 128.335938 141.539062 128.617188 140.210938 129.007812 138.785156 C 129.214844 137.960938 129.441406 137.003906 129.496094 136.664062 C 129.554688 136.328125 129.664062 136.007812 129.757812 135.953125 C 129.851562 135.898438 129.929688 135.691406 129.929688 135.484375 C 129.929688 135.089844 130.320312 133.703125 130.789062 132.449219 C 130.941406 132.074219 131.054688 131.679688 131.054688 131.585938 C 131.054688 131.492188 130.585938 131.378906 130.003906 131.339844 C 129.421875 131.285156 128.898438 131.171875 128.839844 131.058594 C 128.765625 130.949219 128.410156 130.816406 128.054688 130.761719 C 126.460938 130.496094 126.066406 130.402344 125.710938 130.253906 C 125.242188 130.046875 124.339844 129.898438 122.839844 129.746094 C 122.203125 129.691406 121.679688 129.578125 121.679688 129.503906 C 121.679688 129.371094 121.492188 129.296875 120.683594 129.148438 C 120.609375 129.148438 120.554688 129.296875 120.554688 129.484375 Z M 120.554688 129.484375 " fill-opacity="1" fill-rule="nonzero"/></g><path fill="#cacaca" d="M 156.8125 91.351562 C 156.738281 91.5 156.664062 91.632812 156.625 91.632812 C 156.589844 91.632812 156.550781 91.5 156.550781 91.351562 C 156.550781 91.203125 156.625 91.070312 156.738281 91.070312 C 156.832031 91.070312 156.871094 91.203125 156.8125 91.351562 Z M 156.8125 91.351562 " fill-opacity="1" fill-rule="nonzero"/></svg>