<svg width="37" height="38" viewBox="0 0 37 38" fill="none" xmlns="http://www.w3.org/2000/svg">
<path opacity="0.25" fill-rule="evenodd" clip-rule="evenodd" d="M18.5 36.73C28.165 36.73 36 28.895 36 19.23C36 9.565 28.165 1.72998 18.5 1.72998C8.83502 1.72998 1 9.565 1 19.23C1 28.895 8.83502 36.73 18.5 36.73Z" stroke="white" stroke-width="1.5"/>
<path d="M20.0933 14.7506H21.7017C21.8497 14.7506 21.9698 14.6375 21.9698 14.498V12.9825C21.9698 12.843 21.8497 12.7299 21.7017 12.7299H20.0933C18.4678 12.7299 17.1446 13.9762 17.1446 15.5084V17.2766H15.2682C15.1202 17.2766 15.0001 17.3898 15.0001 17.5292V19.0448C15.0001 19.1842 15.1202 19.2974 15.2682 19.2974H17.1446V24.602C17.1446 24.7414 17.2647 24.8546 17.4127 24.8546H19.0211C19.169 24.8546 19.2891 24.7414 19.2891 24.602V19.2974H21.1656C21.2808 19.2974 21.3832 19.2277 21.4202 19.1246L21.9564 17.609C21.9837 17.5323 21.9698 17.4474 21.9194 17.3812C21.8684 17.3155 21.788 17.2766 21.7017 17.2766H19.2891V15.5084C19.2891 15.0906 19.6499 14.7506 20.0933 14.7506Z" fill="white"/>
</svg>
