<svg width="18" height="19" viewBox="0 0 18 19" fill="none" xmlns="http://www.w3.org/2000/svg">
<path d="M8.74204 17.5816C13.1678 17.5816 16.7555 13.9939 16.7555 9.56816C16.7555 5.14244 13.1678 1.55469 8.74204 1.55469C4.31633 1.55469 0.728577 5.14244 0.728577 9.56816C0.728577 13.9939 4.31633 17.5816 8.74204 17.5816Z" stroke="#2B2B2B" stroke-width="1.37374" stroke-linecap="round" stroke-linejoin="round"/>
<path d="M6.4101 7.16411C6.5985 6.62855 6.97036 6.17694 7.45982 5.88927C7.94929 5.60161 8.52477 5.49646 9.08433 5.59244C9.6439 5.68842 10.1514 5.97934 10.5171 6.41367C10.8827 6.848 11.0828 7.39772 11.0819 7.96546C11.0819 9.56815 8.67791 10.3695 8.67791 10.3695" stroke="#2B2B2B" stroke-width="1.37374" stroke-linecap="round" stroke-linejoin="round"/>
<path d="M8.742 13.5749H8.75002" stroke="#2B2B2B" stroke-width="1.37374" stroke-linecap="round" stroke-linejoin="round"/>
</svg>
