<svg width="17" height="23" viewBox="0 0 17 23" fill="none" xmlns="http://www.w3.org/2000/svg">
<path d="M14.4822 0.900299C14.9238 0.900299 15.2555 0.913893 15.4771 0.941081C15.7022 0.968269 15.9543 1.06173 16.2352 1.21976C16.5144 1.37439 16.7107 1.63777 16.824 2.00821C16.9408 2.37525 17 2.86973 17 3.48995C17 4.11188 16.9408 4.60806 16.824 4.97849C16.7107 5.34553 16.5076 5.60212 16.2149 5.74655C15.9255 5.89269 15.67 5.98105 15.45 6.01164C15.2284 6.03883 14.8849 6.05242 14.4212 6.05242H5.54783V8.98872H11.2604C11.724 8.98872 12.0675 9.00571 12.2892 9.0363C12.5092 9.06349 12.7664 9.15525 13.0608 9.30818C13.5617 9.60385 13.8121 10.3719 13.8121 11.6124C13.8121 12.9718 13.4432 13.7772 12.7088 14.0253C12.4009 14.1255 11.9102 14.1748 11.2333 14.1748H5.54783V19.6736C5.54783 20.1409 5.53429 20.4807 5.50722 20.6931C5.48015 20.9072 5.38708 21.1587 5.22971 21.4476C4.95898 21.9744 4.2043 22.2361 2.96906 22.2361C1.61537 22.2361 0.823464 21.8673 0.593338 21.1281C0.47489 20.8206 0.417358 20.3261 0.417358 19.6464V3.45597C0.417358 2.46871 0.600106 1.7958 0.965601 1.43726C1.33448 1.08042 2.03163 0.900299 3.05705 0.900299H14.4822Z" fill="#68B19F"/>
</svg>
