<svg width="17" height="17" viewBox="0 0 17 17" fill="none" xmlns="http://www.w3.org/2000/svg">
<path d="M16.4488 9.41455C16.7942 8.89636 16.7942 8.22271 16.4488 7.72179L15.8442 6.82359C15.7924 6.71995 15.7751 6.61631 15.7751 6.4954L15.8442 5.4072C15.8788 4.78537 15.5506 4.21536 14.9978 3.93899L14.0305 3.45534C13.9269 3.40352 13.8578 3.33443 13.806 3.23079L13.3223 2.2635C13.046 1.71076 12.4587 1.38257 11.8541 1.41712L10.7659 1.48621C10.6623 1.48621 10.5414 1.46894 10.455 1.39985L9.55682 0.812563C9.03863 0.467101 8.38225 0.467101 7.86406 0.812563L6.96586 1.41712C6.84495 1.46894 6.74131 1.48621 6.6204 1.48621L5.5322 1.41712C4.91037 1.38257 4.34036 1.71076 4.06399 2.2635L3.58034 3.23079C3.52852 3.33443 3.45943 3.40352 3.35579 3.45534L2.3885 3.93899C1.83576 4.21536 1.50757 4.80264 1.54212 5.4072L1.61121 6.4954C1.61121 6.59904 1.59394 6.71995 1.52485 6.80631L0.937563 7.70451C0.592101 8.22271 0.592101 8.89635 0.937563 9.39727L1.54212 10.2955C1.59394 10.4164 1.61121 10.52 1.61121 10.6409L1.54212 11.7291C1.50757 12.351 1.83576 12.921 2.3885 13.1973L3.35579 13.681C3.45943 13.7328 3.52852 13.8192 3.58034 13.9055L4.06399 14.8728C4.34036 15.4256 4.92764 15.7538 5.5322 15.7192L6.6204 15.6501C6.72404 15.6501 6.84495 15.6674 6.93131 15.7365L7.82951 16.3238C8.08861 16.4965 8.38225 16.5829 8.67589 16.5829C8.96954 16.5829 9.26318 16.4965 9.52227 16.3238L10.4205 15.7192C10.5068 15.6674 10.6277 15.6328 10.7314 15.6328L11.8196 15.7019C12.4414 15.7365 13.0114 15.4083 13.2878 14.8556L13.7714 13.8883C13.8233 13.7846 13.8924 13.7155 13.996 13.6637L14.9633 13.1801C15.516 12.9037 15.8442 12.3164 15.8097 11.7119L15.7751 10.6409C15.7751 10.5373 15.7924 10.4164 15.8615 10.33L16.4488 9.41455ZM15.5851 8.84454L14.9978 9.74273C14.8078 10.0191 14.7215 10.3473 14.7387 10.6755L14.8078 11.7637C14.8251 11.971 14.7042 12.161 14.5315 12.2473L13.5642 12.731C13.2705 12.8864 13.0287 13.1283 12.8732 13.4219L12.3896 14.3892C12.3032 14.5792 12.1132 14.6828 11.906 14.6656L10.8178 14.6137C10.4896 14.5965 10.1614 14.6828 9.88501 14.8728L8.98681 15.4601C8.81408 15.5638 8.58953 15.5638 8.43407 15.4601L7.53587 14.8728C7.27678 14.7001 6.98313 14.6137 6.68949 14.6137C6.65495 14.6137 6.63767 14.6137 6.60313 14.6137L5.51492 14.6828C5.30765 14.7001 5.11764 14.5792 5.03128 14.4065L4.54763 13.4392C4.39217 13.1455 4.15035 12.9037 3.85671 12.7482L2.88942 12.2646C2.69941 12.1782 2.59578 11.9882 2.61305 11.781L2.68214 10.6928C2.69941 10.3646 2.61305 10.0364 2.42305 9.76001L1.83576 8.86181C1.73212 8.68908 1.73212 8.46453 1.83576 8.30907L2.42305 7.41087C2.61305 7.1345 2.69941 6.80631 2.68214 6.47813L2.61305 5.38992C2.59578 5.18265 2.71669 4.99264 2.88942 4.90628L3.85671 4.42263C4.15035 4.26717 4.39217 4.02535 4.54763 3.73171L5.03128 2.76442C5.11764 2.57441 5.30765 2.47078 5.51492 2.48805L6.60313 2.55714C6.93131 2.57441 7.2595 2.48805 7.53587 2.29805L8.43407 1.71076C8.6068 1.60712 8.83135 1.60712 8.98681 1.71076L9.88501 2.29805C10.1614 2.48805 10.4896 2.57441 10.8178 2.55714L11.906 2.48805C12.1132 2.47078 12.3032 2.59169 12.3896 2.76442L12.8732 3.73171C13.0287 4.02535 13.2705 4.26717 13.5642 4.42263L14.5315 4.90628C14.7215 4.99264 14.8251 5.18265 14.8078 5.38992L14.7387 6.44358C14.7215 6.77177 14.8078 7.09996 14.9978 7.37633L15.5851 8.27452C15.706 8.46453 15.706 8.6718 15.5851 8.84454Z" fill="#2B2B2B"/>
<path d="M6.94856 8.25722C7.86403 8.25722 8.62404 7.49721 8.62404 6.58174C8.62404 5.66626 7.86403 4.90625 6.94856 4.90625C6.03309 4.90625 5.27307 5.66626 5.27307 6.58174C5.27307 7.53176 6.01581 8.25722 6.94856 8.25722ZM6.94856 5.82172C7.38038 5.82172 7.72585 6.16718 7.72585 6.59901C7.72585 7.03084 7.38038 7.35902 6.94856 7.35902C6.51673 7.35902 6.17127 7.01356 6.17127 6.58174C6.17127 6.14991 6.51673 5.82172 6.94856 5.82172Z" fill="#2B2B2B"/>
<path d="M10.4377 8.87906C9.52222 8.87906 8.76221 9.63907 8.76221 10.5545C8.76221 11.47 9.52222 12.23 10.4377 12.23C11.3532 12.23 12.1132 11.47 12.1132 10.5545C12.1132 9.60453 11.3704 8.87906 10.4377 8.87906ZM10.4377 11.3146C10.0059 11.3146 9.66041 10.9691 9.66041 10.5373C9.66041 10.1054 10.0059 9.75999 10.4377 9.75999C10.8695 9.75999 11.215 10.1054 11.215 10.5373C11.215 10.9691 10.8695 11.3146 10.4377 11.3146Z" fill="#2B2B2B"/>
<path d="M11.9058 5.35536C11.7158 5.16536 11.4395 5.16536 11.2667 5.35536L5.48027 11.1246C5.29027 11.3146 5.29027 11.5909 5.48027 11.7637C5.56664 11.85 5.68755 11.9019 5.79119 11.9019C5.89482 11.9019 6.01574 11.85 6.1021 11.7637L11.8713 5.99447C12.0613 5.82174 12.0613 5.54537 11.9058 5.35536Z" fill="#2B2B2B"/>
</svg>
