<svg width="16" height="23" viewBox="0 0 16 23" fill="none" xmlns="http://www.w3.org/2000/svg">
<path d="M5.13047 17.9268H13.0157C13.6553 17.9268 14.1206 17.9998 14.41 18.1443C14.6977 18.2904 14.8906 18.5181 14.9853 18.8308C15.0835 19.14 15.1342 19.5512 15.1342 20.0678C15.1342 20.581 15.0835 20.9922 14.9853 21.3049C14.8906 21.6141 14.7281 21.8265 14.498 21.9438C14.1274 22.1392 13.6249 22.2361 12.9886 22.2361H2.5517C1.19801 22.2361 0.406106 21.8673 0.175979 21.1281C0.0575319 20.8206 0 20.3261 0 19.6464V3.45597C0 3.01246 0.0135369 2.67941 0.0406106 2.45681C0.0710688 2.23081 0.164134 1.97252 0.318116 1.68195C0.588854 1.16198 1.34353 0.900299 2.58554 0.900299C3.93415 0.900299 4.73452 1.25884 4.98834 1.97422C5.08309 2.30558 5.13047 2.81025 5.13047 3.48995V17.9268Z" fill="#68B19F"/>
</svg>
