<svg width="72" height="73" viewBox="0 0 72 73" fill="none" xmlns="http://www.w3.org/2000/svg">
<g filter="url(#filter0_d_39_167)">
<circle cx="36" cy="27.2273" r="26.5" fill="white"/>
</g>
<path d="M52.871 34.3672C52.6572 33.9856 52.3792 33.6533 52.0371 33.3708C51.6949 33.0884 51.3121 32.8741 50.888 32.7283C50.5629 32.8219 50.2337 32.8967 49.8997 32.9535C49.16 33.0907 48.4615 33.2206 47.7983 33.8523C47.1334 34.4852 46.9043 35.0699 46.6616 35.6892C46.5121 36.0702 46.3577 36.4644 46.098 36.858C46.1351 37.0536 46.194 37.2424 46.2753 37.4251C46.3401 37.5759 46.4161 37.7216 46.5015 37.8617C46.5874 38.0024 46.6834 38.1368 46.7883 38.2644C46.8937 38.392 47.0074 38.5122 47.1305 38.6245C47.253 38.7368 47.3831 38.8405 47.5203 38.9352C47.6582 39.0305 47.8019 39.1156 47.9515 39.1916C48.1011 39.2676 48.256 39.3328 48.415 39.3878C48.5746 39.4428 48.7365 39.487 48.9026 39.5199C49.0681 39.5534 49.2354 39.5755 49.4038 39.5863C49.5729 39.5971 49.7419 39.5965 49.9103 39.5846C50.0794 39.5727 50.246 39.55 50.4115 39.516C50.577 39.4814 50.739 39.4366 50.898 39.3804C51.057 39.3248 51.2113 39.2585 51.3604 39.1819C51.5099 39.1054 51.6531 39.0192 51.7903 38.9233C51.9269 38.8275 52.0565 38.7232 52.1784 38.6097C52.3003 38.4969 52.4134 38.3761 52.5177 38.2479C52.6225 38.1198 52.7173 37.9848 52.8021 37.8441C52.8439 37.775 52.884 37.7052 52.9217 37.6337C53.1331 37.2294 53.258 36.8024 53.298 36.3515C53.3063 36.2523 53.3133 36.1525 53.3133 36.0504C53.3145 35.4532 53.1673 34.8924 52.871 34.3672ZM51.5965 36.5466C51.5741 36.6237 51.5465 36.6997 51.5141 36.774C51.4811 36.8483 51.444 36.9203 51.4022 36.9895C51.3604 37.0593 51.3144 37.1262 51.2638 37.1903C51.2131 37.2544 51.1583 37.3156 51.1 37.3729C51.0417 37.4302 50.9793 37.484 50.9139 37.5339C50.8485 37.5838 50.7802 37.6298 50.7084 37.6717C50.6371 37.7131 50.5629 37.7506 50.4869 37.7829C50.4104 37.8158 50.3326 37.8436 50.2525 37.8668C50.1724 37.8901 50.0911 37.9088 50.0087 37.9224C49.9268 37.9354 49.8438 37.944 49.7602 37.9474C49.6765 37.9508 49.5935 37.9491 49.5104 37.9423C49.4268 37.9354 49.3444 37.9241 49.2625 37.9071C49.1812 37.8906 49.1005 37.8691 49.0216 37.8424C48.9427 37.8164 48.8661 37.7852 48.7913 37.7494C48.7165 37.7137 48.6441 37.6734 48.5746 37.6292C48.5045 37.5844 48.4385 37.5362 48.3749 37.4835C48.3119 37.4313 48.2518 37.3751 48.1959 37.315C48.1399 37.2555 48.0881 37.1925 48.0404 37.1268C47.9927 37.0604 47.9491 36.9918 47.9102 36.9203C47.8714 36.8494 47.8372 36.7757 47.8083 36.7003C47.7789 36.6249 47.7548 36.5483 47.7353 36.4701C47.7159 36.3912 47.7017 36.3124 47.6929 36.2324C47.6841 36.1519 47.68 36.0719 47.6817 35.9914C47.6829 35.9109 47.69 35.8309 47.7017 35.751C47.7135 35.671 47.7306 35.5927 47.753 35.5151C47.7754 35.4374 47.8025 35.3614 47.8343 35.2871C47.8667 35.2128 47.9032 35.1408 47.945 35.0704C47.9862 35.0007 48.0322 34.9338 48.0822 34.8691C48.1329 34.805 48.187 34.7438 48.2454 34.686C48.3031 34.6281 48.3649 34.5742 48.4303 34.5238C48.4957 34.4739 48.564 34.4274 48.6352 34.3854C48.7059 34.3434 48.7801 34.306 48.8561 34.2731C48.9321 34.2396 49.0104 34.2113 49.0899 34.1875C49.17 34.1642 49.2507 34.1455 49.3332 34.1313C49.4156 34.1177 49.4987 34.1086 49.5817 34.1047C49.6653 34.1013 49.7484 34.1024 49.832 34.1086C49.9151 34.1149 49.9975 34.1262 50.0794 34.1427C50.1612 34.1585 50.2419 34.1801 50.3208 34.2062C50.3998 34.2323 50.4769 34.2629 50.5517 34.2981C50.6271 34.3332 50.6995 34.3729 50.7696 34.4171C50.8391 34.4614 50.9057 34.5096 50.9693 34.5618C51.0329 34.6139 51.093 34.6701 51.1495 34.7296C51.2055 34.7886 51.2579 34.8515 51.3062 34.9173C51.3545 34.9831 51.398 35.0517 51.4369 35.1226C51.4764 35.1935 51.5111 35.2667 51.5406 35.3421C51.57 35.4175 51.5948 35.4941 51.6148 35.5723C51.6342 35.6506 51.6489 35.73 51.6584 35.8099C51.6678 35.8899 51.6719 35.9699 51.6707 36.0504C51.6684 36.2188 51.6436 36.3844 51.5965 36.5466ZM48.0327 33.3147C48.2371 33.1775 48.4556 33.0652 48.6883 32.9784C48.7619 32.9506 48.8355 32.9257 48.9097 32.903C49.2054 32.8168 49.5051 32.7487 49.809 32.6977C49.885 32.6835 49.961 32.6693 50.0376 32.6546C50.1442 32.6342 50.2519 32.6121 50.3603 32.5882C50.4057 32.578 50.4516 32.5684 50.4975 32.5576C50.7372 32.5015 50.9711 32.4272 51.1978 32.3347C51.3462 32.2741 51.4893 32.2037 51.6271 32.1232C51.6866 32.0892 51.7396 32.0552 51.7868 32.0234C51.9116 31.944 52.0229 31.8493 52.1195 31.7393C51.815 31.5215 51.4864 31.3457 51.133 31.2119C51.1042 31.2005 51.0753 31.1886 51.0453 31.1773C50.888 31.1194 50.7272 31.069 50.5641 31.0276C50.5329 31.0196 50.5011 31.0128 50.4693 31.0049C50.2979 30.9641 50.1241 30.9317 49.9486 30.909C49.7678 30.8886 49.587 30.8773 49.405 30.8756C49.3703 30.8756 49.3355 30.8739 49.3008 30.8745C49.1582 30.8756 49.0145 30.8807 48.8697 30.8949C48.2854 30.9516 47.7312 31.107 47.207 31.3616L47.508 30.9408L47.6558 30.7338C47.7265 30.6351 47.7836 30.5302 47.8272 30.4185C47.8708 30.3068 47.9002 30.1911 47.9149 30.0726C47.9297 29.954 47.9297 29.8355 47.9144 29.717C47.899 29.5979 47.8696 29.4828 47.8254 29.3711L45.8613 24.4061L47.0722 24.5921C47.1028 24.5966 47.1334 24.5978 47.1646 24.5961C47.1958 24.5944 47.2259 24.5898 47.2559 24.5813C47.2859 24.5734 47.3148 24.562 47.3419 24.5479C47.3696 24.5337 47.3949 24.5172 47.4185 24.498C47.442 24.4781 47.4632 24.4566 47.4821 24.4327C47.5009 24.4089 47.5168 24.3834 47.5298 24.3562C47.5427 24.329 47.5527 24.3006 47.5592 24.2711C47.5663 24.2422 47.5692 24.2121 47.5692 24.1826V22.0027C47.5692 21.9726 47.5663 21.9432 47.5592 21.9137C47.5527 21.8847 47.5427 21.8564 47.5298 21.8292C47.5168 21.802 47.5009 21.7764 47.4821 21.7526C47.4632 21.7288 47.442 21.7072 47.4185 21.6874C47.3949 21.6681 47.3696 21.6511 47.3419 21.6369C47.3148 21.6233 47.2859 21.612 47.2559 21.604C47.2259 21.5955 47.1958 21.5904 47.1646 21.5887C47.1334 21.587 47.1028 21.5887 47.0722 21.5933L44.2964 22.0192C44.2369 22.0282 44.181 22.0469 44.1285 22.0753C44.0767 22.1036 44.0308 22.1394 43.9919 22.1836C43.953 22.2278 43.923 22.2766 43.9024 22.3311C43.8818 22.3855 43.8712 22.4416 43.8712 22.4995V22.9016C43.8288 22.8925 43.7858 22.8874 43.7428 22.8851L41.5301 22.8579C41.3734 22.8522 41.2456 22.791 41.1466 22.6742L39.1436 20.2952C38.0358 18.9857 36.1446 19.3935 35.7889 21.0483L34.7476 24.8212C34.7141 24.9749 34.6958 25.1303 34.6923 25.2874C34.6893 25.4445 34.7011 25.6004 34.7276 25.7558C34.7541 25.9106 34.7953 26.062 34.8513 26.2095C34.9072 26.3569 34.9767 26.4981 35.0604 26.6331C35.1434 26.7686 35.2388 26.8951 35.346 27.0131C35.4538 27.131 35.5716 27.2382 35.7 27.3352C35.8284 27.4321 35.965 27.5166 36.1093 27.5887C36.2542 27.6613 36.4044 27.7202 36.5604 27.7656H30.1296C30.0978 27.7656 30.0678 27.7713 30.0383 27.7832C30.0095 27.7951 29.9835 27.8115 29.9612 27.8331C29.9388 27.8546 29.9217 27.879 29.9099 27.9074C29.8976 27.9357 29.8917 27.9647 29.8917 27.9953V28.8578C29.8917 28.8885 29.8976 28.9174 29.9099 28.9457C29.9217 28.9735 29.9388 28.9985 29.9612 29.02C29.9835 29.0416 30.0095 29.058 30.0383 29.0699C30.0678 29.0813 30.0978 29.0869 30.1296 29.0869H39.0435C39.0753 29.0869 39.1053 29.0813 39.1348 29.0699C39.1636 29.058 39.1895 29.0416 39.2119 29.02C39.2343 28.9985 39.2514 28.9735 39.2638 28.9457C39.2755 28.9174 39.282 28.8885 39.282 28.8578V28.175L40.497 28.3435L39.5353 32.4686C39.5241 32.5298 39.5188 32.5916 39.5205 32.6535C39.5217 32.7158 39.5288 32.7771 39.5429 32.8383C39.5565 32.899 39.5759 32.958 39.6018 33.0147C39.6271 33.072 39.6584 33.1259 39.6949 33.1775C39.7314 33.2285 39.7726 33.2761 39.8191 33.3192C39.8651 33.3629 39.9151 33.4015 39.9693 33.4355C40.0229 33.4701 40.08 33.4984 40.1395 33.5217C40.1996 33.5455 40.2609 33.5631 40.3245 33.5744C40.3875 33.5863 40.4517 33.5926 40.5159 33.592C40.5807 33.592 40.6443 33.5858 40.7079 33.5733C40.7709 33.5614 40.8327 33.5432 40.8922 33.5194C40.9517 33.4956 41.0082 33.4667 41.0618 33.4321C41.116 33.3981 41.1655 33.3589 41.2114 33.3147C41.2574 33.271 41.298 33.2234 41.3345 33.1724C41.3705 33.1207 41.4011 33.0663 41.4264 33.009C41.4517 32.9518 41.4712 32.8928 41.4841 32.8321L42.6726 28.2794C42.6968 28.1699 42.7097 28.0594 42.7115 27.9476C42.7127 27.8354 42.7027 27.7242 42.6815 27.6142C42.6597 27.5042 42.6273 27.3976 42.5837 27.2932C42.5407 27.1894 42.4871 27.0907 42.4229 26.9972C42.3593 26.9036 42.2869 26.8168 42.205 26.7374C42.1231 26.6575 42.0342 26.5866 41.9382 26.5236C41.8422 26.4613 41.7403 26.408 41.6331 26.3649C41.5259 26.3218 41.4152 26.2889 41.3015 26.2667C40.3009 26.0728 39.0576 25.8392 38.4104 25.7184C38.3532 25.7076 38.2996 25.686 38.2513 25.6543C38.2024 25.6231 38.1624 25.5834 38.1306 25.5358C38.0982 25.4887 38.0776 25.4371 38.067 25.3815C38.057 25.3254 38.0582 25.2704 38.0717 25.2153L38.6754 22.6277L39.8062 23.9189C39.9004 24.0312 40.007 24.1316 40.126 24.2201C40.245 24.308 40.3722 24.3823 40.5088 24.4418C40.6454 24.5019 40.7874 24.5456 40.9346 24.5739C41.0819 24.6017 41.2303 24.6131 41.3799 24.608L43.7428 24.4832C43.8647 24.4792 43.9801 24.4503 44.0885 24.3964L44.9354 28.9406C44.9955 29.2622 45.0026 29.5843 44.9566 29.9081C44.9107 30.2314 44.8141 30.5404 44.6668 30.8342L43.4836 33.1979C43.4183 33.3283 43.3358 33.4474 43.2357 33.5551C43.1356 33.6629 43.0225 33.7548 42.8953 33.8319C42.768 33.9085 42.6326 33.9669 42.4883 34.0071C42.3446 34.0474 42.1973 34.0672 42.0478 34.0672H39.8038C39.7473 34.0672 39.6907 34.0638 39.6348 34.0582C39.5788 34.0519 39.5229 34.0429 39.4675 34.0309C39.4122 34.019 39.358 34.0043 39.3044 33.9867C39.2508 33.9691 39.199 33.9481 39.1477 33.9249C39.0965 33.9016 39.047 33.8756 38.9987 33.8472C38.9504 33.8189 38.9039 33.7877 38.8591 33.7542C38.815 33.7207 38.772 33.6844 38.7319 33.6465C38.6913 33.6085 38.653 33.5682 38.6171 33.5262C38.5811 33.4843 38.5476 33.44 38.517 33.3947C38.4863 33.3487 38.4581 33.3017 38.4321 33.2529C38.4068 33.2041 38.3844 33.1542 38.3644 33.1032C38.345 33.0521 38.3279 33 38.3144 32.9472C38.3002 32.8945 38.2896 32.8406 38.282 32.7867C38.2743 32.7329 38.2702 32.6784 38.2684 32.624C38.2672 32.5695 38.2684 32.5151 38.2737 32.4606C38.2784 32.4062 38.2861 32.3523 38.2973 32.299L38.888 29.421H30.3935C30.2739 29.421 30.1638 29.451 30.0625 29.5111C29.983 29.5593 29.8758 29.6257 29.748 29.7108C29.6773 29.7578 29.599 29.7816 29.5124 29.7822H25.8815C25.8231 29.7822 25.7672 29.793 25.7136 29.814C25.66 29.8355 25.6129 29.8661 25.5717 29.9058C25.5304 29.9455 25.4986 29.9909 25.4768 30.0431C25.4545 30.0947 25.4433 30.1486 25.4433 30.2047C25.4433 30.2609 25.4545 30.3147 25.4768 30.3663C25.4986 30.4179 25.5304 30.4639 25.5717 30.5036C25.6129 30.5433 25.66 30.5733 25.7136 30.5949C25.7672 30.6164 25.8231 30.6272 25.8815 30.6272H30.0289C30.0866 30.6272 30.1426 30.638 30.1967 30.6595C30.2503 30.6805 30.2975 30.7111 30.3387 30.7508C30.3799 30.7905 30.4117 30.8365 30.4335 30.8881C30.4559 30.9397 30.4671 30.9935 30.4671 31.0497C30.4671 31.1058 30.4559 31.1597 30.4335 31.2113C30.4117 31.2629 30.3799 31.3089 30.3387 31.3486C30.2975 31.3883 30.2503 31.4189 30.1967 31.4399C30.1426 31.4614 30.0866 31.4722 30.0289 31.4722H19.5743C19.5166 31.4722 19.4606 31.483 19.407 31.5045C19.3529 31.5261 19.3057 31.5561 19.2645 31.5958C19.2233 31.6355 19.1921 31.6814 19.1697 31.733C19.1473 31.7847 19.1361 31.8385 19.1361 31.8947C19.1361 31.9508 19.1473 32.0047 19.1697 32.0563C19.1921 32.1085 19.2233 32.1538 19.2645 32.1935C19.3057 32.2332 19.3529 32.2639 19.407 32.2854C19.4606 32.3064 19.5166 32.3172 19.5743 32.3172H27.9463C28.0052 32.3166 28.0612 32.3268 28.1154 32.3484C28.1696 32.3693 28.2179 32.4 28.2591 32.4397C28.3009 32.4794 28.3327 32.5253 28.3551 32.5769C28.378 32.6291 28.3892 32.6835 28.3892 32.7397C28.3892 32.7964 28.378 32.8502 28.3551 32.9024C28.3327 32.9546 28.3009 33.0005 28.2591 33.0402C28.2179 33.0799 28.1696 33.11 28.1154 33.1315C28.0612 33.1525 28.0052 33.1627 27.9463 33.1621H22.578C22.5197 33.1621 22.4637 33.1729 22.4101 33.1945C22.3565 33.216 22.3094 33.2466 22.2682 33.2863C22.227 33.3255 22.1952 33.3714 22.1728 33.423C22.151 33.4752 22.1398 33.5291 22.1398 33.5846C22.1398 33.6408 22.151 33.6947 22.1728 33.7468C22.1952 33.7984 22.227 33.8438 22.2682 33.8835C22.3094 33.9232 22.3565 33.9538 22.4101 33.9754C22.4637 33.9969 22.5197 34.0077 22.578 34.0077H26.2018C25.938 34.7393 25.8055 35.4929 25.8061 36.2676H27.2325C27.2325 36.2755 27.2308 36.2835 27.2308 36.292C27.2308 36.3867 27.2372 36.4797 27.2455 36.5727C27.2785 36.9589 27.3798 37.3281 27.5488 37.6797C27.7184 38.0319 27.9452 38.3443 28.2302 38.6182C28.3215 38.7073 28.4175 38.7912 28.5188 38.8695C28.6201 38.9483 28.7261 39.0209 28.8357 39.0872C28.9458 39.1541 29.0595 39.2148 29.1767 39.2687C29.2939 39.3231 29.414 39.3708 29.5365 39.4116C29.6596 39.4524 29.7845 39.4865 29.9111 39.5131C30.0383 39.5403 30.1661 39.5602 30.2951 39.5732C30.4247 39.5863 30.5542 39.592 30.6844 39.5903C30.814 39.5886 30.9435 39.58 31.0725 39.5642C31.2015 39.5489 31.3287 39.5256 31.4548 39.4955C31.5814 39.4661 31.7051 39.4292 31.827 39.3855C31.9489 39.3419 32.0679 39.2914 32.1833 39.2347C32.2993 39.178 32.4112 39.115 32.5196 39.0458C32.628 38.9766 32.7316 38.9018 32.8312 38.8207C32.9307 38.7402 33.0249 38.6545 33.1139 38.5632C33.2034 38.4719 33.2864 38.3761 33.3642 38.2757C33.4419 38.1753 33.5138 38.071 33.5791 37.9627C33.618 37.8986 33.6551 37.8334 33.6904 37.767C33.8872 37.3905 34.0038 36.9924 34.0409 36.5727C34.0485 36.4797 34.0556 36.3867 34.0556 36.292C34.0556 36.284 34.0538 36.2761 34.0538 36.2676H42.3823C42.5849 36.2653 42.7845 36.2404 42.9807 36.1922C43.1774 36.1445 43.3653 36.0748 43.5449 35.984C43.7245 35.8933 43.89 35.7833 44.0426 35.6546C44.1951 35.5258 44.33 35.3818 44.4466 35.2219L44.5891 35.0228C44.5585 35.3245 44.5585 35.6256 44.5891 35.9273C44.6027 36.0595 44.625 36.1882 44.6492 36.3158C44.7246 36.7071 44.8506 37.0831 45.0267 37.4432C45.0856 37.4182 45.1421 37.3893 45.1963 37.3564C45.2823 37.3048 45.3636 37.2476 45.4401 37.1846C45.5438 37.099 45.6386 37.0048 45.724 36.9022C45.7741 36.8415 45.8206 36.7791 45.8636 36.7139C45.9196 36.6283 45.9696 36.5426 46.0167 36.457C46.5103 35.561 46.5639 34.6502 47.6028 33.6612C47.7359 33.5342 47.879 33.4185 48.0327 33.3147ZM32.5249 36.292C32.5231 36.4105 32.5096 36.5268 32.4843 36.6425C32.4589 36.7581 32.4224 36.8699 32.3741 36.9787C32.3258 37.0871 32.2675 37.1903 32.1986 37.2878C32.1297 37.3854 32.0514 37.4755 31.9642 37.5589C31.877 37.6417 31.7822 37.7154 31.6803 37.7806C31.5779 37.8458 31.4701 37.9003 31.357 37.9451C31.2439 37.9899 31.1267 38.0239 31.0066 38.0466C30.8864 38.0699 30.7651 38.0812 30.6432 38.0812C30.5207 38.0812 30.3994 38.0699 30.2792 38.0466C30.1591 38.0239 30.0419 37.9899 29.9288 37.9451C29.8157 37.9003 29.7079 37.8458 29.6054 37.7806C29.5035 37.7154 29.4087 37.6417 29.3216 37.5589C29.2344 37.4755 29.1561 37.3854 29.0872 37.2878C29.0182 37.1903 28.9599 37.0871 28.9116 36.9787C28.8633 36.8699 28.8268 36.7581 28.8015 36.6425C28.7762 36.5268 28.7626 36.4105 28.7609 36.292C28.7609 36.284 28.7632 36.2761 28.7632 36.2676H32.5225C32.5225 36.2761 32.5249 36.284 32.5249 36.292ZM36.9898 18.3466C36.9427 18.0069 36.849 17.2941 36.8584 17.108C36.9209 15.8082 37.8626 14.7943 39.4128 14.864C39.5429 14.8697 39.6707 14.885 39.7979 14.9105C39.9252 14.936 40.0494 14.9712 40.1702 15.016C40.2915 15.0602 40.4087 15.1141 40.5206 15.1765C40.6331 15.2389 40.7397 15.3098 40.8404 15.3886C40.9411 15.4674 41.0347 15.553 41.1213 15.6466C41.2079 15.7396 41.2862 15.8389 41.3563 15.9444C41.4264 16.0493 41.4877 16.1593 41.5395 16.2738C41.5913 16.3884 41.6337 16.5063 41.6661 16.6277L39.292 16.5211C39.2596 16.52 39.2278 16.5245 39.1972 16.5347C39.1666 16.5455 39.1389 16.5614 39.1147 16.5829C39.0906 16.6039 39.0718 16.6288 39.0576 16.6572C39.0441 16.6861 39.0364 16.7156 39.0346 16.7474L38.9975 17.522C38.994 17.5958 39.014 17.6632 39.0576 17.7245C39.1012 17.7852 39.1595 17.8271 39.2325 17.8504L41.5678 18.5831C41.4205 19.0022 41.2085 19.3878 40.9311 19.74C40.8875 19.7944 40.8321 19.8307 40.7638 19.8494C40.6955 19.8681 40.6284 19.8653 40.5618 19.8409L37.1918 18.5933C37.137 18.5734 37.0917 18.5411 37.0552 18.4969C37.0192 18.4526 36.9974 18.4022 36.9892 18.3466H36.9898ZM23.4249 23.2492H19.1249C19.0631 23.2492 19.0036 23.2373 18.9471 23.2129C18.8905 23.1885 18.8411 23.1545 18.7998 23.1097C18.758 23.0655 18.7274 23.015 18.7085 22.9577C18.6891 22.901 18.6826 22.8426 18.6891 22.783C18.7121 22.5636 18.9212 22.4042 19.1503 22.4042H24.5486C24.6105 22.4042 24.67 22.3923 24.7265 22.3679C24.7831 22.3435 24.8325 22.3095 24.8737 22.2647C24.9156 22.2205 24.9462 22.1694 24.965 22.1127C24.9845 22.056 24.991 21.9976 24.9845 21.9381C24.9615 21.7186 24.753 21.5592 24.5233 21.5592H20.1986C20.1403 21.5592 20.0843 21.5485 20.0308 21.5269C19.9772 21.5059 19.9295 21.4753 19.8888 21.4356C19.8476 21.3959 19.8158 21.3505 19.7934 21.2984C19.7716 21.2468 19.7604 21.1929 19.7604 21.1367C19.7604 21.0806 19.7716 21.0267 19.7934 20.9751C19.8158 20.9235 19.8476 20.8776 19.8888 20.8379C19.9295 20.7982 19.9772 20.7681 20.0308 20.7466C20.0843 20.725 20.1403 20.7142 20.1986 20.7142H24.5486C24.6105 20.7142 24.67 20.7023 24.7265 20.678C24.7831 20.6536 24.8325 20.619 24.8737 20.5747C24.9156 20.5305 24.9462 20.4795 24.965 20.4228C24.9845 20.366 24.991 20.3076 24.9845 20.2481C24.9615 20.0281 24.753 19.8693 24.5233 19.8693H21.5014C21.4395 19.8693 21.3801 19.8568 21.3235 19.833C21.2664 19.8086 21.2175 19.774 21.1757 19.7298C21.1345 19.685 21.1038 19.6345 21.0844 19.5778C21.0655 19.5205 21.0591 19.4627 21.0655 19.4031C21.0885 19.1831 21.297 19.0243 21.5261 19.0243H23.4249V18.5388C23.4249 18.4833 23.4355 18.43 23.4579 18.3784C23.4797 18.3273 23.5109 18.2819 23.5521 18.2428C23.5928 18.2037 23.6393 18.1731 23.6929 18.1521C23.7459 18.1305 23.8013 18.1203 23.859 18.1203H33.5568C33.6145 18.1203 33.6698 18.1305 33.7228 18.1521C33.7764 18.1731 33.823 18.2037 33.8642 18.2428C33.9048 18.2819 33.936 18.3273 33.9578 18.3784C33.9802 18.43 33.9914 18.4833 33.9914 18.5388V26.7034C33.9914 26.742 33.9873 26.78 33.9796 26.818C33.9714 26.8554 33.9602 26.8923 33.9449 26.928C33.9296 26.9632 33.9107 26.9972 33.8889 27.0289C33.8665 27.0613 33.8412 27.0907 33.8129 27.118C33.7847 27.1452 33.7541 27.1696 33.7211 27.1906C33.6881 27.2121 33.6528 27.2303 33.6162 27.245C33.5791 27.2597 33.5414 27.2705 33.502 27.2785C33.4631 27.2858 33.4236 27.2892 33.3836 27.2892H23.859C23.8013 27.2892 23.7459 27.279 23.6929 27.2575C23.6393 27.2365 23.5928 27.2059 23.5521 27.1667C23.5109 27.1276 23.4797 27.0822 23.4579 27.0312C23.4355 26.9796 23.4249 26.9263 23.4249 26.8707V24.0947H24.5486C24.6105 24.0947 24.67 24.0823 24.7265 24.0579C24.7831 24.0335 24.8325 23.9995 24.8737 23.9547C24.9156 23.9104 24.9462 23.86 24.965 23.8033C24.9845 23.746 24.991 23.6881 24.9845 23.6286C24.9615 23.4086 24.753 23.2498 24.5233 23.2498L23.4249 23.2492Z" fill="#2B2B2B"/>
<defs>
<filter id="filter0_d_39_167" x="0.737334" y="0.727295" width="70.5253" height="71.656" filterUnits="userSpaceOnUse" color-interpolation-filters="sRGB">
<feFlood flood-opacity="0" result="BackgroundImageFix"/>
<feColorMatrix in="SourceAlpha" type="matrix" values="0 0 0 0 0 0 0 0 0 0 0 0 0 0 0 0 0 0 127 0" result="hardAlpha"/>
<feMorphology radius="7.77333" operator="erode" in="SourceAlpha" result="effect1_dropShadow_39_167"/>
<feOffset dy="9.89333"/>
<feGaussianBlur stdDeviation="8.268"/>
<feComposite in2="hardAlpha" operator="out"/>
<feColorMatrix type="matrix" values="0 0 0 0 0 0 0 0 0 0 0 0 0 0 0 0 0 0 0.25 0"/>
<feBlend mode="normal" in2="BackgroundImageFix" result="effect1_dropShadow_39_167"/>
<feBlend mode="normal" in="SourceGraphic" in2="effect1_dropShadow_39_167" result="shape"/>
</filter>
</defs>
</svg>
