<svg width="37" height="23" viewBox="0 0 37 23" fill="none" xmlns="http://www.w3.org/2000/svg">
<path d="M5.6428 17.8287H13.528C14.1676 17.8287 14.633 17.9018 14.9223 18.0462C15.21 18.1924 15.4029 18.42 15.4976 18.7327C15.5958 19.042 15.6465 19.4532 15.6465 19.9698C15.6465 20.4829 15.5958 20.8942 15.4976 21.2068C15.4029 21.5161 15.2404 21.7285 15.0103 21.8457C14.6397 22.0411 14.1372 22.138 13.501 22.138H3.06403C1.71034 22.138 0.918435 21.7693 0.688308 21.0301C0.569861 20.7225 0.512329 20.228 0.512329 19.5483V3.35792C0.512329 2.91441 0.525866 2.58136 0.55294 2.35876C0.583398 2.13276 0.676464 1.87447 0.830445 1.5839C1.10118 1.06393 1.85586 0.802246 3.09787 0.802246C4.44648 0.802246 5.24685 1.16079 5.50066 1.87617C5.59542 2.20752 5.6428 2.7122 5.6428 3.3919V17.8287Z" fill="#68B19F"/>
<path d="M33.7879 0.862061C34.2296 0.862061 34.5612 0.875655 34.7829 0.902842C35.008 0.93003 35.2601 1.02349 35.541 1.18152C35.8202 1.33615 36.0165 1.59953 36.1298 1.96997C36.2466 2.33701 36.3058 2.83149 36.3058 3.45171C36.3058 4.07364 36.2466 4.56982 36.1298 4.94026C36.0165 5.30729 35.8134 5.56388 35.5207 5.70832C35.2313 5.85445 34.9758 5.94281 34.7558 5.9734C34.5342 6.00059 34.1907 6.01418 33.727 6.01418H24.8536V8.95048H30.5662C31.0298 8.95048 31.3733 8.96747 31.595 8.99806C31.8149 9.02525 32.0722 9.11701 32.3666 9.26994C32.8674 9.56561 33.1179 10.3337 33.1179 11.5741C33.1179 12.9335 32.749 13.739 32.0146 13.9871C31.7067 14.0873 31.2159 14.1366 30.5391 14.1366H24.8536V19.6354C24.8536 20.1026 24.8401 20.4425 24.813 20.6549C24.7859 20.869 24.6929 21.1205 24.5355 21.4094C24.2648 21.9361 23.5101 22.1978 22.2748 22.1978C20.9212 22.1978 20.1293 21.8291 19.8991 21.0899C19.7807 20.7823 19.7231 20.2879 19.7231 19.6082V3.41773C19.7231 2.43047 19.9059 1.75756 20.2714 1.39902C20.6403 1.04218 21.3374 0.862061 22.3628 0.862061H33.7879Z" fill="#68B19F"/>
</svg>
