<svg width="40" height="41" viewBox="0 0 40 41" fill="none" xmlns="http://www.w3.org/2000/svg">
<path d="M10 3.41666L5 10.25V34.1667C5 35.0728 5.35119 35.9419 5.97631 36.5826C6.60143 37.2234 7.44928 37.5833 8.33333 37.5833H31.6667C32.5507 37.5833 33.3986 37.2234 34.0237 36.5826C34.6488 35.9419 35 35.0728 35 34.1667V10.25L30 3.41666H10Z" stroke="#68B19F" stroke-width="3" stroke-linecap="round" stroke-linejoin="round"/>
<path d="M5 10.25H35" stroke="#68B19F" stroke-width="3" stroke-linecap="round" stroke-linejoin="round"/>
<path d="M26.6667 17.0833C26.6667 18.8957 25.9643 20.6337 24.7141 21.9152C23.4638 23.1967 21.7681 23.9167 20 23.9167C18.2319 23.9167 16.5362 23.1967 15.286 21.9152C14.0357 20.6337 13.3333 18.8957 13.3333 17.0833" stroke="#68B19F" stroke-width="3" stroke-linecap="round" stroke-linejoin="round"/>
</svg>
