<svg width="146" height="24" viewBox="0 0 146 24" fill="none" xmlns="http://www.w3.org/2000/svg">
<path d="M5.63047 18.9527H13.5157C14.1553 18.9527 14.6206 19.0257 14.91 19.1702C15.1977 19.3163 15.3906 19.544 15.4853 19.8567C15.5835 20.1659 15.6342 20.5772 15.6342 21.0937C15.6342 21.6069 15.5835 22.0181 15.4853 22.3308C15.3906 22.64 15.2281 22.8524 14.998 22.9697C14.6274 23.1651 14.1249 23.262 13.4886 23.262H3.0517C1.69801 23.262 0.906106 22.8932 0.675979 22.1541C0.557532 21.8465 0.5 21.352 0.5 20.6723V4.48188C0.5 4.03837 0.513537 3.70532 0.540611 3.48272C0.571069 3.25672 0.664134 2.99843 0.818116 2.70786C1.08885 2.18789 1.84353 1.92621 3.08554 1.92621C4.43415 1.92621 5.23452 2.28475 5.48834 3.00013C5.58309 3.33149 5.63047 3.83616 5.63047 4.51586V18.9527Z" fill="#68B19F"/>
<path d="M27.438 9.55248C27.5548 8.46496 28.3179 7.9212 29.7258 7.9212C30.4838 7.9212 31.0456 7.98068 31.4111 8.09793C31.7766 8.21178 32.0304 8.41568 32.1759 8.70965C32.3249 9.00023 32.4128 9.25681 32.4399 9.47771C32.467 9.70032 32.4805 10.0351 32.4805 10.4837V20.6724C32.4805 21.1176 32.467 21.4523 32.4399 21.6783C32.4128 21.9009 32.3316 22.1575 32.1963 22.4464C31.9255 22.9494 31.2622 23.2008 30.2063 23.2008C29.1538 23.2008 28.4482 23.0717 28.0878 22.8134C27.7308 22.5517 27.5227 22.166 27.4651 21.6579C26.751 22.6877 25.5581 23.2008 23.8846 23.2008C22.2145 23.2008 20.6645 22.4362 19.2347 20.9035C17.8032 19.3724 17.0891 17.5933 17.0891 15.5678C17.0891 13.5389 17.8083 11.7615 19.2482 10.239C20.6865 8.71305 22.267 7.94839 23.9861 7.94839C24.6444 7.94839 25.2451 8.06734 25.7865 8.30184C26.328 8.53293 26.7037 8.75044 26.9169 8.95435C27.1284 9.15826 27.3027 9.35877 27.438 9.55248ZM22.1654 15.6086C22.1654 16.2475 22.4159 16.8253 22.9167 17.3418C23.4176 17.855 24.0234 18.1099 24.7374 18.1099C25.4549 18.1099 26.0505 17.8499 26.5243 17.3282C26.9981 16.8032 27.235 16.2254 27.235 15.595C27.235 14.9612 27.0066 14.3715 26.5514 13.8278C26.0996 13.284 25.4904 13.0122 24.7239 13.0122C23.9608 13.0122 23.3431 13.284 22.8694 13.8278C22.3989 14.3715 22.1654 14.9663 22.1654 15.6086Z" fill="#68B19F"/>
<path d="M56.1996 1.92621C56.6412 1.92621 56.9729 1.9398 57.1945 1.96699C57.4196 1.99418 57.6717 2.08764 57.9526 2.24567C58.2318 2.4003 58.4281 2.66368 58.5414 3.03412C58.6582 3.40116 58.7174 3.89564 58.7174 4.51586C58.7174 5.13779 58.6582 5.63397 58.5414 6.0044C58.4281 6.37144 58.225 6.62803 57.9323 6.77246C57.6429 6.9186 57.3874 7.00696 57.1675 7.03755C56.9458 7.06473 56.6023 7.07833 56.1387 7.07833H47.2652V10.0146H52.9778C53.4414 10.0146 53.7849 10.0316 54.0066 10.0622C54.2266 10.0894 54.4838 10.1812 54.7782 10.3341C55.2791 10.6298 55.5295 11.3978 55.5295 12.6383C55.5295 13.9977 55.1606 14.8031 54.4262 15.0512C54.1183 15.1515 53.6276 15.2007 52.9507 15.2007H47.2652V20.6995C47.2652 21.1668 47.2517 21.5066 47.2246 21.719C47.1976 21.9332 47.1045 22.1846 46.9471 22.4735C46.6764 23.0003 45.9217 23.262 44.6865 23.262C43.3328 23.262 42.5409 22.8932 42.3107 22.1541C42.1923 21.8465 42.1348 21.352 42.1348 20.6723V4.48188C42.1348 3.49461 42.3175 2.82171 42.683 2.46317C43.0519 2.10633 43.749 1.92621 44.7745 1.92621H56.1996Z" fill="#68B19F"/>
<path d="M70.9773 8.09792C71.3462 8.21177 71.6508 8.40889 71.8911 8.68926C72.1347 8.97134 72.2566 9.42334 72.2566 10.0487C72.2566 10.6706 72.0704 11.3503 71.7015 12.0878C71.3361 12.8218 70.8047 13.1889 70.111 13.1889C69.7624 13.1889 69.429 13.1124 69.1092 12.9578C68.7928 12.8048 68.3732 12.7267 67.8503 12.7267C67.3258 12.7267 66.8367 12.9102 66.3816 13.2772C65.9298 13.6443 65.7047 14.0912 65.7047 14.6162V20.7267C65.7047 21.1753 65.6878 21.5118 65.6573 21.7327C65.6303 21.9553 65.5389 22.2136 65.3866 22.5075C65.0972 23.0105 64.3443 23.262 63.1259 23.262C62.1953 23.262 61.5286 23.0972 61.1225 22.7658C60.8145 22.494 60.6419 22.0776 60.6013 21.5152C60.6013 21.3215 60.6013 21.0394 60.6013 20.6724V10.4497C60.6013 10.0062 60.6149 9.67313 60.6419 9.45052C60.6724 9.22452 60.757 8.97474 60.8924 8.70286C61.1631 8.18289 61.9161 7.9212 63.153 7.9212C64.3121 7.9212 65.0363 8.1438 65.3257 8.58731C65.5423 8.89997 65.6506 9.22283 65.6506 9.55248C65.7453 9.41654 65.8824 9.25171 66.0634 9.0563C66.2479 8.86258 66.6405 8.5992 67.2412 8.26785C67.8402 7.93819 68.3664 7.77167 68.8182 7.77167C69.2734 7.77167 69.6541 7.79716 69.9621 7.84643C70.2734 7.89741 70.6118 7.98068 70.9773 8.09792Z" fill="#68B19F"/>
<path d="M83.7654 9.55248C83.8822 8.46496 84.6453 7.9212 86.0532 7.9212C86.8112 7.9212 87.373 7.98068 87.7385 8.09793C88.104 8.21178 88.3578 8.41568 88.5033 8.70965C88.6522 9.00023 88.7402 9.25681 88.7673 9.47771C88.7944 9.70032 88.8079 10.0351 88.8079 10.4837V20.6724C88.8079 21.1176 88.7944 21.4523 88.7673 21.6783C88.7402 21.9009 88.659 22.1575 88.5236 22.4464C88.2529 22.9494 87.5896 23.2008 86.5337 23.2008C85.4812 23.2008 84.7756 23.0717 84.4152 22.8134C84.0582 22.5517 83.85 22.166 83.7925 21.6579C83.0784 22.6877 81.8855 23.2008 80.212 23.2008C78.5419 23.2008 76.9919 22.4362 75.5621 20.9035C74.1306 19.3724 73.4165 17.5933 73.4165 15.5678C73.4165 13.5389 74.1356 11.7615 75.5756 10.239C77.0139 8.71305 78.5944 7.94839 80.3135 7.94839C80.9718 7.94839 81.5725 8.06734 82.1139 8.30184C82.6554 8.53293 83.0311 8.75044 83.2443 8.95435C83.4558 9.15826 83.6301 9.35877 83.7654 9.55248ZM78.4928 15.6086C78.4928 16.2475 78.7433 16.8253 79.2441 17.3418C79.745 17.855 80.3508 18.1099 81.0648 18.1099C81.7823 18.1099 82.3779 17.8499 82.8517 17.3282C83.3255 16.8032 83.5624 16.2254 83.5624 15.595C83.5624 14.9612 83.334 14.3715 82.8788 13.8278C82.427 13.284 81.8178 13.0122 81.0513 13.0122C80.2882 13.0122 79.6705 13.284 79.1967 13.8278C78.7263 14.3715 78.4928 14.9663 78.4928 15.6086Z" fill="#68B19F"/>
<path d="M91.1277 10.4837C91.1277 10.0351 91.1412 9.70031 91.1683 9.47771C91.1988 9.25681 91.2834 8.99852 91.4187 8.70285C91.6895 8.19987 92.4425 7.94839 93.6794 7.94839C94.6084 7.94839 95.2649 8.11491 95.649 8.44457C95.9773 8.71645 96.1533 9.13446 96.1769 9.69521C96.1939 9.89063 96.204 10.171 96.204 10.538V20.7267C96.204 21.1753 96.1871 21.5118 96.1566 21.7327C96.1296 21.9553 96.0382 22.2136 95.8859 22.5075C95.6321 23.0105 94.8876 23.262 93.6523 23.262C92.434 23.262 91.6895 23.0003 91.4187 22.4736C91.2834 22.1847 91.1988 21.9332 91.1683 21.7191C91.1412 21.5067 91.1277 21.1668 91.1277 20.6995V10.4837ZM93.7132 0.72998L94.3765 0.872717C96.1719 1.45726 97.4714 1.88547 98.2752 2.15735C99.0772 2.42923 99.4799 2.90502 99.4799 3.58472C99.4799 3.95175 99.3733 4.33918 99.1618 4.747C98.6373 5.77675 98.0586 6.28992 97.4223 6.28992C97.2464 6.28992 96.9367 6.22195 96.4951 6.08601L93.7132 4.86255L91.0126 6.02484C90.7419 6.16078 90.4136 6.22875 90.0312 6.22875C89.2968 6.22875 88.6961 5.73597 88.2308 4.747C88.0007 4.24403 87.8856 3.83621 87.8856 3.52354C87.8856 2.90332 88.2511 2.46661 88.9821 2.21172L93.0161 0.872717L93.7132 0.72998Z" fill="#68B19F"/>
<path d="M103.305 15.5882C103.305 16.4141 103.576 17.0547 104.118 17.5118C104.659 17.9706 105.234 18.1983 105.844 18.1983C106.453 18.1983 107.021 18.0199 107.549 17.6613C108.081 17.2994 108.512 17.1176 108.842 17.1176C109.424 17.1176 110.13 17.6324 110.96 18.6605C111.402 19.2229 111.624 19.7276 111.624 20.1762C111.624 20.9154 111.092 21.6036 110.033 22.2425C108.932 23.0173 107.578 23.4048 105.972 23.4048C104.175 23.4048 102.446 22.7557 100.781 21.454C99.9905 20.8338 99.3425 20.0046 98.8382 18.9663C98.3373 17.9298 98.0869 16.7845 98.0869 15.5339C98.0869 14.2832 98.3373 13.1481 98.8382 12.1286C99.3425 11.109 99.9905 10.29 100.781 9.66806C102.387 8.38682 104.097 7.74451 105.911 7.74451C106.646 7.74451 107.361 7.84646 108.057 8.05037C108.756 8.25428 109.268 8.45479 109.593 8.64851L110.06 8.94078C110.407 9.17188 110.678 9.35539 110.872 9.49133C111.373 9.88216 111.624 10.324 111.624 10.8167C111.624 11.3112 111.421 11.8686 111.015 12.4888C110.319 13.5593 109.654 14.0929 109.018 14.0929C108.647 14.0929 108.125 13.8805 107.448 13.454C107.099 13.1243 106.602 12.9578 105.952 12.9578C105.305 12.9578 104.703 13.1923 104.145 13.6579C103.585 14.1201 103.305 14.7641 103.305 15.5882Z" fill="#68B19F"/>
<path d="M121.975 7.97561C123.906 7.97561 125.515 8.71478 126.801 10.1914C128.087 11.6647 128.73 13.471 128.73 15.6086V20.7268C128.73 21.1754 128.713 21.5118 128.683 21.7327C128.656 21.9553 128.564 22.2136 128.412 22.5076C128.158 23.0106 127.414 23.262 126.178 23.262C125.001 23.262 124.265 23.0106 123.972 22.5076C123.818 22.2136 123.725 21.9502 123.694 21.7191C123.667 21.488 123.654 21.1397 123.654 20.6724V15.5746C123.654 14.7828 123.43 14.1643 122.984 13.7191C122.54 13.2705 121.977 13.0462 121.292 13.0462C120.605 13.0462 120.001 13.2552 119.478 13.6715C118.958 14.0895 118.66 14.5585 118.584 15.0785V20.7268C118.584 21.1754 118.567 21.5118 118.537 21.7327C118.51 21.9553 118.418 22.2136 118.266 22.5076C118.012 23.0106 117.268 23.262 116.033 23.262C114.814 23.262 114.07 23.0004 113.799 22.4736C113.664 22.1847 113.579 21.9332 113.549 21.7191C113.521 21.5067 113.508 21.1669 113.508 20.6996V3.29248C113.508 2.84388 113.521 2.50913 113.549 2.28653C113.579 2.06562 113.664 1.81753 113.799 1.54565C114.07 1.02059 114.823 0.757202 116.06 0.757202C117.278 0.757202 118.012 1.02059 118.266 1.54565C118.418 1.83622 118.51 2.09451 118.537 2.32051C118.567 2.54311 118.584 2.87616 118.584 3.31967V9.75642C119.549 8.57034 120.679 7.97561 121.975 7.97561Z" fill="#68B19F"/>
<path d="M145.775 13.7598C145.775 14.9527 145.479 15.8363 144.888 16.4106C144.301 16.9816 143.65 17.2671 142.932 17.2671H136.062C136.062 17.8108 136.38 18.2662 137.017 18.6333C137.656 19.0003 138.296 19.1838 138.932 19.1838C140.056 19.1838 140.936 19.0683 141.572 18.8372L141.89 18.7216C142.353 18.5092 142.739 18.4022 143.047 18.4022C143.67 18.4022 144.201 18.8372 144.645 19.7072C144.897 20.234 145.024 20.6792 145.024 21.0462C145.024 22.7777 142.963 23.6426 138.844 23.6426C137.418 23.6426 136.147 23.3946 135.033 22.9018C133.923 22.4039 133.059 21.7463 132.441 20.9306C131.223 19.3588 130.614 17.6035 130.614 15.663C130.614 13.2161 131.4 11.2619 132.976 9.79717C134.549 8.33412 136.517 7.60175 138.878 7.60175C141.562 7.60175 143.531 8.55163 144.787 10.4497C145.445 11.4607 145.775 12.5635 145.775 13.7598ZM139.656 14.6162C140.391 14.6162 140.76 14.307 140.76 13.6851C140.76 13.2365 140.59 12.8762 140.252 12.6043C139.913 12.3325 139.43 12.1965 138.803 12.1965C138.176 12.1965 137.553 12.4548 136.935 12.9714C136.316 13.4845 136.008 14.0317 136.008 14.6162H139.656Z" fill="#68B19F"/>
</svg>
