<svg width="16" height="16" viewBox="0 0 16 16" fill="none" xmlns="http://www.w3.org/2000/svg">
<path d="M7.8806 15.0606C11.688 15.0606 14.7745 11.9741 14.7745 8.16668C14.7745 4.35926 11.688 1.27274 7.8806 1.27274C4.07319 1.27274 0.986664 4.35926 0.986664 8.16668C0.986664 11.9741 4.07319 15.0606 7.8806 15.0606Z" stroke="#2B2B2B" stroke-width="1.18182" stroke-linecap="round" stroke-linejoin="round"/>
<path d="M5.87445 6.09849C6.03653 5.63774 6.35644 5.24923 6.77753 5.00175C7.19861 4.75428 7.69369 4.66382 8.17508 4.74639C8.65647 4.82896 9.0931 5.07924 9.40765 5.45289C9.72219 5.82654 9.89434 6.29946 9.89362 6.78788C9.89362 8.16667 7.82544 8.85606 7.82544 8.85606" stroke="#2B2B2B" stroke-width="1.18182" stroke-linecap="round" stroke-linejoin="round"/>
<path d="M7.88062 11.6136H7.88751" stroke="#2B2B2B" stroke-width="1.18182" stroke-linecap="round" stroke-linejoin="round"/>
</svg>
