<svg xmlns="http://www.w3.org/2000/svg" xmlns:xlink="http://www.w3.org/1999/xlink" width="268" zoomAndPan="magnify" viewBox="0 0 200.87999 231" height="308" preserveAspectRatio="xMidYMid meet" version="1.0"><defs><clipPath id="45d8186330"><path d="M 0 0.0703125 L 200.128906 0.0703125 L 200.128906 230 L 0 230 Z M 0 0.0703125 " clip-rule="nonzero"/></clipPath></defs><g clip-path="url(#45d8186330)"><path fill="#232221" d="M 187.976562 216.515625 C 187.976562 217.171875 187.441406 217.707031 186.785156 217.707031 L 134.847656 217.707031 C 134.195312 217.707031 133.660156 217.171875 133.660156 216.515625 L 133.660156 136.726562 C 133.660156 129.363281 127.675781 123.375 120.316406 123.375 L 80.152344 123.375 C 72.796875 123.375 66.808594 129.363281 66.808594 136.726562 L 66.808594 216.515625 C 66.808594 217.171875 66.273438 217.707031 65.617188 217.707031 L 13.683594 217.707031 C 13.027344 217.707031 12.496094 217.171875 12.496094 216.515625 L 12.496094 107.355469 C 12.496094 107.304688 12.492188 107.253906 12.492188 107.203125 L 12.269531 98.488281 C 12.214844 96.464844 13.027344 94.5 14.496094 93.109375 L 99.039062 12.859375 C 99.261719 12.648438 99.546875 12.535156 99.855469 12.535156 C 100.167969 12.535156 100.453125 12.648438 100.679688 12.863281 L 185.511719 93.386719 C 186.898438 94.703125 187.691406 96.480469 187.742188 98.394531 L 187.976562 107.433594 Z M 0.339844 216.515625 C 0.339844 223.875 6.324219 229.863281 13.683594 229.863281 L 65.617188 229.863281 C 72.976562 229.863281 78.964844 223.875 78.964844 216.515625 L 78.964844 136.726562 C 78.964844 136.070312 79.496094 135.535156 80.152344 135.535156 L 120.316406 135.535156 C 120.972656 135.535156 121.503906 136.070312 121.503906 136.726562 L 121.503906 216.515625 C 121.503906 223.875 127.492188 229.863281 134.847656 229.863281 L 186.785156 229.863281 C 194.144531 229.863281 200.128906 223.875 200.128906 216.515625 L 200.128906 107.355469 C 200.128906 107.304688 200.128906 107.257812 200.128906 107.210938 L 199.890625 98.082031 C 199.757812 92.921875 197.621094 88.121094 193.878906 84.566406 L 109.042969 4.042969 C 106.554688 1.675781 103.292969 0.375 99.855469 0.375 C 96.425781 0.375 93.160156 1.675781 90.671875 4.042969 L 6.128906 84.289062 C 2.167969 88.050781 -0.0234375 93.339844 0.117188 98.800781 L 0.339844 107.433594 L 0.339844 216.515625 " fill-opacity="1" fill-rule="nonzero"/></g></svg>