<svg width="25" height="33" viewBox="0 0 25 33" fill="none" xmlns="http://www.w3.org/2000/svg">
<path d="M10.5 18C10.6146 18 10.7289 17.9941 10.8432 17.9831C10.9572 17.9717 11.0706 17.9551 11.1829 17.9327C11.2953 17.9102 11.4063 17.8826 11.5161 17.8491C11.6259 17.8159 11.7337 17.7772 11.8395 17.7336C11.9454 17.6897 12.049 17.6406 12.15 17.5866C12.251 17.5326 12.3494 17.4737 12.4445 17.41C12.54 17.3463 12.6319 17.2783 12.7205 17.2054C12.8092 17.1329 12.894 17.0558 12.9751 16.9748C13.056 16.8938 13.133 16.8089 13.2057 16.7201C13.2784 16.6317 13.3466 16.5396 13.4103 16.4443C13.4739 16.349 13.5327 16.2508 13.5869 16.15C13.6408 16.0488 13.6899 15.9451 13.7337 15.8394C13.7776 15.7333 13.8162 15.6257 13.8493 15.5161C13.8828 15.4061 13.9104 15.2952 13.9328 15.1827C13.9552 15.0705 13.9721 14.957 13.9834 14.8431C13.9945 14.729 14 14.6145 14 14.5C14 14.3852 13.9945 14.271 13.9834 14.1569C13.9721 14.0427 13.9552 13.9295 13.9328 13.8173C13.9104 13.7048 13.8828 13.5935 13.8493 13.4839C13.8162 13.3743 13.7776 13.2667 13.7337 13.1606C13.6899 13.0546 13.6408 12.9512 13.5869 12.85C13.5327 12.7492 13.4739 12.651 13.4103 12.5557C13.3466 12.4604 13.2784 12.3683 13.2057 12.2795C13.133 12.1911 13.056 12.1062 12.9751 12.0252C12.894 11.9442 12.8092 11.8671 12.7205 11.7946C12.6319 11.7217 12.54 11.6534 12.4445 11.59C12.3494 11.5263 12.251 11.4674 12.15 11.4134C12.049 11.3594 11.9454 11.3103 11.8395 11.2664C11.7337 11.2225 11.6259 11.1841 11.5161 11.1509C11.4063 11.1174 11.2953 11.0898 11.1829 11.0673C11.0706 11.0449 10.9572 11.0283 10.8432 11.0169C10.7289 11.0055 10.6146 11 10.5 11C10.3854 11 10.2711 11.0055 10.1571 11.0169C10.0428 11.0283 9.92976 11.0449 9.81708 11.0673C9.70472 11.0898 9.59366 11.1174 9.4839 11.1509C9.37447 11.1841 9.26665 11.2225 9.16047 11.2664C9.0546 11.3103 8.95134 11.3594 8.85002 11.4134C8.74903 11.4674 8.65096 11.5263 8.55548 11.59C8.46034 11.6534 8.36811 11.7217 8.27978 11.7946C8.19113 11.8671 8.10605 11.9442 8.02519 12.0252C7.94401 12.1062 7.86704 12.1911 7.7943 12.2795C7.72189 12.3683 7.65337 12.4604 7.58972 12.5557C7.52607 12.651 7.46729 12.7492 7.41339 12.85C7.35916 12.9512 7.31012 13.0546 7.26628 13.1606C7.22244 13.2667 7.1838 13.3743 7.15068 13.4839C7.11755 13.5935 7.08963 13.7048 7.06722 13.8173C7.04481 13.9295 7.02793 14.0427 7.01689 14.1569C7.00552 14.271 7 14.3852 7 14.5C7.00032 14.6145 7.00585 14.729 7.01754 14.8428C7.0289 14.957 7.04579 15.0698 7.06819 15.1824C7.09093 15.2946 7.11885 15.4055 7.15198 15.5151C7.18542 15.6247 7.22407 15.7327 7.26823 15.8384C7.31207 15.9441 7.36111 16.0475 7.41501 16.1487C7.46924 16.2495 7.52802 16.3477 7.59167 16.443C7.65564 16.538 7.72384 16.6301 7.79625 16.7185C7.86899 16.807 7.94595 16.8919 8.02714 16.9729C8.108 17.0539 8.19275 17.1309 8.28141 17.2035C8.36973 17.2763 8.46163 17.3443 8.55711 17.408C8.65225 17.4718 8.75032 17.5307 8.85132 17.5847C8.95231 17.639 9.0559 17.6878 9.16176 17.7317C9.2673 17.7756 9.37512 17.8143 9.48488 17.8478C9.59431 17.8813 9.70537 17.9089 9.81773 17.9317C9.93009 17.9541 10.0431 17.9711 10.1571 17.9824C10.2711 17.9938 10.3854 17.9997 10.5 18ZM10.5 11.6225C10.5945 11.6225 10.689 11.6271 10.7832 11.6362C10.877 11.6456 10.9705 11.6593 11.0634 11.6778C11.156 11.6964 11.2479 11.7191 11.3381 11.7468C11.4287 11.7741 11.5177 11.806 11.6051 11.8421C11.6924 11.8785 11.7778 11.9188 11.8613 11.9634C11.9444 12.0079 12.0256 12.0564 12.1042 12.1091C12.1828 12.1615 12.2588 12.2177 12.3318 12.2779C12.4049 12.3377 12.4747 12.4012 12.5416 12.4682C12.6085 12.5348 12.6722 12.6048 12.7319 12.678C12.792 12.7511 12.8482 12.8269 12.9008 12.9056C12.9534 12.9843 13.0018 13.0653 13.0466 13.1486C13.0911 13.2319 13.1313 13.3174 13.1677 13.4046C13.2037 13.4921 13.2356 13.5808 13.2632 13.6716C13.2905 13.762 13.3135 13.8537 13.332 13.9464C13.3502 14.0391 13.3642 14.1325 13.3736 14.2265C13.3827 14.3208 13.3875 14.4151 13.3875 14.5098C13.3875 14.6041 13.3827 14.6984 13.3736 14.7927C13.3642 14.8867 13.3502 14.9801 13.332 15.0728C13.3135 15.1655 13.2905 15.2572 13.2632 15.3476C13.2356 15.4383 13.2037 15.5271 13.1677 15.6146C13.1313 15.7018 13.0911 15.7873 13.0466 15.8706C13.0018 15.9539 12.9534 16.0352 12.9008 16.1136C12.8482 16.1923 12.792 16.2681 12.7319 16.3412C12.6722 16.4144 12.6085 16.4843 12.5416 16.551C12.4747 16.618 12.4049 16.6814 12.3318 16.7413C12.2588 16.8015 12.1828 16.8577 12.1042 16.9101C12.0256 16.9628 11.9444 17.0112 11.8613 17.0558C11.7778 17.1004 11.6924 17.1407 11.6051 17.1771C11.5177 17.2132 11.4287 17.2451 11.3381 17.2724C11.2479 17.3001 11.156 17.3228 11.0634 17.3414C10.9705 17.3599 10.877 17.3736 10.7832 17.383C10.689 17.3921 10.5945 17.3967 10.5 17.3967C10.4055 17.3967 10.311 17.3921 10.2172 17.383C10.123 17.3736 10.0295 17.3599 9.93691 17.3414C9.84403 17.3228 9.75246 17.3001 9.66186 17.2724C9.57126 17.2451 9.4826 17.2132 9.39525 17.1771C9.3079 17.1407 9.22249 17.1004 9.13903 17.0558C9.05558 17.0112 8.97472 16.9628 8.89581 16.9101C8.81722 16.8577 8.74156 16.8015 8.66849 16.7413C8.5951 16.6814 8.52528 16.618 8.45839 16.551C8.39149 16.4843 8.32817 16.4144 8.26809 16.3412C8.20802 16.2681 8.15184 16.1923 8.09923 16.1136C8.04695 16.0352 7.99824 15.9539 7.95375 15.8706C7.90893 15.7873 7.86867 15.7018 7.83262 15.6146C7.79625 15.5271 7.76443 15.4383 7.73715 15.3476C7.70955 15.2572 7.68649 15.1655 7.66831 15.0728C7.6498 14.9801 7.63583 14.8867 7.62674 14.7927C7.61732 14.6984 7.61278 14.6041 7.61278 14.5098C7.61278 14.4151 7.61732 14.3208 7.62674 14.2265C7.63583 14.1325 7.6498 14.0391 7.66831 13.9464C7.68649 13.8537 7.70955 13.762 7.73715 13.6716C7.76443 13.5808 7.79625 13.4921 7.83262 13.4046C7.86867 13.3174 7.90893 13.2319 7.95375 13.1486C7.99824 13.0653 8.04695 12.9843 8.09923 12.9056C8.15184 12.8269 8.20802 12.7511 8.26809 12.678C8.32817 12.6048 8.39149 12.5348 8.45839 12.4682C8.52528 12.4012 8.5951 12.3377 8.66849 12.2779C8.74156 12.2177 8.81722 12.1615 8.89581 12.1091C8.97472 12.0564 9.05558 12.0079 9.13903 11.9634C9.22249 11.9188 9.3079 11.8785 9.39525 11.8421C9.4826 11.806 9.57126 11.7741 9.66186 11.7468C9.75246 11.7191 9.84403 11.6964 9.93691 11.6778C10.0295 11.6593 10.123 11.6456 10.2172 11.6362C10.311 11.6271 10.4055 11.6225 10.5 11.6225Z" fill="#2B2B2B"/>
<mask id="mask0_260_132" style="mask-type:luminance" maskUnits="userSpaceOnUse" x="0" y="4" width="21" height="29">
<path d="M0 4H20.99V33H0V4Z" fill="white"/>
</mask>
<g mask="url(#mask0_260_132)">
<path d="M10.1097 32.7947C10.1324 32.825 10.1581 32.8518 10.1873 32.8761C10.2159 32.8999 10.247 32.9201 10.2806 32.9368C10.3137 32.9535 10.3488 32.9662 10.3848 32.9748C10.4214 32.9834 10.4579 32.9879 10.495 32.9879C10.532 32.9879 10.5691 32.9834 10.6051 32.9748C10.6417 32.9662 10.6763 32.9535 10.7098 32.9368C10.7429 32.9201 10.7741 32.8999 10.8032 32.8761C10.8318 32.8518 10.8575 32.825 10.8807 32.7947L19.6495 20.027L19.6786 19.9825C19.7883 19.7791 19.8915 19.5727 19.9878 19.3628C20.0846 19.1529 20.1745 18.9399 20.2575 18.7239C20.3405 18.5084 20.417 18.2899 20.4862 18.0688C20.5553 17.8478 20.6176 17.6247 20.6724 17.4001C20.7277 17.175 20.7756 16.9483 20.8161 16.7197C20.8566 16.4916 20.8902 16.2624 20.9164 16.0317C20.9426 15.8016 20.9613 15.5704 20.9727 15.3387C20.9846 15.107 20.9885 14.8754 20.9851 14.6432C20.9821 14.4115 20.9717 14.1798 20.9534 13.9481C20.9357 13.717 20.9105 13.4868 20.8779 13.2571C20.8453 13.0275 20.8058 12.7994 20.7583 12.5722C20.7114 12.3451 20.6571 12.12 20.5958 11.8969C20.5346 11.6733 20.4664 11.4523 20.3909 11.2337C20.3158 11.0147 20.2333 10.7987 20.1444 10.5852C20.0555 10.3718 19.9597 10.1618 19.8574 9.95444C19.7547 9.74754 19.646 9.54419 19.5304 9.34438C19.4153 9.14457 19.2938 8.9488 19.1659 8.75709C19.0385 8.56537 18.9046 8.3782 18.7653 8.19508C18.6256 8.01247 18.4803 7.83441 18.3292 7.6609C18.1785 7.4879 18.022 7.31996 17.8605 7.15708C17.6989 6.99419 17.5325 6.83687 17.3611 6.68461C17.1892 6.53285 17.0134 6.38717 16.8321 6.24705C16.6513 6.10693 16.4666 5.97288 16.2769 5.84489C16.0877 5.71691 15.8946 5.59551 15.6975 5.48068C15.5005 5.36535 15.2999 5.25709 15.0959 5.15542C14.8924 5.05374 14.6855 4.95864 14.4756 4.87062C14.2656 4.78261 14.0528 4.70167 13.8379 4.62781C13.623 4.55396 13.4057 4.48719 13.1864 4.4275C12.9671 4.36831 12.7463 4.31621 12.5236 4.27119C12.3008 4.22617 12.077 4.18873 11.8523 4.15889C11.6271 4.12904 11.4013 4.10628 11.1751 4.09111C10.9484 4.07644 10.7222 4.06885 10.495 4.06885C10.2683 4.06885 10.0416 4.07644 9.81534 4.09111C9.58863 4.10628 9.36291 4.12904 9.13817 4.15889C8.91294 4.18873 8.68919 4.22617 8.46642 4.27119C8.24416 4.31621 8.02288 4.36831 7.80357 4.4275C7.58427 4.48719 7.36743 4.55396 7.15208 4.62781C6.93722 4.70167 6.72483 4.78261 6.51491 4.87062C6.30499 4.95864 6.09804 5.05374 5.89404 5.15542C5.69005 5.25709 5.48952 5.36535 5.29244 5.48068C5.09536 5.59551 4.90223 5.71691 4.71306 5.84489C4.52388 5.97288 4.33866 6.10693 4.15788 6.24705C3.97711 6.38717 3.80077 6.53285 3.62938 6.68461C3.45749 6.83687 3.29104 6.99419 3.12952 7.15708C2.96801 7.31996 2.81193 7.4879 2.66078 7.6609C2.51014 7.83441 2.36443 8.01247 2.22514 8.19508C2.08536 8.3782 1.952 8.56537 1.82407 8.75709C1.69614 8.9488 1.57464 9.14457 1.45955 9.34438C1.34397 9.54419 1.23531 9.74754 1.13306 9.95444C1.03033 10.1618 0.934997 10.3718 0.845596 10.5852C0.756689 10.7987 0.674697 11.0147 0.599126 11.2337C0.524049 11.4523 0.455392 11.6733 0.394145 11.8969C0.332898 12.12 0.278566 12.3451 0.231643 12.5722C0.184719 12.7994 0.144711 13.0275 0.112112 13.2571C0.0795125 13.4868 0.0543222 13.717 0.0365406 13.9481C0.0187593 14.1798 0.00789282 14.4115 0.00492918 14.6432C0.00147177 14.8754 0.00591713 15.107 0.0172775 15.3387C0.0286378 15.5704 0.0474072 15.8016 0.0735854 16.0317C0.0997636 16.2624 0.133351 16.4916 0.173853 16.7197C0.214849 16.9483 0.26276 17.175 0.317586 17.4001C0.372906 17.6247 0.434647 17.8478 0.504291 18.0688C0.573441 18.2899 0.649506 18.5084 0.732486 18.7239C0.815467 18.9399 0.905362 19.1529 1.00217 19.3628C1.09849 19.5727 1.20172 19.7791 1.31137 19.9825L1.34101 20.027L10.1097 32.7947ZM0.94537 14.7884C0.945864 14.6027 0.950803 14.4176 0.961176 14.2324C0.971548 14.0478 0.98686 13.8632 1.0076 13.679C1.02835 13.4949 1.05403 13.3113 1.08466 13.1287C1.11578 12.946 1.15183 12.7644 1.19233 12.5839C1.23333 12.4033 1.27927 12.2242 1.33063 12.0461C1.38151 11.8681 1.43732 11.692 1.49808 11.517C1.55883 11.3425 1.62452 11.17 1.69466 10.999C1.76529 10.828 1.84037 10.6596 1.91989 10.4932C1.99991 10.3267 2.08388 10.1628 2.17278 10.001C2.26169 9.83961 2.35504 9.68077 2.45284 9.52446C2.55064 9.36866 2.65288 9.21539 2.75908 9.06515C2.86527 8.91491 2.97591 8.76821 3.09001 8.62455C3.2046 8.48089 3.32314 8.34026 3.44514 8.20368C3.56764 8.0666 3.69359 7.93356 3.82349 7.80406C3.9529 7.67456 4.08626 7.54911 4.22308 7.4272C4.3599 7.30529 4.49968 7.18793 4.64292 7.07412C4.78616 6.9608 4.93236 6.85103 5.08202 6.74632C5.23119 6.64111 5.38332 6.54044 5.53841 6.44433C5.69351 6.34822 5.85058 6.25615 6.01061 6.16915C6.17114 6.08214 6.33315 6.00019 6.49812 5.92229C6.6626 5.84489 6.82905 5.77205 6.99797 5.70427C7.1664 5.63648 7.3373 5.57325 7.50919 5.51558C7.68157 5.45741 7.85494 5.4048 8.03029 5.35675C8.20563 5.30869 8.38196 5.2662 8.55928 5.22877C8.7366 5.19083 8.91541 5.15845 9.0947 5.13164C9.274 5.10433 9.45379 5.08207 9.63457 5.06538C9.81485 5.04868 9.99563 5.03755 10.1769 5.03148C10.3582 5.02491 10.5394 5.0244 10.7207 5.02845C10.902 5.033 11.0828 5.04261 11.2635 5.05779C11.4443 5.07246 11.6246 5.09269 11.8039 5.11799C11.9837 5.14328 12.1625 5.17413 12.3403 5.21005C12.5181 5.24546 12.6949 5.28643 12.8703 5.33297C13.0461 5.379 13.22 5.4301 13.3929 5.48625C13.5657 5.54239 13.7366 5.6036 13.9061 5.66987C14.0755 5.73614 14.2429 5.80746 14.4079 5.88334C14.5734 5.95922 14.7364 6.03965 14.8974 6.12514C15.0584 6.21063 15.2165 6.30067 15.3725 6.39577C15.5286 6.49036 15.6817 6.58951 15.8319 6.6927C15.982 6.7964 16.1297 6.90415 16.274 7.01645C16.4182 7.12875 16.5594 7.24509 16.6973 7.36549C16.8351 7.48588 16.9694 7.61032 17.1003 7.7383C17.2312 7.86628 17.3586 7.99831 17.4821 8.13388C17.6056 8.26944 17.7251 8.40855 17.8412 8.5512C17.9568 8.69385 18.0689 8.84005 18.1766 8.98877C18.2842 9.13799 18.3875 9.29025 18.4868 9.44504C18.586 9.60034 18.6809 9.75817 18.7713 9.91903C18.8617 10.0794 18.9476 10.2428 19.0291 10.4082C19.1106 10.5741 19.1872 10.742 19.2593 10.912C19.3309 11.082 19.3986 11.2545 19.4608 11.4285C19.523 11.6025 19.5808 11.778 19.6332 11.9556C19.686 12.1326 19.7334 12.3117 19.7764 12.4918C19.8189 12.6719 19.8564 12.853 19.889 13.0356C19.9216 13.2177 19.9493 13.4008 19.9715 13.5849C19.9937 13.7691 20.011 13.9532 20.0234 14.1383C20.0352 14.3235 20.0421 14.5086 20.0441 14.6938C20.0461 14.8789 20.0426 15.0646 20.0337 15.2497C20.0253 15.4348 20.012 15.6195 19.9927 15.8036C19.974 15.9882 19.9503 16.1719 19.9211 16.355C19.892 16.5376 19.8579 16.7197 19.8189 16.9008C19.7794 17.0819 19.7354 17.2615 19.686 17.44C19.6371 17.6181 19.5828 17.7951 19.524 17.9702C19.4647 18.1457 19.401 18.3192 19.3324 18.4907C19.2632 18.6622 19.1901 18.8316 19.1121 18.9986C19.0335 19.166 18.9511 19.3309 18.8636 19.4933L10.495 31.6772L2.12635 19.4933C1.73911 18.7725 1.44572 18.0137 1.24568 17.217C1.04564 16.4202 0.945864 15.6109 0.94537 14.7884Z" fill="#2B2B2B"/>
</g>
<circle cx="18.5" cy="6.5" r="6.5" fill="#68B19F"/>
<rect x="18" y="3" width="1" height="7" fill="#F7F9F2"/>
<rect x="22" y="6" width="1" height="7" transform="rotate(90 22 6)" fill="#F7F9F2"/>
</svg>
