<svg width="37" height="38" viewBox="0 0 37 38" fill="none" xmlns="http://www.w3.org/2000/svg">
<path opacity="0.25" fill-rule="evenodd" clip-rule="evenodd" d="M18.5 36.73C28.165 36.73 36 28.895 36 19.23C36 9.565 28.165 1.72998 18.5 1.72998C8.83502 1.72998 1 9.565 1 19.23C1 28.895 8.83502 36.73 18.5 36.73Z" stroke="white" stroke-width="1.5"/>
<path d="M14.4837 15.6971C15.303 15.6971 15.9672 15.0329 15.9672 14.2135C15.9672 13.3942 15.303 12.73 14.4837 12.73C13.6643 12.73 13.0001 13.3942 13.0001 14.2135C13.0001 15.0329 13.6643 15.6971 14.4837 15.6971Z" fill="white"/>
<path d="M15.7198 16.6881H13.2473C13.1108 16.6881 13 16.7989 13 16.9354V24.3531C13 24.4896 13.1108 24.6004 13.2473 24.6004H15.7198C15.8563 24.6004 15.9671 24.4896 15.9671 24.3531V16.9354C15.9671 16.7989 15.8563 16.6881 15.7198 16.6881Z" fill="white"/>
<path d="M23.0882 16.2767C22.0314 15.9148 20.7095 16.2327 19.9168 16.8029C19.8896 16.6966 19.7927 16.6175 19.6775 16.6175H17.2049C17.0684 16.6175 16.9576 16.7282 16.9576 16.8647V24.2825C16.9576 24.419 17.0684 24.5297 17.2049 24.5297H19.6775C19.814 24.5297 19.9247 24.419 19.9247 24.2825V18.9516C20.3243 18.6074 20.8391 18.4976 21.2604 18.6766C21.6689 18.8492 21.9028 19.2706 21.9028 19.8318V24.2825C21.9028 24.419 22.0136 24.5297 22.1501 24.5297H24.6227C24.7591 24.5297 24.8699 24.419 24.8699 24.2825V19.3338C24.8417 17.3019 23.8858 16.5497 23.0882 16.2767Z" fill="white"/>
</svg>
