<svg width="71" height="73" viewBox="0 0 71 73" fill="none" xmlns="http://www.w3.org/2000/svg">
<g filter="url(#filter0_d_302_2)">
<circle cx="35.7188" cy="26.9546" r="26.5" fill="white"/>
</g>
<path d="M30.8509 33.3026C30.6483 33.3026 30.4452 33.2253 30.2906 33.0707C28.8068 31.5851 27.9893 29.6104 27.9893 27.5099C27.9893 25.4094 28.8068 23.4341 30.2906 21.9486C30.5998 21.6394 31.1014 21.6394 31.4106 21.9486C31.7198 22.2583 31.7198 22.7599 31.4106 23.0696C30.2258 24.2556 29.573 25.8325 29.573 27.5099C29.573 29.1867 30.2258 30.7636 31.4106 31.9496C31.7198 32.2593 31.7198 32.7609 31.4106 33.0707C31.256 33.2253 31.0534 33.3026 30.8509 33.3026Z" fill="black"/>
<path d="M40.8976 33.2467C40.6979 33.2467 40.4982 33.1717 40.3441 33.021C40.0316 32.7147 40.0259 32.2131 40.3317 31.8999C41.4855 30.7202 42.1203 29.1607 42.1203 27.5099C42.1203 25.806 41.45 24.2121 40.2336 23.0205C39.921 22.7147 39.9154 22.2126 40.2212 21.9C40.5269 21.5875 41.028 21.5813 41.3411 21.8876C42.865 23.3799 43.704 25.3761 43.704 27.5099C43.704 29.5777 42.9084 31.5304 41.4635 33.0086C41.3089 33.1671 41.1036 33.2467 40.8976 33.2467Z" fill="black"/>
<path d="M28.7283 35.3162C28.5235 35.3162 28.3193 35.2372 28.1641 35.0798C26.1663 33.0486 25.0656 30.3602 25.0656 27.5099C25.0656 24.6274 26.1872 21.9175 28.2234 19.8796C28.5331 19.5699 29.0341 19.5704 29.3433 19.8796C29.6525 20.1894 29.6525 20.6909 29.3433 21.0007C27.6062 22.739 26.6493 25.0505 26.6493 27.5099C26.6493 29.9416 27.5881 32.2351 29.2925 33.9677C29.5995 34.2797 29.5955 34.7813 29.2841 35.0888C29.1295 35.2406 28.9292 35.3162 28.7283 35.3162Z" fill="black"/>
<path d="M42.9654 35.3156C42.7651 35.3156 42.5643 35.24 42.4102 35.0882C42.0982 34.7813 42.0943 34.2792 42.4012 33.9672C44.1057 32.2345 45.0439 29.941 45.0439 27.5099C45.0439 25.0234 44.0696 22.6944 42.2991 20.9499C41.9877 20.643 41.9837 20.1409 42.2906 19.8294C42.5976 19.5174 43.0986 19.5135 43.4106 19.8204C45.4851 21.865 46.6277 24.5958 46.6277 27.5099C46.6277 30.3597 45.5275 33.0481 43.5296 35.0792C43.375 35.2366 43.1702 35.3156 42.9654 35.3156Z" fill="black"/>
<path d="M26.6617 37.3862C26.4574 37.3862 26.2532 37.3072 26.098 37.1504C23.5473 34.5663 22.1424 31.1428 22.1424 27.5099C22.1424 23.8459 23.5676 20.4009 26.1562 17.8107C26.4653 17.5009 26.9663 17.5009 27.2761 17.8107C27.5853 18.1199 27.5853 18.6214 27.2761 18.9312C24.9866 21.2224 23.7261 24.2691 23.7261 27.5099C23.7261 30.723 24.9685 33.7511 27.2248 36.0366C27.5322 36.3475 27.5289 36.8497 27.218 37.1571C27.064 37.31 26.8625 37.3862 26.6617 37.3862Z" fill="black"/>
<path d="M45.0327 37.3856C44.8312 37.3856 44.6304 37.3095 44.4758 37.1566C44.1649 36.8491 44.1621 36.347 44.469 36.0361C46.7253 33.7505 47.9676 30.7224 47.9676 27.5099C47.9676 24.242 46.6886 21.1773 44.3658 18.8798C44.0549 18.5724 44.0521 18.0702 44.3596 17.7588C44.6665 17.4473 45.1681 17.4451 45.4789 17.7526C48.1053 20.3501 49.5513 23.8149 49.5513 27.5099C49.5513 31.1422 48.1465 34.5663 45.5957 37.1498C45.4411 37.3067 45.2369 37.3856 45.0327 37.3856Z" fill="black"/>
<mask id="mask0_302_2" style="mask-type:luminance" maskUnits="userSpaceOnUse" x="19" y="15" width="7" height="25">
<path d="M19.2188 15.4636H25.4583V39.4546H19.2188V15.4636Z" fill="white"/>
</mask>
<g mask="url(#mask0_302_2)">
<path d="M24.5933 39.454C24.3897 39.454 24.1854 39.3762 24.0308 39.2193C20.9277 36.0829 19.2188 31.9242 19.2188 27.5099C19.2188 23.0646 20.948 18.885 24.0889 15.7412C24.3981 15.432 24.8997 15.432 25.2089 15.7412C25.5181 16.051 25.5181 16.5525 25.2089 16.8623C22.367 19.7059 20.8025 23.4877 20.8025 27.5099C20.8025 31.5039 22.3484 35.2665 25.1558 38.1039C25.4639 38.4153 25.4611 38.9169 25.1502 39.225C24.9962 39.3779 24.7948 39.454 24.5933 39.454Z" fill="black"/>
</g>
<mask id="mask1_302_2" style="mask-type:luminance" maskUnits="userSpaceOnUse" x="46" y="15" width="7" height="25">
<path d="M46.156 15.4546H52.475V39.4546H46.156V15.4546Z" fill="white"/>
</mask>
<g mask="url(#mask1_302_2)">
<path d="M47.0999 39.4546C46.8985 39.4546 46.697 39.3784 46.543 39.225C46.2321 38.9175 46.2293 38.4153 46.5374 38.1044C49.3448 35.2665 50.8913 31.5039 50.8913 27.5099C50.8913 23.46 49.3082 19.6601 46.433 16.8104C46.1221 16.5023 46.1199 16.0002 46.4273 15.6899C46.7348 15.3784 47.2364 15.3762 47.5473 15.6842C50.7249 18.8341 52.475 23.0341 52.475 27.5099C52.475 31.9242 50.7661 36.0829 47.6624 39.2199C47.5078 39.3762 47.3036 39.4546 47.0999 39.4546Z" fill="black"/>
</g>
<path d="M39.2298 27.5646C39.2298 29.4502 37.7025 30.9786 35.8192 30.9786C33.9354 30.9786 32.4081 29.4502 32.4081 27.5646C32.4081 25.6791 33.9354 24.1506 35.8192 24.1506C37.7025 24.1506 39.2298 25.6791 39.2298 27.5646Z" fill="black"/>
<defs>
<filter id="filter0_d_302_2" x="0.456084" y="0.45459" width="70.5253" height="71.656" filterUnits="userSpaceOnUse" color-interpolation-filters="sRGB">
<feFlood flood-opacity="0" result="BackgroundImageFix"/>
<feColorMatrix in="SourceAlpha" type="matrix" values="0 0 0 0 0 0 0 0 0 0 0 0 0 0 0 0 0 0 127 0" result="hardAlpha"/>
<feMorphology radius="7.77333" operator="erode" in="SourceAlpha" result="effect1_dropShadow_302_2"/>
<feOffset dy="9.89333"/>
<feGaussianBlur stdDeviation="8.268"/>
<feComposite in2="hardAlpha" operator="out"/>
<feColorMatrix type="matrix" values="0 0 0 0 0 0 0 0 0 0 0 0 0 0 0 0 0 0 0.25 0"/>
<feBlend mode="normal" in2="BackgroundImageFix" result="effect1_dropShadow_302_2"/>
<feBlend mode="normal" in="SourceGraphic" in2="effect1_dropShadow_302_2" result="shape"/>
</filter>
</defs>
</svg>
