<svg xmlns="http://www.w3.org/2000/svg" xmlns:xlink="http://www.w3.org/1999/xlink" width="246" zoomAndPan="magnify" viewBox="0 0 184.5 231" height="308" preserveAspectRatio="xMidYMid meet" version="1.0"><defs><clipPath id="ccd873549a"><path d="M 9 6 L 175 6 L 175 229.941406 L 9 229.941406 Z M 9 6 " clip-rule="nonzero"/></clipPath></defs><path fill="#000000" d="M 92 131.347656 C 93.378906 131.347656 94.753906 131.277344 96.128906 131.144531 C 97.5 131.007812 98.863281 130.808594 100.214844 130.539062 C 101.566406 130.269531 102.902344 129.9375 104.222656 129.535156 C 105.542969 129.136719 106.839844 128.671875 108.113281 128.148438 C 109.386719 127.621094 110.632812 127.03125 111.847656 126.382812 C 113.0625 125.734375 114.246094 125.027344 115.390625 124.261719 C 116.539062 123.496094 117.644531 122.679688 118.710938 121.804688 C 119.777344 120.933594 120.796875 120.007812 121.773438 119.035156 C 122.746094 118.0625 123.671875 117.042969 124.546875 115.976562 C 125.421875 114.914062 126.242188 113.808594 127.007812 112.664062 C 127.773438 111.519531 128.480469 110.339844 129.132812 109.128906 C 129.78125 107.914062 130.371094 106.667969 130.898438 105.398438 C 131.425781 104.125 131.890625 102.832031 132.289062 101.515625 C 132.691406 100.195312 133.023438 98.863281 133.292969 97.511719 C 133.5625 96.164062 133.765625 94.800781 133.902344 93.433594 C 134.035156 92.0625 134.101562 90.6875 134.101562 89.3125 C 134.101562 87.933594 134.035156 86.5625 133.902344 85.191406 C 133.765625 83.820312 133.5625 82.460938 133.292969 81.113281 C 133.023438 79.761719 132.691406 78.425781 132.289062 77.109375 C 131.890625 75.792969 131.425781 74.5 130.898438 73.226562 C 130.371094 71.953125 129.78125 70.710938 129.132812 69.496094 C 128.480469 68.285156 127.773438 67.105469 127.007812 65.960938 C 126.242188 64.816406 125.421875 63.710938 124.546875 62.644531 C 123.671875 61.582031 122.746094 60.5625 121.773438 59.589844 C 120.796875 58.617188 119.777344 57.691406 118.710938 56.820312 C 117.644531 55.945312 116.539062 55.125 115.390625 54.363281 C 114.246094 53.597656 113.0625 52.890625 111.847656 52.242188 C 110.632812 51.59375 109.386719 51.003906 108.113281 50.476562 C 106.839844 49.949219 105.542969 49.488281 104.222656 49.089844 C 102.902344 48.6875 101.566406 48.355469 100.214844 48.085938 C 98.863281 47.816406 97.5 47.617188 96.128906 47.480469 C 94.753906 47.34375 93.378906 47.277344 92 47.277344 C 90.621094 47.277344 89.246094 47.34375 87.875 47.480469 C 86.5 47.617188 85.140625 47.816406 83.785156 48.085938 C 82.433594 48.355469 81.097656 48.6875 79.777344 49.089844 C 78.460938 49.488281 77.164062 49.949219 75.886719 50.476562 C 74.613281 51.003906 73.371094 51.59375 72.152344 52.242188 C 70.9375 52.890625 69.757812 53.597656 68.609375 54.363281 C 67.464844 55.125 66.355469 55.945312 65.292969 56.820312 C 64.226562 57.691406 63.203125 58.617188 62.230469 59.589844 C 61.253906 60.5625 60.328125 61.582031 59.453125 62.644531 C 58.582031 63.710938 57.757812 64.816406 56.992188 65.960938 C 56.226562 67.105469 55.519531 68.285156 54.871094 69.496094 C 54.21875 70.710938 53.628906 71.953125 53.101562 73.226562 C 52.574219 74.5 52.109375 75.792969 51.710938 77.109375 C 51.3125 78.425781 50.976562 79.761719 50.707031 81.113281 C 50.4375 82.460938 50.234375 83.820312 50.101562 85.191406 C 49.964844 86.5625 49.898438 87.933594 49.898438 89.3125 C 49.902344 90.6875 49.96875 92.0625 50.109375 93.429688 C 50.246094 94.800781 50.449219 96.15625 50.71875 97.507812 C 50.992188 98.855469 51.328125 100.1875 51.726562 101.503906 C 52.128906 102.820312 52.59375 104.117188 53.125 105.386719 C 53.652344 106.65625 54.242188 107.898438 54.890625 109.113281 C 55.542969 110.324219 56.25 111.503906 57.015625 112.648438 C 57.785156 113.789062 58.605469 114.894531 59.476562 115.957031 C 60.351562 117.019531 61.277344 118.039062 62.253906 119.011719 C 63.226562 119.984375 64.246094 120.910156 65.3125 121.78125 C 66.375 122.65625 67.480469 123.472656 68.628906 124.238281 C 69.773438 125.003906 70.953125 125.710938 72.167969 126.359375 C 73.382812 127.011719 74.628906 127.597656 75.902344 128.125 C 77.171875 128.652344 78.46875 129.117188 79.789062 129.519531 C 81.105469 129.921875 82.441406 130.253906 83.792969 130.527344 C 85.144531 130.796875 86.503906 131 87.875 131.136719 C 89.246094 131.273438 90.621094 131.34375 92 131.347656 Z M 92 54.753906 C 93.136719 54.753906 94.273438 54.808594 95.40625 54.917969 C 96.535156 55.03125 97.660156 55.195312 98.777344 55.417969 C 99.890625 55.640625 100.996094 55.914062 102.082031 56.246094 C 103.171875 56.574219 104.242188 56.957031 105.292969 57.390625 C 106.34375 57.828125 107.371094 58.3125 108.375 58.847656 C 109.375 59.382812 110.351562 59.964844 111.296875 60.597656 C 112.242188 61.226562 113.15625 61.902344 114.035156 62.625 C 114.914062 63.34375 115.753906 64.105469 116.558594 64.910156 C 117.363281 65.710938 118.128906 66.550781 118.847656 67.429688 C 119.570312 68.308594 120.246094 69.21875 120.878906 70.164062 C 121.511719 71.109375 122.09375 72.082031 122.632812 73.082031 C 123.167969 74.082031 123.652344 75.109375 124.089844 76.15625 C 124.523438 77.207031 124.90625 78.273438 125.238281 79.363281 C 125.566406 80.449219 125.84375 81.550781 126.066406 82.664062 C 126.285156 83.777344 126.453125 84.898438 126.566406 86.027344 C 126.675781 87.160156 126.734375 88.292969 126.734375 89.429688 C 126.734375 90.5625 126.675781 91.695312 126.566406 92.828125 C 126.453125 93.957031 126.285156 95.078125 126.066406 96.191406 C 125.84375 97.304688 125.566406 98.40625 125.238281 99.492188 C 124.90625 100.582031 124.523438 101.648438 124.089844 102.699219 C 123.652344 103.746094 123.167969 104.773438 122.632812 105.773438 C 122.09375 106.773438 121.511719 107.75 120.878906 108.691406 C 120.246094 109.636719 119.570312 110.546875 118.847656 111.425781 C 118.128906 112.304688 117.363281 113.144531 116.558594 113.945312 C 115.753906 114.75 114.914062 115.511719 114.035156 116.230469 C 113.15625 116.953125 112.242188 117.628906 111.296875 118.257812 C 110.351562 118.890625 109.375 119.472656 108.375 120.007812 C 107.371094 120.542969 106.34375 121.027344 105.292969 121.464844 C 104.242188 121.898438 103.171875 122.28125 102.082031 122.609375 C 100.996094 122.941406 99.890625 123.214844 98.777344 123.4375 C 97.660156 123.660156 96.535156 123.824219 95.40625 123.9375 C 94.273438 124.046875 93.136719 124.101562 92 124.101562 C 90.863281 124.101562 89.726562 124.046875 88.597656 123.9375 C 87.464844 123.824219 86.339844 123.660156 85.226562 123.4375 C 84.109375 123.214844 83.007812 122.941406 81.917969 122.609375 C 80.828125 122.28125 79.761719 121.898438 78.710938 121.464844 C 77.660156 121.027344 76.632812 120.542969 75.628906 120.007812 C 74.625 119.472656 73.652344 118.890625 72.703125 118.257812 C 71.757812 117.628906 70.847656 116.953125 69.96875 116.230469 C 69.085938 115.511719 68.246094 114.75 67.441406 113.945312 C 66.636719 113.144531 65.875 112.304688 65.152344 111.425781 C 64.429688 110.546875 63.753906 109.636719 63.121094 108.691406 C 62.492188 107.75 61.90625 106.773438 61.371094 105.773438 C 60.832031 104.773438 60.347656 103.746094 59.914062 102.699219 C 59.476562 101.648438 59.09375 100.582031 58.765625 99.492188 C 58.433594 98.40625 58.15625 97.304688 57.9375 96.191406 C 57.714844 95.078125 57.546875 93.957031 57.4375 92.828125 C 57.324219 91.695312 57.269531 90.5625 57.269531 89.429688 C 57.269531 88.292969 57.324219 87.160156 57.4375 86.027344 C 57.546875 84.898438 57.714844 83.777344 57.9375 82.664062 C 58.15625 81.550781 58.433594 80.449219 58.765625 79.363281 C 59.09375 78.273438 59.476562 77.207031 59.914062 76.15625 C 60.347656 75.109375 60.832031 74.082031 61.371094 73.082031 C 61.90625 72.082031 62.492188 71.109375 63.121094 70.164062 C 63.753906 69.21875 64.429688 68.308594 65.152344 67.429688 C 65.875 66.550781 66.636719 65.710938 67.441406 64.910156 C 68.246094 64.105469 69.085938 63.34375 69.96875 62.625 C 70.847656 61.902344 71.757812 61.226562 72.703125 60.597656 C 73.652344 59.964844 74.625 59.382812 75.628906 58.847656 C 76.632812 58.3125 77.660156 57.828125 78.710938 57.390625 C 79.761719 56.957031 80.828125 56.574219 81.917969 56.246094 C 83.007812 55.914062 84.109375 55.640625 85.226562 55.417969 C 86.339844 55.195312 87.464844 55.03125 88.597656 54.917969 C 89.726562 54.808594 90.863281 54.753906 92 54.753906 Z M 92 54.753906 " fill-opacity="1" fill-rule="nonzero"/><g clip-path="url(#ccd873549a)"><path fill="#000000" d="M 88.953125 228.359375 C 89.132812 228.59375 89.335938 228.800781 89.566406 228.988281 C 89.792969 229.171875 90.039062 229.328125 90.304688 229.457031 C 90.566406 229.585938 90.84375 229.683594 91.128906 229.75 C 91.417969 229.816406 91.707031 229.851562 92 229.851562 C 92.292969 229.851562 92.585938 229.816406 92.871094 229.75 C 93.160156 229.683594 93.433594 229.585938 93.699219 229.457031 C 93.960938 229.328125 94.207031 229.171875 94.4375 228.988281 C 94.664062 228.800781 94.867188 228.59375 95.050781 228.359375 L 164.398438 129.765625 L 164.628906 129.421875 C 165.496094 127.851562 166.3125 126.257812 167.074219 124.636719 C 167.839844 123.015625 168.550781 121.371094 169.207031 119.703125 C 169.863281 118.039062 170.46875 116.351562 171.015625 114.644531 C 171.5625 112.9375 172.054688 111.214844 172.488281 109.480469 C 172.925781 107.742188 173.304688 105.992188 173.625 104.226562 C 173.945312 102.464844 174.210938 100.695312 174.417969 98.914062 C 174.625 97.136719 174.773438 95.351562 174.863281 93.5625 C 174.957031 91.773438 174.988281 89.984375 174.960938 88.191406 C 174.9375 86.402344 174.855469 84.613281 174.710938 82.824219 C 174.570312 81.039062 174.371094 79.261719 174.113281 77.488281 C 173.855469 75.714844 173.542969 73.953125 173.167969 72.199219 C 172.796875 70.445312 172.367188 68.707031 171.882812 66.984375 C 171.398438 65.257812 170.859375 63.550781 170.261719 61.863281 C 169.667969 60.171875 169.015625 58.503906 168.3125 56.855469 C 167.609375 55.207031 166.851562 53.585938 166.042969 51.984375 C 165.230469 50.386719 164.371094 48.816406 163.457031 47.273438 C 162.546875 45.730469 161.585938 44.21875 160.574219 42.738281 C 159.566406 41.257812 158.507812 39.8125 157.40625 38.398438 C 156.300781 36.988281 155.152344 35.613281 153.957031 34.273438 C 152.765625 32.9375 151.527344 31.640625 150.25 30.382812 C 148.972656 29.125 147.65625 27.910156 146.300781 26.734375 C 144.941406 25.5625 143.550781 24.4375 142.117188 23.355469 C 140.6875 22.273438 139.226562 21.238281 137.726562 20.25 C 136.230469 19.261719 134.703125 18.324219 133.144531 17.4375 C 131.585938 16.546875 130 15.710938 128.386719 14.925781 C 126.777344 14.140625 125.140625 13.40625 123.480469 12.726562 C 121.820312 12.046875 120.136719 11.421875 118.4375 10.851562 C 116.738281 10.28125 115.019531 9.765625 113.285156 9.304688 C 111.550781 8.847656 109.804688 8.445312 108.042969 8.097656 C 106.28125 7.75 104.511719 7.460938 102.734375 7.230469 C 100.953125 7 99.167969 6.824219 97.378906 6.707031 C 95.585938 6.59375 93.796875 6.535156 92 6.535156 C 90.207031 6.535156 88.414062 6.59375 86.625 6.707031 C 84.832031 6.824219 83.046875 7 81.269531 7.230469 C 79.488281 7.460938 77.71875 7.75 75.957031 8.097656 C 74.199219 8.445312 72.449219 8.847656 70.714844 9.304688 C 68.980469 9.765625 67.265625 10.28125 65.5625 10.851562 C 63.863281 11.421875 62.183594 12.046875 60.523438 12.726562 C 58.863281 13.40625 57.226562 14.140625 55.613281 14.925781 C 54 15.710938 52.414062 16.546875 50.855469 17.4375 C 49.296875 18.324219 47.769531 19.261719 46.273438 20.25 C 44.777344 21.238281 43.3125 22.273438 41.882812 23.355469 C 40.453125 24.4375 39.058594 25.5625 37.703125 26.734375 C 36.34375 27.910156 35.027344 29.125 33.75 30.382812 C 32.472656 31.640625 31.238281 32.9375 30.042969 34.273438 C 28.851562 35.613281 27.699219 36.988281 26.597656 38.398438 C 25.492188 39.8125 24.4375 41.257812 23.425781 42.738281 C 22.414062 44.21875 21.453125 45.730469 20.542969 47.273438 C 19.628906 48.816406 18.769531 50.386719 17.960938 51.984375 C 17.148438 53.585938 16.394531 55.207031 15.6875 56.855469 C 14.984375 58.503906 14.335938 60.171875 13.738281 61.863281 C 13.144531 63.550781 12.601562 65.257812 12.117188 66.984375 C 11.632812 68.707031 11.203125 70.445312 10.832031 72.199219 C 10.460938 73.953125 10.144531 75.714844 9.886719 77.488281 C 9.628906 79.261719 9.429688 81.039062 9.289062 82.824219 C 9.148438 84.613281 9.0625 86.402344 9.039062 88.191406 C 9.011719 89.984375 9.046875 91.773438 9.136719 93.5625 C 9.226562 95.351562 9.375 97.136719 9.582031 98.914062 C 9.789062 100.695312 10.054688 102.464844 10.375 104.226562 C 10.699219 105.992188 11.078125 107.742188 11.511719 109.480469 C 11.949219 111.214844 12.4375 112.9375 12.988281 114.644531 C 13.535156 116.351562 14.136719 118.039062 14.792969 119.703125 C 15.449219 121.371094 16.160156 123.015625 16.925781 124.636719 C 17.6875 126.257812 18.503906 127.851562 19.371094 129.421875 L 19.605469 129.765625 Z M 16.476562 89.3125 C 16.480469 87.878906 16.519531 86.449219 16.601562 85.019531 C 16.683594 83.59375 16.804688 82.167969 16.96875 80.746094 C 17.132812 79.324219 17.335938 77.90625 17.578125 76.496094 C 17.824219 75.085938 18.109375 73.683594 18.429688 72.289062 C 18.753906 70.894531 19.117188 69.511719 19.523438 68.136719 C 19.925781 66.761719 20.367188 65.402344 20.847656 64.050781 C 21.328125 62.703125 21.847656 61.371094 22.402344 60.050781 C 22.960938 58.730469 23.554688 57.429688 24.183594 56.144531 C 24.816406 54.859375 25.480469 53.59375 26.183594 52.34375 C 26.886719 51.097656 27.625 49.871094 28.398438 48.664062 C 29.171875 47.460938 29.980469 46.277344 30.820312 45.117188 C 31.660156 43.957031 32.535156 42.824219 33.4375 41.714844 C 34.34375 40.605469 35.28125 39.519531 36.246094 38.464844 C 37.214844 37.40625 38.210938 36.378906 39.238281 35.378906 C 40.261719 34.378906 41.316406 33.410156 42.398438 32.46875 C 43.480469 31.527344 44.585938 30.621094 45.71875 29.742188 C 46.851562 28.867188 48.007812 28.019531 49.191406 27.210938 C 50.371094 26.398438 51.574219 25.621094 52.800781 24.878906 C 54.027344 24.136719 55.269531 23.425781 56.535156 22.753906 C 57.804688 22.082031 59.085938 21.449219 60.390625 20.847656 C 61.691406 20.25 63.007812 19.6875 64.34375 19.164062 C 65.675781 18.640625 67.027344 18.152344 68.386719 17.707031 C 69.75 17.257812 71.121094 16.851562 72.507812 16.480469 C 73.894531 16.109375 75.289062 15.78125 76.691406 15.492188 C 78.09375 15.199219 79.507812 14.949219 80.925781 14.742188 C 82.34375 14.53125 83.765625 14.359375 85.195312 14.230469 C 86.621094 14.101562 88.050781 14.015625 89.484375 13.96875 C 90.917969 13.917969 92.351562 13.914062 93.785156 13.945312 C 95.21875 13.980469 96.648438 14.054688 98.078125 14.171875 C 99.507812 14.285156 100.933594 14.441406 102.351562 14.636719 C 103.773438 14.832031 105.1875 15.070312 106.59375 15.347656 C 108 15.621094 109.398438 15.9375 110.785156 16.296875 C 112.175781 16.652344 113.550781 17.046875 114.917969 17.480469 C 116.285156 17.914062 117.636719 18.386719 118.976562 18.898438 C 120.316406 19.410156 121.640625 19.960938 122.945312 20.546875 C 124.253906 21.132812 125.542969 21.753906 126.816406 22.414062 C 128.089844 23.074219 129.339844 23.769531 130.574219 24.503906 C 131.808594 25.234375 133.019531 26 134.207031 26.796875 C 135.394531 27.597656 136.5625 28.429688 137.703125 29.296875 C 138.84375 30.164062 139.960938 31.0625 141.050781 31.992188 C 142.140625 32.921875 143.203125 33.882812 144.238281 34.871094 C 145.273438 35.859375 146.28125 36.878906 147.257812 37.925781 C 148.234375 38.972656 149.179688 40.046875 150.097656 41.148438 C 151.011719 42.25 151.898438 43.378906 152.75 44.527344 C 153.601562 45.679688 154.417969 46.855469 155.203125 48.050781 C 155.988281 49.25 156.738281 50.46875 157.453125 51.710938 C 158.167969 52.949219 158.847656 54.210938 159.492188 55.488281 C 160.136719 56.769531 160.742188 58.066406 161.3125 59.378906 C 161.878906 60.691406 162.414062 62.023438 162.90625 63.367188 C 163.398438 64.710938 163.855469 66.066406 164.269531 67.4375 C 164.6875 68.804688 165.0625 70.1875 165.402344 71.578125 C 165.738281 72.96875 166.035156 74.367188 166.292969 75.777344 C 166.550781 77.183594 166.769531 78.597656 166.945312 80.019531 C 167.121094 81.441406 167.257812 82.863281 167.355469 84.292969 C 167.449219 85.722656 167.503906 87.152344 167.519531 88.582031 C 167.535156 90.011719 167.507812 91.445312 167.4375 92.875 C 167.371094 94.304688 167.265625 95.730469 167.113281 97.152344 C 166.964844 98.578125 166.777344 99.996094 166.546875 101.410156 C 166.316406 102.820312 166.046875 104.226562 165.738281 105.625 C 165.425781 107.023438 165.078125 108.410156 164.6875 109.789062 C 164.300781 111.164062 163.871094 112.53125 163.40625 113.882812 C 162.9375 115.238281 162.433594 116.578125 161.890625 117.902344 C 161.34375 119.226562 160.765625 120.535156 160.148438 121.824219 C 159.527344 123.117188 158.875 124.390625 158.183594 125.644531 L 92 219.730469 L 25.816406 125.644531 C 22.753906 120.078125 20.433594 114.21875 18.851562 108.066406 C 17.269531 101.914062 16.480469 95.664062 16.476562 89.3125 Z M 16.476562 89.3125 " fill-opacity="1" fill-rule="nonzero"/></g></svg>