<svg xmlns="http://www.w3.org/2000/svg" xmlns:xlink="http://www.w3.org/1999/xlink" width="308" zoomAndPan="magnify" viewBox="0 0 230.87999 162.749997" height="217" preserveAspectRatio="xMidYMid meet" version="1.0"><path fill="#fe3428" d="M 207.191406 -0.0585938 L 14.566406 -0.0585938 C 2.105469 -0.0585938 0.238281 5.835938 10.417969 13.042969 L 50.0625 41.105469 L 45.105469 45.230469 C 43.601562 46.480469 42.664062 48.273438 42.484375 50.21875 C 42.304688 52.164062 42.90625 54.097656 44.152344 55.601562 L 52.242188 65.339844 C 54.808594 68.433594 59.367188 68.882812 62.480469 66.367188 L 62.347656 112.425781 C 62.339844 114.382812 63.109375 116.257812 64.484375 117.640625 C 65.863281 119.027344 67.726562 119.808594 69.679688 119.808594 L 82.328125 119.816406 C 86.378906 119.816406 89.660156 116.535156 89.671875 112.480469 L 89.6875 107.503906 C 91.3125 107 93.035156 106.464844 94.824219 105.90625 C 96.046875 108.101562 97.554688 110.132812 99.316406 111.914062 C 104.21875 116.851562 110.632812 119.578125 117.402344 119.589844 L 121.433594 119.589844 C 121.449219 119.589844 121.59375 119.589844 121.609375 119.589844 C 130.6875 119.589844 138.710938 114.671875 143.429688 107.222656 C 146.335938 113.800781 152.351562 118.367188 159.253906 118.398438 L 211.339844 155.269531 C 221.519531 162.472656 229.847656 158.144531 229.847656 145.652344 L 229.847656 22.65625 C 229.84375 10.164062 219.652344 -0.0585938 207.191406 -0.0585938 Z M 207.191406 -0.0585938 " fill-opacity="1" fill-rule="nonzero"/><path fill="#ffffff" d="M 159.316406 62.59375 C 155.253906 62.523438 152.035156 59.148438 152.109375 55.058594 C 152.199219 51.011719 155.601562 47.765625 159.644531 47.863281 C 163.710938 47.980469 166.960938 51.316406 166.855469 55.398438 C 166.742188 59.453125 163.359375 62.714844 159.316406 62.59375 Z M 159.570312 51.425781 C 157.457031 51.34375 155.710938 53.046875 155.675781 55.140625 C 155.621094 57.269531 157.292969 59 159.371094 59.054688 C 161.484375 59.121094 163.25 57.433594 163.285156 55.324219 C 163.339844 53.214844 161.667969 51.480469 159.570312 51.425781 Z M 159.570312 51.425781 " fill-opacity="1" fill-rule="nonzero"/><path fill="#ffffff" d="M 176.152344 77.210938 C 172.109375 77.136719 168.871094 73.738281 169.003906 69.691406 C 169.078125 65.601562 172.4375 62.402344 176.503906 62.496094 C 180.582031 62.589844 183.78125 65.960938 183.726562 70.023438 C 183.597656 74.125 180.234375 77.304688 176.152344 77.210938 Z M 176.445312 66.023438 C 174.332031 65.988281 172.605469 67.671875 172.550781 69.773438 C 172.492188 71.867188 174.148438 73.644531 176.265625 73.71875 C 178.324219 73.738281 180.105469 72.023438 180.160156 69.960938 C 180.234375 67.847656 178.523438 66.078125 176.445312 66.023438 Z M 176.445312 66.023438 " fill-opacity="1" fill-rule="nonzero"/><path fill="#ffffff" d="M 153.984375 76.269531 C 153.488281 76.289062 153.046875 76.039062 152.699219 75.691406 C 152.015625 74.964844 152.089844 73.847656 152.828125 73.15625 L 179.976562 48.320312 C 180.695312 47.660156 181.8125 47.703125 182.457031 48.433594 C 183.15625 49.132812 183.082031 50.3125 182.367188 50.949219 L 155.21875 75.808594 C 154.863281 76.097656 154.425781 76.269531 153.984375 76.269531 Z M 153.984375 76.269531 " fill-opacity="1" fill-rule="nonzero"/><path fill="#ffffff" d="M 159.460938 111.039062 C 153.746094 111.132812 149 105.550781 148.910156 98.601562 C 148.761719 91.632812 153.300781 85.910156 159.039062 85.828125 C 164.738281 85.753906 169.496094 91.300781 169.609375 98.269531 C 169.679688 105.214844 165.160156 110.957031 159.460938 111.039062 Z M 159.113281 90.5 C 156.042969 90.5625 153.503906 94.222656 153.578125 98.527344 C 153.652344 102.800781 156.300781 106.351562 159.351562 106.351562 C 162.421875 106.304688 164.957031 102.628906 164.867188 98.363281 C 164.832031 94.066406 162.199219 90.460938 159.113281 90.5 Z M 159.113281 90.5 " fill-opacity="1" fill-rule="nonzero"/><path fill="#ffffff" d="M 178.929688 110.910156 L 174.242188 111.011719 L 173.855469 86.222656 L 188.5625 86.003906 L 188.671875 90.722656 L 178.597656 90.878906 Z M 178.929688 110.910156 " fill-opacity="1" fill-rule="nonzero"/><path fill="#ffffff" d="M 186.390625 101.023438 L 176.429688 101.179688 L 176.355469 96.453125 L 186.316406 96.3125 Z M 186.390625 101.023438 " fill-opacity="1" fill-rule="nonzero"/><path fill="#ffffff" d="M 195.859375 110.652344 L 191.171875 110.726562 L 190.804688 85.953125 L 205.511719 85.734375 L 205.601562 90.453125 L 195.546875 90.601562 Z M 195.859375 110.652344 " fill-opacity="1" fill-rule="nonzero"/><path fill="#ffffff" d="M 203.359375 100.746094 L 193.378906 100.914062 L 193.304688 96.203125 L 203.285156 96.019531 Z M 203.359375 100.746094 " fill-opacity="1" fill-rule="nonzero"/><path fill="#ffffff" d="M 82.328125 112.460938 L 69.683594 112.449219 L 69.867188 50.660156 L 57.882812 60.632812 L 49.796875 50.890625 L 72.183594 32.25 L 82.550781 37.199219 Z M 82.328125 112.460938 " fill-opacity="1" fill-rule="nonzero"/><path fill="#ffffff" d="M 121.484375 112.226562 L 117.402344 112.226562 C 106.964844 112.210938 98.453125 103.003906 98.488281 91.6875 L 98.578125 53.566406 C 98.617188 42.296875 107.164062 33.136719 117.660156 33.144531 L 121.738281 33.144531 C 132.179688 33.179688 140.671875 42.425781 140.636719 53.703125 L 140.527344 91.800781 C 140.511719 103.152344 131.960938 112.300781 121.484375 112.226562 Z M 117.605469 45.824219 C 113.652344 45.796875 110.347656 49.316406 110.347656 53.609375 L 110.25 91.714844 C 110.234375 96.007812 113.453125 99.539062 117.421875 99.558594 L 121.5 99.539062 C 125.492188 99.546875 128.785156 96.066406 128.785156 91.789062 L 128.890625 53.636719 C 128.875 49.355469 125.675781 45.878906 121.683594 45.851562 Z M 117.605469 45.824219 " fill-opacity="1" fill-rule="nonzero"/></svg>