<svg xmlns="http://www.w3.org/2000/svg" xmlns:xlink="http://www.w3.org/1999/xlink" width="308" zoomAndPan="magnify" viewBox="0 0 230.87999 162.749997" height="217" preserveAspectRatio="xMidYMid meet" version="1.0"><path fill="#fe3428" d="M 207.191406 -0.0585938 L 14.5625 -0.0585938 C 2.101562 -0.0585938 0.238281 5.835938 10.414062 13.039062 L 45.734375 38.042969 C 42.664062 42.703125 40.691406 48.480469 39.949219 55.144531 C 39.5 59.167969 42.382812 62.800781 46.394531 63.269531 L 57.421875 64.558594 C 59.359375 64.789062 61.296875 64.230469 62.824219 63.023438 L 65.765625 63.484375 C 64.625 65.820312 63.210938 68.40625 61.460938 71.214844 C 57.773438 77.125 54.371094 81.988281 51.054688 86.074219 C 51.019531 86.117188 50.980469 86.164062 50.945312 86.210938 L 49.710938 87.777344 C 47.355469 90.699219 44.925781 93.71875 42.617188 96.839844 C 41 99.019531 40.71875 101.921875 41.878906 104.378906 L 46.273438 113.667969 C 47.488281 116.238281 50.070312 117.871094 52.90625 117.871094 C 52.910156 117.871094 52.917969 117.871094 52.925781 117.871094 L 88.808594 117.769531 C 90.757812 117.765625 92.621094 116.984375 93.996094 115.59375 C 95.367188 114.207031 96.136719 112.328125 96.125 110.375 L 96.125 110.347656 C 97.679688 111.972656 99.425781 113.433594 101.359375 114.6875 C 106.066406 117.78125 111.585938 119.460938 117.328125 119.550781 C 117.367188 119.550781 117.402344 119.550781 117.441406 119.550781 C 121.210938 119.550781 124.914062 118.84375 128.453125 117.457031 C 134.242188 115.171875 138.664062 111.0625 141.800781 106.042969 L 142.246094 106.359375 C 145.066406 113.277344 151.273438 118.125 158.402344 118.125 C 158.4375 118.125 158.613281 118.121094 158.648438 118.121094 C 158.714844 118.121094 158.777344 118.109375 158.839844 118.109375 L 211.335938 155.265625 C 221.511719 162.46875 229.84375 158.144531 229.84375 145.652344 L 229.84375 22.65625 C 229.847656 10.164062 219.652344 -0.0585938 207.191406 -0.0585938 Z M 57.542969 103.136719 L 57.066406 102.125 C 57.253906 101.882812 57.445312 101.640625 57.636719 101.398438 C 57.71875 101.632812 57.816406 101.863281 57.921875 102.09375 C 58.09375 102.460938 58.296875 102.808594 58.519531 103.136719 Z M 57.542969 103.136719 " fill-opacity="1" fill-rule="nonzero"/><path fill="#ffffff" d="M 158.378906 62.316406 C 154.335938 62.242188 151.101562 58.871094 151.191406 54.78125 C 151.285156 50.734375 154.667969 47.488281 158.726562 47.574219 C 162.789062 47.703125 166.042969 51.039062 165.914062 55.117188 C 165.824219 59.175781 162.441406 62.4375 158.378906 62.316406 Z M 158.652344 51.148438 C 156.542969 51.066406 154.796875 52.769531 154.757812 54.863281 C 154.703125 56.992188 156.375 58.722656 158.453125 58.777344 C 160.546875 58.84375 162.3125 57.15625 162.347656 55.046875 C 162.421875 52.9375 160.75 51.203125 158.652344 51.148438 Z M 158.652344 51.148438 " fill-opacity="1" fill-rule="nonzero"/><path fill="#ffffff" d="M 175.234375 76.929688 C 171.191406 76.855469 167.957031 73.457031 168.066406 69.410156 C 168.160156 65.320312 171.523438 62.121094 175.566406 62.214844 C 179.648438 62.304688 182.863281 65.679688 182.808594 69.742188 C 182.679688 73.84375 179.316406 77.023438 175.234375 76.929688 Z M 175.511719 65.746094 C 173.414062 65.707031 171.6875 67.394531 171.613281 69.496094 C 171.578125 71.585938 173.230469 73.367188 175.328125 73.441406 C 177.40625 73.457031 179.1875 71.746094 179.242188 69.683594 C 179.296875 67.570312 177.605469 65.800781 175.511719 65.746094 Z M 175.511719 65.746094 " fill-opacity="1" fill-rule="nonzero"/><path fill="#ffffff" d="M 153.066406 75.992188 C 152.570312 76.007812 152.113281 75.761719 151.78125 75.410156 C 151.101562 74.683594 151.175781 73.566406 151.890625 72.875 L 179.058594 48.042969 C 179.773438 47.371094 180.878906 47.425781 181.539062 48.152344 C 182.21875 48.851562 182.164062 50.035156 181.429688 50.667969 L 154.300781 75.53125 C 153.949219 75.816406 153.492188 75.992188 153.066406 75.992188 Z M 153.066406 75.992188 " fill-opacity="1" fill-rule="nonzero"/><path fill="#ffffff" d="M 158.546875 110.757812 C 152.828125 110.851562 148.085938 105.269531 147.976562 98.320312 C 147.847656 91.351562 152.386719 85.632812 158.121094 85.546875 C 163.820312 85.472656 168.582031 91.023438 168.671875 97.988281 C 168.765625 104.9375 164.242188 110.675781 158.546875 110.757812 Z M 158.179688 90.21875 C 155.125 90.285156 152.589844 93.941406 152.664062 98.242188 C 152.71875 102.519531 155.382812 106.066406 158.433594 106.066406 C 161.503906 106.019531 164.042969 102.34375 163.949219 98.078125 C 163.894531 93.785156 161.285156 90.183594 158.179688 90.21875 Z M 158.179688 90.21875 " fill-opacity="1" fill-rule="nonzero"/><path fill="#ffffff" d="M 178.011719 110.628906 L 173.320312 110.730469 L 172.9375 85.945312 L 187.644531 85.722656 L 187.734375 90.441406 L 177.679688 90.597656 Z M 178.011719 110.628906 " fill-opacity="1" fill-rule="nonzero"/><path fill="#ffffff" d="M 185.476562 100.742188 L 175.511719 100.898438 L 175.4375 96.171875 L 185.382812 96.03125 Z M 185.476562 100.742188 " fill-opacity="1" fill-rule="nonzero"/><path fill="#ffffff" d="M 194.941406 110.363281 L 190.253906 110.445312 L 189.886719 85.675781 L 204.589844 85.457031 L 204.664062 90.171875 L 194.628906 90.320312 Z M 194.941406 110.363281 " fill-opacity="1" fill-rule="nonzero"/><path fill="#ffffff" d="M 202.441406 100.464844 L 192.457031 100.632812 L 192.386719 95.921875 L 202.347656 95.738281 Z M 202.441406 100.464844 " fill-opacity="1" fill-rule="nonzero"/><path fill="#ffffff" d="M 88.789062 110.410156 L 52.910156 110.511719 L 48.515625 101.222656 C 50.941406 97.941406 53.515625 94.769531 56.089844 91.574219 L 56.75 90.71875 C 60.445312 86.164062 63.992188 81.042969 67.6875 75.117188 C 74.984375 63.402344 78.714844 52.105469 76.710938 47.472656 C 76.4375 46.808594 75.683594 45.234375 71.675781 44.605469 C 68.074219 44.117188 65.1875 44.671875 63.054688 46.367188 C 60.519531 48.402344 58.828125 52.226562 58.273438 57.25 L 47.246094 55.957031 C 48.164062 47.703125 51.234375 41.222656 56.273438 37.214844 C 60.777344 33.601562 66.65625 32.238281 73.273438 33.253906 C 81.5625 34.488281 85.167969 39.074219 86.820312 42.714844 C 91.949219 54.484375 82.90625 72.003906 77.042969 81.363281 C 73.089844 87.722656 69.265625 93.148438 65.277344 98.089844 L 64.5625 98.953125 L 88.734375 98.890625 Z M 88.789062 110.410156 " fill-opacity="1" fill-rule="nonzero"/><path fill="#ffffff" d="M 117.445312 112.1875 C 113.234375 112.121094 108.988281 110.898438 105.386719 108.527344 C 99.890625 104.964844 96.398438 99.339844 95.425781 92.59375 L 106.195312 90.660156 C 106.785156 94.679688 109.136719 96.933594 110.957031 98.132812 C 114.191406 100.269531 118.4375 100.695312 122.078125 99.277344 C 127.628906 97.046875 130.238281 88.390625 129.136719 81.675781 C 128.546875 77.796875 126.488281 73.253906 121.085938 73.253906 C 119.152344 73.492188 99.984375 73.824219 99.984375 73.824219 L 100.203125 39.664062 L 100.09375 33.675781 L 134.890625 33.921875 L 134.832031 45.921875 L 111.121094 45.792969 L 110.992188 63.761719 C 116.03125 61.882812 120.9375 61.210938 121.027344 61.21875 C 121.101562 61.246094 121.195312 61.238281 121.265625 61.238281 C 130.992188 61.292969 138.121094 68.304688 139.960938 79.519531 C 141.800781 91.304688 137.039062 106.160156 125.773438 110.601562 C 123.050781 111.671875 120.257812 112.1875 117.445312 112.1875 Z M 117.445312 112.1875 " fill-opacity="1" fill-rule="nonzero"/></svg>