<svg xmlns="http://www.w3.org/2000/svg" xmlns:xlink="http://www.w3.org/1999/xlink" width="308" zoomAndPan="magnify" viewBox="0 0 230.87999 162.749997" height="217" preserveAspectRatio="xMidYMid meet" version="1.0"><path fill="#fe3428" d="M 207.191406 -0.0585938 L 14.558594 -0.0585938 C 2.101562 -0.0585938 0.238281 5.839844 10.414062 13.042969 L 41.78125 35.242188 C 39.917969 37.546875 38.355469 40.15625 37.175781 43.027344 L 34.472656 49.601562 L 45.714844 54.707031 L 48.359375 68.082031 L 50.371094 82.082031 L 32.667969 85.648438 L 33.945312 92.75 C 34.683594 96.859375 36.117188 100.761719 38.199219 104.332031 C 42.496094 111.765625 49.222656 117.097656 57.238281 119.375 C 59.847656 120.078125 62.359375 120.421875 64.914062 120.421875 L 65.097656 120.421875 L 65.363281 120.425781 L 65.367188 120.425781 C 70.851562 120.425781 76.261719 118.789062 81.015625 115.691406 C 84.863281 113.179688 88.035156 109.84375 90.394531 105.910156 C 91.308594 105.652344 92.230469 105.390625 93.160156 105.125 C 97.601562 113.8125 106.265625 119.738281 116.199219 119.773438 L 120.441406 119.8125 C 129.707031 119.8125 137.910156 114.679688 142.636719 106.960938 C 145.480469 113.78125 151.625 118.539062 158.675781 118.539062 L 158.933594 118.539062 C 159.097656 118.539062 159.261719 118.515625 159.421875 118.507812 L 211.335938 155.25 C 221.515625 162.453125 229.84375 158.128906 229.84375 145.636719 L 229.84375 22.65625 C 229.84375 10.164062 219.652344 -0.0585938 207.191406 -0.0585938 Z M 120.445312 112.453125 L 120.429688 107.113281 C 120.433594 107.113281 120.4375 107.113281 120.445312 107.113281 Z M 120.445312 112.453125 " fill-opacity="1" fill-rule="nonzero"/><path fill="#ffffff" d="M 158.691406 62.75 C 154.648438 62.675781 151.414062 59.304688 151.488281 55.210938 C 151.597656 51.175781 154.980469 47.929688 159.023438 48.007812 C 163.101562 48.136719 166.339844 51.472656 166.230469 55.558594 C 166.117188 59.613281 162.734375 62.863281 158.691406 62.75 Z M 158.949219 51.578125 C 156.855469 51.507812 155.09375 53.203125 155.054688 55.304688 C 155.019531 57.425781 156.671875 59.15625 158.769531 59.210938 C 160.867188 59.285156 162.628906 57.589844 162.664062 55.484375 C 162.734375 53.367188 161.046875 51.636719 158.949219 51.578125 Z M 158.949219 51.578125 " fill-opacity="1" fill-rule="nonzero"/><path fill="#ffffff" d="M 175.53125 77.363281 C 171.484375 77.289062 168.25 73.878906 168.398438 69.84375 C 168.472656 65.753906 171.816406 62.5625 175.898438 62.640625 C 179.980469 62.75 183.175781 66.101562 183.105469 70.175781 C 182.992188 74.289062 179.609375 77.453125 175.53125 77.363281 Z M 175.824219 66.175781 C 173.726562 66.140625 172 67.835938 171.929688 69.933594 C 171.890625 72.019531 173.542969 73.804688 175.640625 73.878906 C 177.699219 73.878906 179.5 72.183594 179.535156 70.121094 C 179.609375 68 177.917969 66.234375 175.824219 66.175781 Z M 175.824219 66.175781 " fill-opacity="1" fill-rule="nonzero"/><path fill="#ffffff" d="M 153.363281 76.421875 C 152.886719 76.441406 152.445312 76.203125 152.074219 75.832031 C 151.414062 75.113281 151.492188 73.992188 152.222656 73.308594 L 179.355469 48.484375 C 180.089844 47.820312 181.191406 47.859375 181.855469 48.597656 C 182.554688 49.296875 182.480469 50.476562 181.742188 51.101562 L 154.613281 75.964844 C 154.246094 76.238281 153.804688 76.421875 153.363281 76.421875 Z M 153.363281 76.421875 " fill-opacity="1" fill-rule="nonzero"/><path fill="#ffffff" d="M 158.839844 111.179688 C 153.144531 111.289062 148.402344 105.6875 148.289062 98.757812 C 148.140625 91.792969 152.703125 86.0625 158.433594 85.96875 C 164.132812 85.894531 168.875 91.460938 168.988281 98.429688 C 169.058594 105.359375 164.539062 111.105469 158.839844 111.179688 Z M 158.507812 90.652344 C 155.421875 90.722656 152.886719 94.375 152.957031 98.6875 C 153.03125 102.960938 155.675781 106.5 158.726562 106.5 C 161.816406 106.460938 164.351562 102.777344 164.242188 98.5 C 164.207031 94.226562 161.597656 90.613281 158.507812 90.652344 Z M 158.507812 90.652344 " fill-opacity="1" fill-rule="nonzero"/><path fill="#ffffff" d="M 178.324219 111.070312 L 173.617188 111.164062 L 173.25 86.375 L 187.953125 86.152344 L 188.066406 90.871094 L 177.992188 91.019531 Z M 178.324219 111.070312 " fill-opacity="1" fill-rule="nonzero"/><path fill="#ffffff" d="M 185.785156 101.171875 L 175.824219 101.339844 L 175.75 96.601562 L 185.710938 96.472656 Z M 185.785156 101.171875 " fill-opacity="1" fill-rule="nonzero"/><path fill="#ffffff" d="M 195.230469 110.8125 L 190.566406 110.886719 L 190.199219 86.117188 L 204.902344 85.894531 L 204.976562 90.613281 L 194.9375 90.761719 Z M 195.230469 110.8125 " fill-opacity="1" fill-rule="nonzero"/><path fill="#ffffff" d="M 202.730469 100.898438 L 192.769531 101.0625 L 192.695312 96.363281 L 202.660156 96.179688 Z M 202.730469 100.898438 " fill-opacity="1" fill-rule="nonzero"/><path fill="#ffffff" d="M 120.351562 112.453125 L 116.273438 112.414062 C 105.757812 112.378906 97.300781 103.109375 97.339844 91.792969 L 97.632812 53.535156 C 97.707031 42.257812 106.34375 33.117188 116.820312 33.152344 L 120.902344 33.1875 C 131.378906 33.28125 139.90625 42.515625 139.792969 53.828125 L 139.539062 92.035156 C 139.429688 103.367188 130.867188 112.507812 120.351562 112.453125 Z M 116.75 45.851562 C 112.742188 45.832031 109.507812 49.3125 109.433594 53.640625 L 109.175781 91.867188 C 109.136719 96.125 112.335938 99.679688 116.382812 99.699219 L 120.425781 99.753906 C 124.46875 99.753906 127.667969 96.289062 127.742188 92.015625 L 127.996094 53.753906 C 128.035156 49.445312 124.835938 45.921875 120.789062 45.90625 Z M 116.75 45.851562 " fill-opacity="1" fill-rule="nonzero"/><path fill="#ffffff" d="M 83.960938 74.691406 C 83.003906 73.050781 81.898438 71.816406 80.941406 70.671875 C 80.6875 70.339844 80.390625 70.007812 80.136719 69.714844 C 83.261719 65.625 85.945312 60.480469 85.980469 55.15625 C 86.054688 42.328125 76.277344 31.820312 64.21875 31.714844 C 55.433594 31.695312 47.492188 37.242188 43.960938 45.832031 L 54.441406 50.582031 C 56.132812 46.453125 59.917969 43.875 64.144531 43.914062 C 69.953125 43.914062 74.585938 48.941406 74.546875 55.082031 C 74.546875 57.585938 71.902344 61.898438 68.921875 64.773438 C 64.144531 64.3125 59.035156 64.808594 55.394531 65.4375 L 57.125 77.433594 C 62.789062 76.496094 69.550781 76.496094 71.386719 77.492188 C 71.757812 77.96875 72.164062 78.414062 72.5625 78.890625 C 73.300781 79.699219 73.886719 80.40625 74.292969 81.082031 C 76.128906 84.238281 76.71875 87.886719 76.054688 91.347656 C 75.433594 94.707031 73.628906 97.507812 70.984375 99.238281 C 68.371094 100.949219 65.25 101.414062 62.125 100.5625 C 58.890625 99.605469 56.09375 97.375 54.253906 94.222656 C 53.339844 92.675781 52.75 90.980469 52.417969 89.175781 L 41.167969 91.441406 C 41.757812 94.707031 42.898438 97.800781 44.550781 100.636719 C 47.894531 106.425781 53.113281 110.554688 59.144531 112.265625 C 61.132812 112.800781 63.078125 113.078125 65.101562 113.0625 C 69.292969 113.113281 73.335938 111.917969 77.011719 109.523438 C 82.378906 106.015625 85.980469 100.417969 87.269531 93.78125 C 88.515625 87.296875 87.339844 80.460938 83.960938 74.691406 Z M 83.960938 74.691406 " fill-opacity="1" fill-rule="nonzero"/></svg>