<svg xmlns="http://www.w3.org/2000/svg" xmlns:xlink="http://www.w3.org/1999/xlink" width="308" zoomAndPan="magnify" viewBox="0 0 230.87999 162.749997" height="217" preserveAspectRatio="xMidYMid meet" version="1.0"><defs><clipPath id="bae68273a8"><path d="M 3 0 L 230.015625 0 L 230.015625 159 L 3 159 Z M 3 0 " clip-rule="nonzero"/></clipPath></defs><g clip-path="url(#bae68273a8)"><path fill="#fe3428" d="M 207.324219 -0.0273438 L 14.398438 -0.0273438 C 1.921875 -0.0273438 0.0507812 5.867188 10.246094 13.070312 L 45.636719 38.078125 C 42.546875 42.746094 40.5625 48.535156 39.816406 55.210938 C 39.371094 59.234375 42.253906 62.863281 46.273438 63.335938 L 57.320312 64.625 C 59.257812 64.84375 61.203125 64.296875 62.730469 63.085938 L 65.679688 63.546875 C 64.539062 65.882812 63.121094 68.46875 61.367188 71.285156 C 57.683594 77.171875 54.273438 82.035156 50.933594 86.164062 L 49.355469 88.125 C 47.082031 90.953125 44.726562 93.878906 42.492188 96.894531 C 40.871094 99.078125 40.589844 101.972656 41.753906 104.429688 L 46.152344 113.714844 C 47.371094 116.285156 49.957031 117.921875 52.796875 117.921875 C 52.804688 117.921875 52.8125 117.921875 52.820312 117.921875 L 88.757812 117.808594 C 90.707031 117.804688 92.578125 117.019531 93.953125 115.636719 C 95.328125 114.246094 96.097656 112.371094 96.085938 110.417969 L 96.082031 109.949219 C 100.933594 115.757812 108.027344 119.433594 115.914062 119.433594 L 115.914062 106.71875 L 115.945312 106.71875 L 115.914062 112.074219 L 115.980469 119.433594 L 120.054688 119.433594 C 129.378906 119.402344 137.574219 114.230469 142.253906 106.472656 C 145.039062 113.429688 151.214844 118.183594 158.488281 118.183594 C 158.527344 118.183594 158.679688 118.183594 158.71875 118.183594 C 158.808594 118.179688 158.894531 118.164062 158.984375 118.164062 L 211.476562 155.25 C 221.671875 162.457031 230.015625 158.128906 230.015625 145.640625 L 230.015625 22.683594 C 230.015625 10.195312 219.804688 -0.0273438 207.324219 -0.0273438 Z M 57.441406 103.191406 L 56.960938 102.179688 C 57.152344 101.933594 57.34375 101.695312 57.53125 101.453125 C 57.613281 101.6875 57.710938 101.917969 57.816406 102.148438 C 57.992188 102.515625 58.191406 102.863281 58.414062 103.1875 Z M 57.441406 103.191406 " fill-opacity="1" fill-rule="nonzero"/></g><path fill="#ffffff" d="M 158.433594 62.382812 C 154.382812 62.308594 151.144531 58.9375 151.234375 54.84375 C 151.328125 50.792969 154.714844 47.546875 158.785156 47.660156 C 162.851562 47.769531 166.113281 51.109375 165.984375 55.179688 C 165.890625 59.230469 162.503906 62.511719 158.433594 62.382812 Z M 158.707031 51.214844 C 156.59375 51.125 154.84375 52.839844 154.804688 54.921875 C 154.753906 57.058594 156.425781 58.789062 158.507812 58.847656 C 160.605469 58.898438 162.394531 57.222656 162.410156 55.105469 C 162.484375 53.003906 160.808594 51.269531 158.707031 51.214844 Z M 158.707031 51.214844 " fill-opacity="1" fill-rule="nonzero"/><path fill="#ffffff" d="M 175.316406 76.992188 C 171.265625 76.917969 168.023438 73.53125 168.136719 69.476562 C 168.230469 65.386719 171.597656 62.179688 175.644531 62.289062 C 179.734375 62.363281 182.957031 65.753906 182.902344 69.808594 C 182.773438 73.898438 179.402344 77.085938 175.316406 76.992188 Z M 175.59375 65.808594 C 173.492188 65.773438 171.761719 67.449219 171.6875 69.550781 C 171.652344 71.648438 173.308594 73.417969 175.40625 73.492188 C 177.488281 73.53125 179.273438 71.800781 179.328125 69.734375 C 179.382812 67.632812 177.691406 65.863281 175.59375 65.808594 Z M 175.59375 65.808594 " fill-opacity="1" fill-rule="nonzero"/><path fill="#ffffff" d="M 153.113281 76.054688 C 152.617188 76.070312 152.15625 75.8125 151.824219 75.480469 C 151.144531 74.746094 151.214844 73.640625 151.9375 72.941406 L 179.148438 48.101562 C 179.863281 47.4375 180.96875 47.496094 181.632812 48.210938 C 182.3125 48.914062 182.257812 50.09375 181.519531 50.738281 L 154.347656 75.59375 C 153.996094 75.886719 153.535156 76.054688 153.113281 76.054688 Z M 153.113281 76.054688 " fill-opacity="1" fill-rule="nonzero"/><path fill="#ffffff" d="M 158.597656 110.824219 C 152.875 110.898438 148.125 105.332031 148.015625 98.371094 C 147.886719 91.402344 152.433594 85.691406 158.175781 85.617188 C 163.882812 85.542969 168.648438 91.070312 168.742188 98.035156 C 168.835938 105 164.308594 110.730469 158.597656 110.824219 Z M 158.25 90.277344 C 155.175781 90.332031 152.632812 94 152.710938 98.292969 C 152.765625 102.566406 155.433594 106.125 158.488281 106.125 C 161.5625 106.070312 164.105469 102.402344 164.011719 98.144531 C 163.957031 93.832031 161.34375 90.242188 158.25 90.277344 Z M 158.25 90.277344 " fill-opacity="1" fill-rule="nonzero"/><path fill="#ffffff" d="M 178.097656 110.671875 L 173.402344 110.785156 L 173.015625 86 L 187.742188 85.78125 L 187.835938 90.496094 L 177.765625 90.667969 Z M 178.097656 110.671875 " fill-opacity="1" fill-rule="nonzero"/><path fill="#ffffff" d="M 185.570312 100.800781 L 175.59375 100.945312 L 175.519531 96.226562 L 185.476562 96.082031 Z M 185.570312 100.800781 " fill-opacity="1" fill-rule="nonzero"/><path fill="#ffffff" d="M 195.054688 110.414062 L 190.359375 110.492188 L 189.988281 85.726562 L 204.71875 85.503906 L 204.789062 90.222656 L 194.738281 90.371094 Z M 195.054688 110.414062 " fill-opacity="1" fill-rule="nonzero"/><path fill="#ffffff" d="M 202.5625 100.523438 L 192.566406 100.6875 L 192.492188 95.96875 L 202.472656 95.785156 Z M 202.5625 100.523438 " fill-opacity="1" fill-rule="nonzero"/><path fill="#ffffff" d="M 88.730469 110.453125 L 52.796875 110.566406 L 48.398438 101.277344 C 50.828125 97.996094 53.40625 94.828125 55.980469 91.625 L 56.660156 90.773438 C 60.34375 86.226562 63.898438 81.101562 67.597656 75.1875 C 74.90625 63.46875 78.644531 52.175781 76.636719 47.546875 C 76.359375 46.886719 75.601562 45.304688 71.59375 44.675781 C 67.984375 44.195312 65.09375 44.746094 62.957031 46.441406 C 60.417969 48.46875 58.722656 52.300781 58.171875 57.3125 L 47.125 56.027344 C 48.042969 47.769531 51.136719 41.285156 56.160156 37.289062 C 60.671875 33.675781 66.566406 32.3125 73.191406 33.324219 C 81.515625 34.558594 85.101562 39.148438 86.757812 42.796875 C 91.898438 54.550781 82.839844 72.054688 76.964844 81.414062 C 73.007812 87.789062 69.175781 93.207031 65.183594 98.144531 L 64.464844 99.011719 L 88.675781 98.957031 Z M 88.730469 110.453125 " fill-opacity="1" fill-rule="nonzero"/><path fill="#ffffff" d="M 120.03125 112.074219 L 115.976562 112.074219 C 105.410156 112.113281 96.871094 102.9375 96.832031 91.640625 L 96.703125 53.445312 C 96.683594 42.167969 105.171875 32.9375 115.703125 32.886719 L 119.789062 32.847656 C 130.285156 32.847656 138.882812 42.023438 138.917969 53.316406 L 139.027344 91.496094 C 139.046875 102.824219 130.542969 112.039062 120.03125 112.074219 Z M 115.742188 45.597656 C 111.730469 45.597656 108.488281 49.097656 108.542969 53.445312 L 108.632812 91.585938 C 108.671875 95.9375 111.894531 99.359375 115.90625 99.359375 L 119.957031 99.359375 C 123.988281 99.359375 127.230469 95.824219 127.230469 91.550781 L 127.082031 53.375 C 127.082031 49.0625 123.820312 45.597656 119.808594 45.5625 Z M 115.742188 45.597656 " fill-opacity="1" fill-rule="nonzero"/></svg>