<svg width="20" height="20" viewBox="0 0 20 20" fill="none" xmlns="http://www.w3.org/2000/svg">
<path d="M18.5627 3.79833C18.1155 4.24554 16.7769 5.22041 15.4971 5.95854C13.9697 6.83932 12.8724 7.18012 12.5622 6.86957C12.4914 6.79875 12.4548 6.68637 12.4505 6.53775C12.4748 6.54872 12.4987 6.56036 12.522 6.57332C12.6101 6.6212 12.6929 6.68205 12.767 6.75653C12.8156 6.80507 12.8585 6.85694 12.8957 6.9118C13.2581 6.92344 13.9248 6.72793 14.9671 6.17234L14.8454 5.37468C14.7906 5.01493 14.5086 4.73264 14.1489 4.67778L13.2212 4.53614L13.1484 4.52483C13.2468 4.33598 13.3549 4.13914 13.4732 3.93399C14.2114 2.65356 15.1856 1.31494 15.6328 0.86774C16.0241 0.476395 16.5442 0.26094 17.0978 0.26094C17.651 0.26094 18.1714 0.476395 18.5627 0.86774C19.3703 1.6757 19.3703 2.99038 18.5627 3.79833ZM18.7476 0.682874C18.3067 0.241988 17.7208 -0.000732422 17.0978 -0.000732422C16.4743 -0.000732422 15.8885 0.241988 15.4476 0.682874C14.9891 1.14171 13.9949 2.50527 13.2465 3.80332C13.1088 4.04238 12.9851 4.26848 12.8744 4.48327L12.8006 4.47197L9.36629 3.94796C9.10495 3.90806 8.83995 3.99517 8.65276 4.18236L0.244006 12.5934C-0.0811725 12.9183 -0.0811725 13.445 0.244006 13.7698L5.75574 19.2832C6.08059 19.6081 6.60693 19.6081 6.93211 19.2832L15.3409 10.8721C15.5281 10.6849 15.6152 10.4199 15.5749 10.1583L15.0316 6.59327C14.1961 7.02917 13.5358 7.26823 13.0606 7.3068C13.1268 7.64461 13.029 8.00836 12.767 8.27037C12.3494 8.68831 11.6718 8.68831 11.2539 8.27037C10.8359 7.85209 10.8359 7.17447 11.2539 6.75653C11.4903 6.51979 11.8101 6.41738 12.1187 6.44864C12.1426 6.45096 12.1665 6.45429 12.1905 6.45828C12.1822 6.72261 12.2447 6.92177 12.3773 7.05444C12.5027 7.17979 12.6866 7.2423 12.9286 7.2423C13.5038 7.2423 14.4072 6.88886 15.6275 6.18497C16.9255 5.43653 18.2887 4.44237 18.7476 3.9832C19.6573 3.07317 19.6573 1.59257 18.7476 0.682874Z" fill="#68B19F"/>
</svg>
