<svg xmlns="http://www.w3.org/2000/svg" xmlns:xlink="http://www.w3.org/1999/xlink" width="308" zoomAndPan="magnify" viewBox="0 0 230.87999 162.749997" height="217" preserveAspectRatio="xMidYMid meet" version="1.0"><path fill="#fe3428" d="M 207.292969 0 L 14.4375 0 C 1.964844 0 0.0976562 5.890625 10.285156 13.089844 L 50.320312 41.378906 L 45.011719 45.792969 C 43.511719 47.039062 42.566406 48.832031 42.390625 50.777344 C 42.210938 52.71875 42.8125 54.65625 44.058594 56.15625 L 52.15625 65.890625 C 54.726562 68.980469 59.292969 69.425781 62.410156 66.917969 L 62.273438 112.945312 C 62.265625 114.898438 63.035156 116.773438 64.414062 118.15625 C 65.792969 119.542969 67.660156 120.320312 69.617188 120.320312 L 82.277344 120.328125 C 82.277344 120.328125 82.28125 120.328125 82.28125 120.328125 C 86.332031 120.328125 89.621094 117.050781 89.628906 112.996094 L 89.640625 109.371094 C 91.421875 108.996094 93.316406 108.59375 95.292969 108.175781 C 97.375 111.03125 99.96875 113.503906 103.015625 115.488281 C 107.742188 118.574219 113.277344 120.25 119.011719 120.339844 C 119.050781 120.339844 119.085938 120.339844 119.121094 120.339844 C 122.910156 120.339844 126.613281 119.632812 130.128906 118.246094 C 135.765625 116.027344 140.109375 112.078125 143.230469 107.253906 C 146.0625 114.113281 152.25 118.914062 159.359375 118.914062 C 159.390625 118.914062 159.570312 118.910156 159.605469 118.910156 C 159.742188 118.90625 159.875 118.886719 160.011719 118.878906 L 211.441406 155.21875 C 221.632812 162.421875 229.96875 158.097656 229.96875 145.613281 L 229.96875 22.699219 C 229.972656 10.214844 219.765625 0 207.292969 0 Z M 207.292969 0 " fill-opacity="1" fill-rule="nonzero"/><path fill="#ffffff" d="M 159.351562 63.144531 C 155.285156 63.070312 152.066406 59.703125 152.136719 55.613281 C 152.230469 51.570312 155.632812 48.328125 159.683594 48.410156 C 163.75 48.539062 167.007812 51.875 166.878906 55.953125 C 166.785156 60.003906 163.402344 63.265625 159.351562 63.144531 Z M 159.609375 51.984375 C 157.492188 51.902344 155.746094 53.605469 155.707031 55.695312 C 155.652344 57.824219 157.328125 59.550781 159.40625 59.609375 C 161.523438 59.671875 163.289062 57.988281 163.324219 55.878906 C 163.382812 53.769531 161.707031 52.042969 159.609375 51.984375 Z M 159.609375 51.984375 " fill-opacity="1" fill-rule="nonzero"/><path fill="#ffffff" d="M 176.207031 77.75 C 172.164062 77.675781 168.921875 74.28125 169.050781 70.234375 C 169.125 66.148438 172.488281 62.953125 176.542969 63.042969 C 180.644531 63.136719 183.847656 66.507812 183.792969 70.566406 C 183.664062 74.667969 180.292969 77.84375 176.207031 77.75 Z M 176.503906 66.570312 C 174.386719 66.535156 172.65625 68.21875 172.601562 70.320312 C 172.546875 72.410156 174.199219 74.1875 176.320312 74.261719 C 178.378906 74.28125 180.164062 72.566406 180.21875 70.503906 C 180.292969 68.394531 178.582031 66.628906 176.503906 66.570312 Z M 176.503906 66.570312 " fill-opacity="1" fill-rule="nonzero"/><path fill="#ffffff" d="M 154.015625 76.8125 C 153.519531 76.832031 153.074219 76.582031 152.726562 76.230469 C 152.046875 75.503906 152.117188 74.390625 152.855469 73.699219 L 180.039062 48.882812 C 180.753906 48.207031 181.875 48.265625 182.519531 48.992188 C 183.222656 49.691406 183.144531 50.871094 182.429688 51.503906 L 155.246094 76.351562 C 154.898438 76.636719 154.457031 76.8125 154.015625 76.8125 Z M 154.015625 76.8125 " fill-opacity="1" fill-rule="nonzero"/><path fill="#ffffff" d="M 159.5 111.558594 C 153.773438 111.648438 149.027344 106.066406 148.9375 99.125 C 148.789062 92.164062 153.332031 86.445312 159.078125 86.359375 C 164.78125 86.289062 169.546875 91.832031 169.640625 98.792969 C 169.730469 105.738281 165.203125 111.476562 159.5 111.558594 Z M 159.148438 91.03125 C 156.074219 91.09375 153.539062 94.75 153.609375 99.050781 C 153.664062 103.324219 156.332031 106.871094 159.386719 106.871094 C 162.460938 106.824219 165 103.148438 164.90625 98.886719 C 164.875 94.59375 162.242188 90.992188 159.148438 91.03125 Z M 159.148438 91.03125 " fill-opacity="1" fill-rule="nonzero"/><path fill="#ffffff" d="M 178.988281 111.429688 L 174.296875 111.53125 L 173.90625 86.757812 L 188.632812 86.539062 L 188.742188 91.25 L 178.65625 91.410156 Z M 178.988281 111.429688 " fill-opacity="1" fill-rule="nonzero"/><path fill="#ffffff" d="M 186.460938 101.546875 L 176.484375 101.703125 L 176.410156 96.980469 L 186.386719 96.839844 Z M 186.460938 101.546875 " fill-opacity="1" fill-rule="nonzero"/><path fill="#ffffff" d="M 195.9375 111.160156 L 191.242188 111.246094 L 190.875 86.488281 L 205.601562 86.269531 L 205.691406 90.984375 L 195.625 91.132812 Z M 195.9375 111.160156 " fill-opacity="1" fill-rule="nonzero"/><path fill="#ffffff" d="M 203.445312 101.273438 L 193.453125 101.4375 L 193.378906 96.730469 L 203.351562 96.546875 Z M 203.445312 101.273438 " fill-opacity="1" fill-rule="nonzero"/><path fill="#ffffff" d="M 82.28125 112.976562 L 69.621094 112.964844 L 69.804688 51.21875 L 57.804688 61.183594 L 49.707031 51.453125 L 72.121094 32.820312 L 82.5 37.765625 Z M 82.28125 112.976562 " fill-opacity="1" fill-rule="nonzero"/><path fill="#ffffff" d="M 119.121094 112.984375 C 114.886719 112.921875 110.65625 111.695312 107.03125 109.328125 C 101.546875 105.765625 98.035156 100.148438 97.058594 93.40625 L 107.84375 91.472656 C 108.433594 95.484375 110.789062 97.742188 112.609375 98.941406 C 115.863281 101.078125 120.117188 101.5 123.742188 100.082031 C 129.300781 97.855469 131.914062 89.207031 130.828125 82.492188 C 130.21875 78.613281 128.160156 74.074219 122.765625 74.074219 C 120.835938 74.316406 101.621094 74.648438 101.621094 74.648438 L 101.84375 40.507812 L 101.734375 34.523438 L 136.570312 34.769531 L 136.515625 46.761719 L 112.773438 46.632812 L 112.644531 64.59375 C 117.683594 62.714844 122.621094 62.039062 122.691406 62.050781 C 122.785156 62.078125 122.875 62.070312 122.929688 62.070312 C 132.667969 62.125 139.808594 69.132812 141.648438 80.339844 C 143.484375 92.117188 138.722656 106.960938 127.441406 111.402344 C 124.734375 112.46875 121.921875 112.984375 119.121094 112.984375 Z M 119.121094 112.984375 " fill-opacity="1" fill-rule="nonzero"/></svg>