<svg width="39" height="42" viewBox="0 0 39 42" fill="none" xmlns="http://www.w3.org/2000/svg">
<path d="M7.98801 0.645302C5.29401 -0.858698 2.10501 0.411302 0.950012 2.9563L18.626 20.6333L27.64 11.6193L7.98801 0.645302Z" fill="url(#paint0_linear_49_13)"/>
<path d="M27.64 29.6473L18.626 20.6333L0.950012 38.3103C2.10601 40.8563 5.29501 42.1253 7.98801 40.6223L27.64 29.6473Z" fill="url(#paint1_linear_49_13)"/>
<path d="M35.919 25.0263C37.639 24.0663 38.499 22.3503 38.5 20.6333C38.499 18.9163 37.639 17.1993 35.919 16.2403L27.64 11.6193L18.626 20.6333L27.64 29.6473L35.919 25.0263Z" fill="url(#paint2_linear_49_13)"/>
<path d="M0.95 2.9563C0.668 3.5813 0.5 4.2853 0.5 5.0413V36.2203C0.5 36.9813 0.664 37.6833 0.95 38.3103L18.624 20.6303L0.95 2.9563Z" fill="url(#paint3_linear_49_13)"/>
<defs>
<linearGradient id="paint0_linear_49_13" x1="12.6022" y1="-0.122498" x2="19.7974" y2="31.3734" gradientUnits="userSpaceOnUse">
<stop stop-color="#35AB4A"/>
<stop offset="0.2968" stop-color="#31A145"/>
<stop offset="0.7979" stop-color="#288739"/>
<stop offset="1" stop-color="#237A33"/>
</linearGradient>
<linearGradient id="paint1_linear_49_13" x1="13.6576" y1="20.4949" x2="15.694" y2="63.5642" gradientUnits="userSpaceOnUse">
<stop stop-color="#F14E5D"/>
<stop offset="0.4986" stop-color="#EA3D4F"/>
<stop offset="1" stop-color="#E12138"/>
</linearGradient>
<linearGradient id="paint2_linear_49_13" x1="27.4429" y1="11.5328" x2="31.0405" y2="40.2457" gradientUnits="userSpaceOnUse">
<stop stop-color="#FFD844"/>
<stop offset="0.519" stop-color="#FFC63F"/>
<stop offset="1" stop-color="#FFB03A"/>
</linearGradient>
<linearGradient id="paint3_linear_49_13" x1="8.3531" y1="2.5346" x2="10.0722" y2="39.4447" gradientUnits="userSpaceOnUse">
<stop offset="0.0027" stop-color="#0090E6"/>
<stop offset="1" stop-color="#0065A0"/>
</linearGradient>
</defs>
</svg>
