<svg xmlns="http://www.w3.org/2000/svg" xmlns:xlink="http://www.w3.org/1999/xlink" width="308" zoomAndPan="magnify" viewBox="0 0 230.87999 219" height="292" preserveAspectRatio="xMidYMid meet" version="1.0"><defs><clipPath id="c94b57701f"><path d="M 1 0.0585938 L 229 0.0585938 L 229 218 L 1 218 Z M 1 0.0585938 " clip-rule="nonzero"/></clipPath></defs><g clip-path="url(#c94b57701f)"><path fill="#f7f9f2" d="M 175.820312 138.089844 C 174.886719 138.996094 174.464844 140.300781 174.683594 141.582031 L 186.957031 213.132812 C 187.507812 216.359375 184.125 218.816406 181.230469 217.292969 L 116.972656 183.511719 C 115.820312 182.90625 114.449219 182.90625 113.300781 183.511719 L 49.042969 217.292969 C 46.144531 218.816406 42.761719 216.359375 43.316406 213.132812 L 55.585938 141.582031 C 55.808594 140.300781 55.382812 138.996094 54.453125 138.089844 L 2.464844 87.414062 C 0.125 85.132812 1.417969 81.15625 4.652344 80.683594 L 76.496094 70.246094 C 77.78125 70.058594 78.894531 69.25 79.46875 68.085938 L 111.597656 2.984375 C 113.042969 0.0507812 117.226562 0.0507812 118.675781 2.984375 L 150.804688 68.085938 C 151.378906 69.25 152.488281 70.058594 153.773438 70.246094 L 225.617188 80.683594 C 228.855469 81.15625 230.148438 85.132812 227.804688 87.414062 Z M 175.820312 138.089844 " fill-opacity="1" fill-rule="nonzero"/></g></svg>