<svg width="37" height="38" viewBox="0 0 37 38" fill="none" xmlns="http://www.w3.org/2000/svg">
<path opacity="0.25" fill-rule="evenodd" clip-rule="evenodd" d="M18.5 36.73C28.165 36.73 36 28.895 36 19.23C36 9.565 28.165 1.72998 18.5 1.72998C8.83502 1.72998 1 9.565 1 19.23C1 28.895 8.83502 36.73 18.5 36.73Z" stroke="white" stroke-width="1.5"/>
<path d="M24.2202 15.9947C24.139 15.9029 24.0081 15.8798 23.9007 15.9364C23.8339 15.9716 23.7083 16.0177 23.5592 16.0634C23.7473 15.8061 23.8985 15.5181 23.9653 15.2593C23.9942 15.1477 23.952 15.0301 23.8601 14.9636C23.7682 14.8976 23.6458 14.8976 23.5539 14.9636C23.4091 15.0675 22.7102 15.3796 22.2683 15.4808C21.2696 14.5811 20.1074 14.4876 18.8992 15.2131C17.9171 15.8028 17.7034 17.0021 17.7451 17.7331C15.4971 17.5105 14.0998 16.2892 13.3132 15.2785C13.2582 15.2076 13.1695 15.1702 13.0861 15.1757C12.9985 15.1823 12.9194 15.2324 12.8745 15.3098C12.5026 15.9556 12.3995 16.6696 12.5774 17.3747C12.6747 17.7595 12.8446 18.0986 13.0418 18.3734C12.9472 18.3255 12.8558 18.2656 12.7698 18.1942C12.6907 18.1271 12.5801 18.1145 12.4866 18.159C12.3936 18.2046 12.3343 18.3014 12.3343 18.4074C12.3343 19.6182 13.0706 20.4261 13.7583 20.8482C13.6472 20.8345 13.5312 20.8092 13.4142 20.7724C13.3138 20.7411 13.2048 20.7724 13.1353 20.8537C13.0658 20.9345 13.0493 21.05 13.0926 21.1483C13.4789 22.0272 14.2109 22.6317 15.1166 22.851C14.3258 23.3286 13.2673 23.5628 12.298 23.4479C12.1724 23.4298 12.0527 23.5116 12.0132 23.6359C11.9736 23.7601 12.0255 23.8964 12.1361 23.9601C13.6066 24.8093 14.936 25.1127 16.0849 25.1127C17.7568 25.1127 19.0472 24.4707 19.8327 23.9337C21.9503 22.4883 23.2701 19.893 23.0863 17.5709C23.4256 17.3132 23.9333 16.8372 24.248 16.3255C24.3132 16.2222 24.3014 16.0859 24.2202 15.9947Z" fill="white"/>
</svg>
