<svg width="20" height="20" viewBox="0 0 20 20" fill="none" xmlns="http://www.w3.org/2000/svg">
<mask id="mask0_117_131" style="mask-type:luminance" maskUnits="userSpaceOnUse" x="0" y="0" width="20" height="20">
<path d="M0 0H19.4286V19.5273H0V0Z" fill="white"/>
</mask>
<g mask="url(#mask0_117_131)">
<path d="M21.9912 3.79907C21.544 4.24627 20.2054 5.22114 18.9256 5.95927C17.3981 6.84005 16.3009 7.18085 15.9907 6.87031C15.9199 6.79949 15.8833 6.6871 15.879 6.53848C15.9032 6.54945 15.9272 6.56109 15.9504 6.57405C16.0386 6.62193 16.1213 6.68278 16.1955 6.75726C16.244 6.8058 16.2869 6.85767 16.3242 6.91253C16.6866 6.92417 17.3532 6.72866 18.3956 6.17307L18.2739 5.37542C18.219 5.01566 17.9371 4.73337 17.5773 4.67851L16.6497 4.53687L16.5769 4.52556C16.6753 4.33671 16.7833 4.13987 16.9017 3.93472C17.6398 2.65429 18.614 1.31568 19.0613 0.868472C19.4526 0.477128 19.9726 0.261672 20.5262 0.261672C21.0795 0.261672 21.5998 0.477128 21.9912 0.868472C22.7988 1.67643 22.7988 2.99111 21.9912 3.79907ZM22.176 0.683606C21.7352 0.24272 21.1493 0 20.5262 0C19.9028 0 19.3169 0.24272 18.8761 0.683606C18.4175 1.14245 17.4234 2.506 16.6749 3.80405C16.5373 4.04312 16.4136 4.26921 16.3029 4.484L16.2291 4.4727L12.7948 3.94869C12.5334 3.90879 12.2684 3.9959 12.0812 4.1831L3.67247 12.5942C3.34729 12.919 3.34729 13.4457 3.67247 13.7705L9.18421 19.2839C9.50906 19.6088 10.0354 19.6088 10.3606 19.2839L18.7693 10.8729C18.9565 10.6857 19.0436 10.4207 19.0034 10.159L18.4601 6.594C17.6245 7.0299 16.9642 7.26897 16.4891 7.30753C16.5553 7.64535 16.4575 8.00909 16.1955 8.2711C15.7779 8.68904 15.1003 8.68904 14.6823 8.2711C14.2644 7.85282 14.2644 7.1752 14.6823 6.75726C14.9187 6.52052 15.2386 6.41812 15.5471 6.44937C15.5711 6.4517 15.595 6.45502 15.619 6.45901C15.6106 6.72334 15.6731 6.92251 15.8058 7.05517C15.9312 7.18052 16.115 7.24303 16.3571 7.24303C16.9323 7.24303 17.8357 6.88959 19.0559 6.1857C20.354 5.43726 21.7172 4.44311 22.176 3.98393C23.0858 3.0739 23.0858 1.59331 22.176 0.683606Z" fill="#68B19F"/>
</g>
</svg>
