<svg width="20" height="20" viewBox="0 0 20 20" fill="none" xmlns="http://www.w3.org/2000/svg">
<mask id="mask0_117_60" style="mask-type:luminance" maskUnits="userSpaceOnUse" x="0" y="0" width="20" height="20">
<path d="M0.142822 0.333252H19.5714V19.8606H0.142822V0.333252Z" fill="white"/>
</mask>
<g mask="url(#mask0_117_60)">
<path d="M22.134 4.13232C21.6868 4.57952 20.3482 5.55439 19.0684 6.29253C17.5409 7.1733 16.4437 7.51411 16.1335 7.20356C16.0627 7.13274 16.0261 7.02035 16.0218 6.87173C16.0461 6.8827 16.07 6.89434 16.0933 6.90731C16.1814 6.95519 16.2642 7.01603 16.3383 7.09051C16.3869 7.13905 16.4298 7.19092 16.467 7.24578C16.8294 7.25742 17.4961 7.06192 18.5384 6.50632L18.4167 5.70867C18.3619 5.34891 18.0799 5.06662 17.7202 5.01176L16.7925 4.87012L16.7197 4.85882C16.8181 4.66996 16.9262 4.47312 17.0445 4.26798C17.7827 2.98754 18.7569 1.64893 19.2041 1.20172C19.5954 0.81038 20.1154 0.594924 20.669 0.594924C21.2223 0.594924 21.7427 0.81038 22.134 1.20172C22.9416 2.00968 22.9416 3.32436 22.134 4.13232ZM22.3189 1.01686C21.878 0.575972 21.2921 0.333252 20.669 0.333252C20.0456 0.333252 19.4598 0.575972 19.0189 1.01686C18.5604 1.4757 17.5662 2.83925 16.8178 4.13731C16.6801 4.37637 16.5564 4.60246 16.4457 4.81725L16.3719 4.80595L12.9376 4.28194C12.6762 4.24204 12.4112 4.32915 12.224 4.51635L3.81529 12.9274C3.49012 13.2523 3.49012 13.7789 3.81529 14.1038L9.32703 19.6172C9.65188 19.942 10.1782 19.942 10.5034 19.6172L18.9121 11.2061C19.0993 11.0189 19.1865 10.7539 19.1462 10.4922L18.6029 6.92726C17.7674 7.36315 17.107 7.60222 16.6319 7.64079C16.6981 7.9786 16.6003 8.34235 16.3383 8.60435C15.9207 9.02229 15.2431 9.02229 14.8251 8.60435C14.4072 8.18607 14.4072 7.50845 14.8251 7.09051C15.0615 6.85378 15.3814 6.75137 15.69 6.78262C15.7139 6.78495 15.7378 6.78827 15.7618 6.79226C15.7535 7.0566 15.816 7.25576 15.9486 7.38842C16.074 7.51377 16.2579 7.57628 16.4999 7.57628C17.0751 7.57628 17.9785 7.22284 19.1988 6.51895C20.4968 5.77051 21.86 4.77636 22.3189 4.31718C23.2286 3.40715 23.2286 1.92656 22.3189 1.01686Z" fill="#68B19F"/>
</g>
</svg>
