<svg width="37" height="37" viewBox="0 0 37 37" fill="none" xmlns="http://www.w3.org/2000/svg">
<path opacity="0.25" fill-rule="evenodd" clip-rule="evenodd" d="M18.5 36C28.165 36 36 28.165 36 18.5C36 8.83502 28.165 1 18.5 1C8.83502 1 1 8.83502 1 18.5C1 28.165 8.83502 36 18.5 36Z" stroke="white" stroke-width="1.5"/>
<path d="M20.0933 14.0205H21.7017C21.8497 14.0205 21.9698 13.9074 21.9698 13.7679V12.2524C21.9698 12.1129 21.8497 11.9998 21.7017 11.9998H20.0933C18.4678 11.9998 17.1446 13.2461 17.1446 14.7783V16.5465H15.2682C15.1202 16.5465 15.0001 16.6597 15.0001 16.7991V18.3147C15.0001 18.4541 15.1202 18.5673 15.2682 18.5673H17.1446V23.8719C17.1446 24.0113 17.2647 24.1245 17.4127 24.1245H19.0211C19.169 24.1245 19.2891 24.0113 19.2891 23.8719V18.5673H21.1656C21.2808 18.5673 21.3832 18.4976 21.4202 18.3945L21.9564 16.8789C21.9837 16.8021 21.9698 16.7173 21.9194 16.6511C21.8684 16.5854 21.788 16.5465 21.7017 16.5465H19.2891V14.7783C19.2891 14.3605 19.6499 14.0205 20.0933 14.0205Z" fill="white"/>
</svg>
