<svg width="21" height="21" viewBox="0 0 21 21" fill="none" xmlns="http://www.w3.org/2000/svg">
<mask id="mask0_117_145" style="mask-type:luminance" maskUnits="userSpaceOnUse" x="0" y="0" width="21" height="21">
<path d="M0.0384521 0.5H20.9615V20.5H0.0384521V0.5Z" fill="white"/>
</mask>
<g mask="url(#mask0_117_145)">
<path d="M16.0713 13.1743C15.986 13.2575 15.9473 13.3772 15.9674 13.4948L17.0926 20.0648C17.1435 20.3609 16.8331 20.5867 16.5674 20.4469L10.6746 17.3451C10.5688 17.2895 10.443 17.2895 10.3376 17.3451L4.44442 20.4469C4.1788 20.5867 3.86836 20.3609 3.91926 20.0648L5.04485 13.4948C5.06493 13.3772 5.02586 13.2575 4.94054 13.1743L0.172917 8.52141C-0.0418056 8.31171 0.0764888 7.94643 0.373659 7.90305L6.9623 6.94451C7.08023 6.9273 7.18204 6.85346 7.23473 6.74628L10.1813 0.768826C10.3143 0.499258 10.6979 0.499258 10.8305 0.768826L13.7771 6.74628C13.8298 6.85346 13.9316 6.9273 14.0496 6.94451L20.6386 7.90305C20.9354 7.94643 21.054 8.31171 20.8389 8.52141L16.0713 13.1743Z" fill="#F7F9F2"/>
</g>
</svg>
