<svg width="499" height="13" viewBox="0 0 499 13" fill="none" xmlns="http://www.w3.org/2000/svg">
<path d="M0.166571 7.27913C0.176879 10.2246 2.57304 12.605 5.51854 12.5958C8.46405 12.5865 10.8435 10.1913 10.8332 7.24578C10.8229 4.30028 8.42672 1.91994 5.48121 1.92915C2.53571 1.93836 0.156262 4.33363 0.166571 7.27913ZM487.899 5.75422C487.909 8.69972 490.305 11.0801 493.251 11.0708C496.196 11.0616 498.576 8.66637 498.566 5.72087C498.555 2.77537 496.159 0.395039 493.214 0.404248C490.268 0.413457 487.889 2.80872 487.899 5.75422ZM5.50338 8.26245L493.236 6.73754L493.229 4.73755L5.49638 6.26246L5.50338 8.26245Z" fill="#CACACA"/>
</svg>
