<svg width="24" height="18" viewBox="0 0 24 18" fill="none" xmlns="http://www.w3.org/2000/svg">
<path d="M23.6697 14.0272C23.5217 13.7527 23.3292 13.5138 23.0923 13.3107C22.8554 13.1076 22.5903 12.9534 22.2967 12.8486C22.0716 12.9159 21.8436 12.9697 21.6124 13.0105C21.1002 13.1092 20.6165 13.2026 20.1573 13.6569C19.6969 14.112 19.5383 14.5324 19.3703 14.9778C19.2667 15.2518 19.1598 15.5352 18.98 15.8183C19.0057 15.9589 19.0465 16.0947 19.1028 16.2261C19.1476 16.3345 19.2002 16.4393 19.2593 16.5401C19.3189 16.6412 19.3854 16.7378 19.4579 16.8296C19.5309 16.9214 19.6096 17.0078 19.6949 17.0886C19.7797 17.1693 19.8698 17.2439 19.9648 17.312C20.0603 17.3805 20.1598 17.4417 20.2634 17.4964C20.3669 17.551 20.4742 17.5979 20.5843 17.6375C20.6948 17.677 20.807 17.7088 20.922 17.7325C21.0366 17.7565 21.1524 17.7724 21.269 17.7802C21.386 17.7879 21.5031 17.7875 21.6197 17.779C21.7367 17.7704 21.8522 17.7541 21.9667 17.7296C22.0813 17.7047 22.1935 17.6725 22.3036 17.6322C22.4137 17.5922 22.5205 17.5445 22.6237 17.4894C22.7273 17.4344 22.8264 17.3724 22.9214 17.3035C23.016 17.2345 23.1057 17.1595 23.1902 17.078C23.2746 16.9968 23.3529 16.9099 23.4251 16.8178C23.4976 16.7256 23.5633 16.6286 23.622 16.5274C23.651 16.4777 23.6787 16.4275 23.7048 16.3761C23.8512 16.0854 23.9377 15.7783 23.9654 15.4541C23.9711 15.3827 23.976 15.3109 23.976 15.2375C23.9768 14.8081 23.8749 14.4048 23.6697 14.0272ZM22.7872 15.5944C22.7717 15.6498 22.7526 15.7045 22.7302 15.7579C22.7073 15.8113 22.6816 15.8631 22.6527 15.9129C22.6237 15.963 22.5919 16.0111 22.5568 16.0572C22.5218 16.1033 22.4838 16.1473 22.4435 16.1885C22.4031 16.2297 22.3599 16.2685 22.3146 16.3044C22.2693 16.3402 22.222 16.3733 22.1723 16.4034C22.1229 16.4332 22.0716 16.4601 22.0189 16.4834C21.9659 16.507 21.9121 16.527 21.8566 16.5437C21.8012 16.5605 21.7449 16.5739 21.6878 16.5837C21.6311 16.5931 21.5736 16.5992 21.5157 16.6016C21.4578 16.6041 21.4003 16.6029 21.3428 16.598C21.2849 16.5931 21.2278 16.5849 21.1711 16.5727C21.1148 16.5609 21.059 16.5454 21.0043 16.5262C20.9497 16.5074 20.8967 16.485 20.8449 16.4593C20.7931 16.4336 20.7429 16.4047 20.6948 16.3729C20.6463 16.3406 20.6006 16.306 20.5566 16.2681C20.5129 16.2305 20.4713 16.1902 20.4326 16.1469C20.3939 16.1041 20.358 16.0589 20.3249 16.0115C20.2919 15.9638 20.2617 15.9145 20.2348 15.8631C20.2079 15.8121 20.1842 15.7591 20.1643 15.7049C20.1439 15.6506 20.1271 15.5956 20.1137 15.5393C20.1002 15.4826 20.0904 15.4259 20.0843 15.3684C20.0782 15.3105 20.0754 15.253 20.0766 15.1951C20.0774 15.1372 20.0823 15.0797 20.0904 15.0222C20.0986 14.9647 20.1104 14.9084 20.1259 14.8526C20.1414 14.7967 20.1602 14.7421 20.1822 14.6886C20.2046 14.6352 20.2299 14.5834 20.2589 14.5329C20.2874 14.4827 20.3192 14.4346 20.3539 14.3881C20.389 14.342 20.4265 14.298 20.4669 14.2564C20.5068 14.2148 20.5496 14.176 20.5949 14.1397C20.6402 14.1038 20.6875 14.0704 20.7368 14.0402C20.7858 14.0101 20.8371 13.9831 20.8897 13.9595C20.9423 13.9354 20.9966 13.915 21.0516 13.8979C21.1071 13.8812 21.163 13.8677 21.2201 13.8575C21.2772 13.8477 21.3347 13.8412 21.3922 13.8384C21.4501 13.8359 21.5076 13.8367 21.5655 13.8412C21.623 13.8457 21.6801 13.8539 21.7367 13.8657C21.7934 13.8771 21.8493 13.8926 21.9039 13.9114C21.9586 13.9301 22.012 13.9521 22.0638 13.9774C22.116 14.0027 22.1662 14.0313 22.2147 14.0631C22.2628 14.0949 22.3089 14.1295 22.3529 14.1671C22.397 14.2046 22.4386 14.2449 22.4777 14.2878C22.5165 14.3302 22.5528 14.3754 22.5862 14.4227C22.6196 14.4701 22.6498 14.5194 22.6767 14.5704C22.7041 14.6213 22.7281 14.674 22.7485 14.7282C22.7689 14.7824 22.786 14.8375 22.7999 14.8938C22.8133 14.95 22.8235 15.0071 22.8301 15.0646C22.8366 15.1221 22.8394 15.1796 22.8386 15.2375C22.837 15.3587 22.8199 15.4777 22.7872 15.5944ZM20.3196 13.2703C20.4611 13.1716 20.6124 13.0909 20.7735 13.0285C20.8245 13.0085 20.8755 12.9905 20.9269 12.9742C21.1316 12.9122 21.3391 12.8633 21.5496 12.8266C21.6022 12.8164 21.6548 12.8062 21.7078 12.7956C21.7816 12.7809 21.8562 12.765 21.9313 12.7479C21.9627 12.7406 21.9945 12.7336 22.0263 12.7259C22.1923 12.6855 22.3542 12.6321 22.5112 12.5656C22.6139 12.522 22.713 12.4714 22.8085 12.4135C22.8496 12.389 22.8863 12.3646 22.919 12.3417C23.0054 12.2846 23.0825 12.2165 23.1494 12.1374C22.9385 11.9808 22.711 11.8544 22.4663 11.7582C22.4463 11.75 22.4263 11.7414 22.4055 11.7333C22.2967 11.6917 22.1853 11.6554 22.0724 11.6256C22.0508 11.6199 22.0287 11.615 22.0067 11.6093C21.888 11.58 21.7677 11.5567 21.6462 11.5404C21.521 11.5257 21.3958 11.5176 21.2698 11.5163C21.2458 11.5163 21.2217 11.5151 21.1976 11.5155C21.0989 11.5163 20.9994 11.52 20.8991 11.5302C20.4946 11.571 20.1108 11.6827 19.7479 11.8658L19.9563 11.5632L20.0586 11.4144C20.1076 11.3434 20.1471 11.268 20.1773 11.1877C20.2075 11.1073 20.2279 11.0241 20.2381 10.9389C20.2483 10.8537 20.2483 10.7684 20.2377 10.6832C20.2271 10.5976 20.2067 10.5148 20.1761 10.4344L18.8161 6.86413L19.6545 6.99789C19.6757 7.00115 19.6969 7.00197 19.7185 7.00074C19.7401 6.99952 19.7609 6.99626 19.7817 6.99014C19.8025 6.98443 19.8225 6.97627 19.8413 6.96608C19.8604 6.95588 19.878 6.94406 19.8943 6.93019C19.9106 6.91592 19.9253 6.90042 19.9383 6.8833C19.9514 6.86617 19.9624 6.84782 19.9714 6.82824C19.9803 6.80867 19.9873 6.78828 19.9918 6.76707C19.9967 6.74627 19.9987 6.72466 19.9987 6.70345V5.13586C19.9987 5.11425 19.9967 5.09304 19.9918 5.07184C19.9873 5.05104 19.9803 5.03065 19.9714 5.01107C19.9624 4.9915 19.9514 4.97315 19.9383 4.95602C19.9253 4.93889 19.9106 4.9234 19.8943 4.90912C19.878 4.89526 19.8604 4.88302 19.8413 4.87283C19.8225 4.86304 19.8025 4.85488 19.7817 4.84917C19.7609 4.84306 19.7401 4.83939 19.7185 4.83816C19.6969 4.83694 19.6757 4.83816 19.6545 4.84143L17.7325 5.14769C17.6913 5.15421 17.6526 5.16767 17.6163 5.18806C17.5804 5.20845 17.5486 5.23414 17.5217 5.26595C17.4948 5.29776 17.474 5.33283 17.4597 5.37198C17.4454 5.41113 17.4381 5.4515 17.4381 5.4931V5.78223C17.4087 5.7757 17.379 5.77203 17.3492 5.7704L15.8171 5.75083C15.7086 5.74675 15.6201 5.70271 15.5516 5.6187L14.1647 3.90797C13.3976 2.96635 12.0881 3.25956 11.8418 4.44953L11.1208 7.16264C11.0976 7.27315 11.0849 7.38489 11.0825 7.49785C11.0805 7.61082 11.0886 7.72296 11.107 7.8347C11.1253 7.94603 11.1539 8.05491 11.1926 8.16094C11.2313 8.26697 11.2795 8.36851 11.3374 8.46557C11.3949 8.56303 11.4609 8.65397 11.5352 8.7388C11.6098 8.82362 11.6913 8.90069 11.7802 8.97043C11.8691 9.04016 11.9638 9.10093 12.0637 9.15272C12.164 9.20492 12.268 9.24733 12.376 9.27995H7.92325C7.90123 9.27995 7.88043 9.28403 7.86004 9.29259C7.84006 9.30116 7.82211 9.31298 7.80662 9.32848C7.79112 9.34398 7.77929 9.36151 7.77114 9.3819C7.76257 9.40229 7.7585 9.42309 7.7585 9.44511V10.0654C7.7585 10.0874 7.76257 10.1082 7.77114 10.1286C7.77929 10.1486 7.79112 10.1665 7.80662 10.182C7.82211 10.1975 7.84006 10.2093 7.86004 10.2179C7.88043 10.2261 7.90123 10.2301 7.92325 10.2301H14.0953C14.1174 10.2301 14.1382 10.2261 14.1586 10.2179C14.1785 10.2093 14.1965 10.1975 14.212 10.182C14.2275 10.1665 14.2393 10.1486 14.2479 10.1286C14.256 10.1082 14.2605 10.0874 14.2605 10.0654V9.57438L15.1018 9.6955L14.4359 12.6619C14.4281 12.7059 14.4244 12.7504 14.4257 12.7948C14.4265 12.8397 14.4314 12.8837 14.4412 12.9277C14.4505 12.9714 14.464 13.0138 14.4819 13.0546C14.4995 13.0958 14.5211 13.1345 14.5464 13.1716C14.5717 13.2083 14.6002 13.2426 14.6324 13.2736C14.6642 13.305 14.6989 13.3327 14.7364 13.3572C14.7735 13.382 14.8131 13.4024 14.8543 13.4191C14.8959 13.4363 14.9383 13.4489 14.9823 13.4571C15.0259 13.4656 15.0704 13.4701 15.1148 13.4697C15.1597 13.4697 15.2037 13.4652 15.2478 13.4563C15.2914 13.4477 15.3342 13.4346 15.3754 13.4175C15.4166 13.4004 15.4558 13.3796 15.4929 13.3547C15.5304 13.3302 15.5647 13.3021 15.5965 13.2703C15.6283 13.2389 15.6564 13.2046 15.6817 13.1679C15.7066 13.1308 15.7278 13.0917 15.7453 13.0505C15.7628 13.0093 15.7763 12.9669 15.7853 12.9233L16.6082 9.64942C16.6249 9.57071 16.6339 9.49119 16.6351 9.41086C16.636 9.33011 16.629 9.25018 16.6143 9.17107C16.5992 9.09195 16.5768 9.01529 16.5466 8.94025C16.5169 8.86562 16.4798 8.79467 16.4353 8.72738C16.3913 8.66009 16.3411 8.5977 16.2844 8.54061C16.2277 8.4831 16.1662 8.43213 16.0997 8.38686C16.0332 8.34201 15.9627 8.30367 15.8884 8.27268C15.8142 8.24169 15.7376 8.21803 15.6589 8.20213C14.966 8.06266 14.1051 7.89465 13.657 7.80778C13.6174 7.80004 13.5803 7.78454 13.5468 7.7617C13.513 7.73927 13.4853 7.71073 13.4632 7.67647C13.4408 7.64262 13.4265 7.60551 13.4192 7.56555C13.4123 7.52518 13.4131 7.48562 13.4225 7.44606L13.8405 5.58526L14.6234 6.51383C14.6887 6.59457 14.7625 6.66675 14.8449 6.73037C14.9273 6.79358 15.0153 6.847 15.11 6.88982C15.2046 6.93305 15.3028 6.96445 15.4048 6.98484C15.5067 7.00482 15.6095 7.01298 15.7131 7.00931L17.3492 6.91959C17.4336 6.91674 17.5135 6.89594 17.5886 6.8572L18.175 10.1249C18.2166 10.3561 18.2215 10.5878 18.1897 10.8206C18.1579 11.0531 18.091 11.2753 17.989 11.4866L17.1698 13.1863C17.1245 13.2801 17.0674 13.3657 16.9981 13.4432C16.9288 13.5207 16.8505 13.5868 16.7624 13.6422C16.6743 13.6973 16.5805 13.7393 16.4806 13.7682C16.3811 13.7972 16.2791 13.8115 16.1755 13.8115H14.6218C14.5827 13.8115 14.5435 13.809 14.5048 13.8049C14.466 13.8004 14.4273 13.7939 14.389 13.7854C14.3506 13.7768 14.3131 13.7662 14.276 13.7535C14.2389 13.7409 14.203 13.7258 14.1675 13.7091C14.132 13.6924 14.0978 13.6736 14.0643 13.6532C14.0309 13.6328 13.9987 13.6104 13.9677 13.5863C13.9371 13.5623 13.9073 13.5362 13.8796 13.5089C13.8515 13.4815 13.825 13.4526 13.8001 13.4224C13.7752 13.3922 13.752 13.3604 13.7308 13.3278C13.7096 13.2948 13.69 13.2609 13.672 13.2259C13.6545 13.1908 13.639 13.1549 13.6251 13.1182C13.6117 13.0815 13.5999 13.044 13.5905 13.006C13.5807 12.9681 13.5734 12.9294 13.5681 12.8906C13.5628 12.8519 13.5599 12.8127 13.5587 12.7736C13.5579 12.7344 13.5587 12.6953 13.5623 12.6561C13.5656 12.617 13.5709 12.5783 13.5787 12.5399L13.9877 10.4703H8.10594C8.02316 10.4703 7.9469 10.4919 7.87676 10.5352C7.82171 10.5698 7.74749 10.6175 7.65899 10.6787C7.61006 10.7126 7.55582 10.7297 7.49587 10.7301H4.98177C4.9414 10.7301 4.90265 10.7378 4.86554 10.7529C4.82843 10.7684 4.79581 10.7905 4.76726 10.819C4.73872 10.8475 4.7167 10.8802 4.70161 10.9177C4.68611 10.9548 4.67836 10.9935 4.67836 11.0339C4.67836 11.0743 4.68611 11.113 4.70161 11.1501C4.7167 11.1872 4.73872 11.2203 4.76726 11.2488C4.79581 11.2774 4.82843 11.299 4.86554 11.3145C4.90265 11.33 4.9414 11.3377 4.98177 11.3377H7.85351C7.89348 11.3377 7.93222 11.3455 7.96974 11.361C8.00685 11.3761 8.03947 11.3981 8.06802 11.4266C8.09656 11.4552 8.11859 11.4882 8.13367 11.5253C8.14917 11.5624 8.15692 11.6012 8.15692 11.6415C8.15692 11.6819 8.14917 11.7206 8.13367 11.7578C8.11859 11.7949 8.09656 11.8279 8.06802 11.8564C8.03947 11.885 8.00685 11.907 7.96974 11.9221C7.93222 11.9376 7.89348 11.9453 7.85351 11.9453H0.614609C0.574645 11.9453 0.535904 11.9531 0.498794 11.9686C0.461276 11.9841 0.428651 12.0057 0.400105 12.0343C0.371559 12.0628 0.349946 12.0958 0.334449 12.1329C0.318953 12.17 0.311204 12.2088 0.311204 12.2492C0.311204 12.2895 0.318953 12.3283 0.334449 12.3654C0.349946 12.4029 0.371559 12.4355 0.400105 12.4641C0.428651 12.4926 0.461276 12.5146 0.498794 12.5301C0.535904 12.5452 0.574645 12.553 0.614609 12.553H6.41152C6.4523 12.5526 6.49105 12.5599 6.52856 12.5754C6.56608 12.5905 6.59952 12.6125 6.62807 12.6411C6.65702 12.6696 6.67904 12.7026 6.69454 12.7397C6.71044 12.7773 6.71819 12.8164 6.71819 12.8568C6.71819 12.8976 6.71044 12.9363 6.69454 12.9738C6.67904 13.0113 6.65702 13.0444 6.62807 13.0729C6.59952 13.1015 6.56608 13.1231 6.52856 13.1386C6.49105 13.1537 6.4523 13.161 6.41152 13.1606H2.6944C2.65403 13.1606 2.61529 13.1683 2.57818 13.1838C2.54107 13.1993 2.50845 13.2214 2.4799 13.2499C2.45135 13.278 2.42933 13.3111 2.41383 13.3482C2.39875 13.3857 2.391 13.4244 2.391 13.4644C2.391 13.5048 2.39875 13.5435 2.41383 13.581C2.42933 13.6182 2.45135 13.6508 2.4799 13.6793C2.50845 13.7079 2.54107 13.7299 2.57818 13.7454C2.61529 13.7609 2.65403 13.7686 2.6944 13.7686H5.20361C5.02092 14.2947 4.92916 14.8367 4.92957 15.3937H5.91727C5.91727 15.3994 5.91604 15.4051 5.91604 15.4113C5.91604 15.4794 5.92053 15.5462 5.92624 15.6131C5.94908 15.8908 6.01922 16.1563 6.13626 16.4092C6.2537 16.6624 6.41071 16.8871 6.60809 17.0841C6.67129 17.1481 6.73777 17.2084 6.80791 17.2647C6.87805 17.3214 6.95145 17.3736 7.02731 17.4213C7.10357 17.4694 7.18227 17.5131 7.26342 17.5518C7.34458 17.591 7.42777 17.6252 7.51259 17.6546C7.59782 17.6839 7.68428 17.7084 7.77195 17.7276C7.86004 17.7472 7.94853 17.7614 8.03784 17.7708C8.12756 17.7802 8.21727 17.7843 8.3074 17.783C8.39712 17.7818 8.48683 17.7757 8.57614 17.7643C8.66545 17.7533 8.75353 17.7366 8.8408 17.7149C8.92848 17.6937 9.01412 17.6672 9.09854 17.6358C9.18295 17.6044 9.26533 17.5681 9.34526 17.5274C9.42559 17.4866 9.50308 17.4413 9.57811 17.3916C9.65315 17.3418 9.72492 17.288 9.79384 17.2297C9.86276 17.1717 9.92801 17.1102 9.98958 17.0445C10.0516 16.9789 10.1091 16.9099 10.1629 16.8378C10.2167 16.7656 10.2665 16.6905 10.3117 16.6126C10.3387 16.5666 10.3644 16.5197 10.3888 16.472C10.525 16.2012 10.6058 15.9149 10.6315 15.6131C10.6368 15.5462 10.6417 15.4794 10.6417 15.4113C10.6417 15.4056 10.6404 15.3998 10.6404 15.3937H16.4072C16.5475 15.3921 16.6857 15.3742 16.8215 15.3395C16.9577 15.3052 17.0878 15.2551 17.2122 15.1898C17.3366 15.1246 17.4511 15.0455 17.5568 14.9529C17.6624 14.8603 17.7558 14.7567 17.8365 14.6417L17.9352 14.4986C17.914 14.7156 17.914 14.9321 17.9352 15.149C17.9446 15.2441 17.9601 15.3366 17.9768 15.4284C18.029 15.7098 18.1163 15.9801 18.2382 16.2391C18.279 16.2212 18.3181 16.2004 18.3557 16.1767C18.4152 16.1396 18.4715 16.0984 18.5245 16.0531C18.5963 15.9916 18.6619 15.9239 18.721 15.8501C18.7557 15.8064 18.7879 15.7616 18.8177 15.7147C18.8564 15.6531 18.8911 15.5915 18.9237 15.5299C19.2655 14.8856 19.3026 14.2307 20.0219 13.5195C20.1141 13.4281 20.2132 13.3449 20.3196 13.2703ZM9.58178 15.4113C9.58056 15.4965 9.57118 15.5801 9.55364 15.6633C9.53611 15.7465 9.51082 15.8268 9.47738 15.9051C9.44394 15.983 9.40357 16.0572 9.35586 16.1274C9.30815 16.1975 9.25391 16.2623 9.19355 16.3223C9.1332 16.3818 9.06754 16.4348 8.99699 16.4817C8.92603 16.5286 8.85141 16.5678 8.77311 16.6C8.69481 16.6322 8.61366 16.6567 8.53047 16.673C8.44728 16.6897 8.36327 16.6979 8.27885 16.6979C8.19403 16.6979 8.11002 16.6897 8.02683 16.673C7.94364 16.6567 7.86249 16.6322 7.78419 16.6C7.70589 16.5678 7.63126 16.5286 7.5603 16.4817C7.48975 16.4348 7.4241 16.3818 7.36374 16.3223C7.30339 16.2623 7.24915 16.1975 7.20144 16.1274C7.15372 16.0572 7.11335 15.983 7.07991 15.9051C7.04647 15.8268 7.02119 15.7465 7.00365 15.6633C6.98612 15.5801 6.97674 15.4965 6.97551 15.4113C6.97551 15.4056 6.97715 15.3998 6.97715 15.3937H9.58015C9.58015 15.3998 9.58178 15.4056 9.58178 15.4113ZM12.6733 2.50676C12.6407 2.26248 12.5759 1.74988 12.5824 1.61612C12.6256 0.681432 13.2777 -0.0477188 14.351 0.00244084C14.4412 0.00651891 14.5297 0.0175296 14.6177 0.0358807C14.7058 0.0542318 14.7919 0.0795156 14.8755 0.111732C14.9595 0.143541 15.0406 0.182282 15.1181 0.22714C15.196 0.271998 15.2698 0.322974 15.3395 0.379658C15.4093 0.436343 15.4741 0.497921 15.5341 0.565209C15.594 0.632088 15.6483 0.703454 15.6968 0.779305C15.7453 0.854748 15.7877 0.933862 15.8236 1.01624C15.8595 1.09861 15.8889 1.18344 15.9113 1.27071L14.2674 1.19404C14.245 1.19322 14.223 1.19649 14.2018 1.20383C14.1806 1.21158 14.1614 1.22299 14.1447 1.23849C14.128 1.25358 14.1149 1.27152 14.1051 1.29191C14.0957 1.31271 14.0904 1.33392 14.0892 1.35675L14.0635 1.91381C14.0611 1.96683 14.075 2.01535 14.1051 2.0594C14.1353 2.10303 14.1757 2.13321 14.2262 2.14993L15.8432 2.67681C15.7412 2.97818 15.5944 3.25548 15.4023 3.50873C15.3722 3.54788 15.3338 3.57398 15.2865 3.58743C15.2392 3.60089 15.1927 3.59885 15.1467 3.58132L12.8132 2.68415C12.7753 2.66988 12.7439 2.64663 12.7186 2.61482C12.6937 2.58302 12.6786 2.54672 12.6729 2.50676H12.6733ZM3.28082 6.03221H0.303456C0.260637 6.03221 0.219449 6.02365 0.1803 6.00611C0.141151 5.98858 0.106895 5.96411 0.0783491 5.93189C0.0493951 5.90008 0.0281893 5.86379 0.0151397 5.8226C0.0016822 5.78182 -0.00280366 5.73982 0.0016822 5.697C0.0175864 5.53918 0.162356 5.42458 0.320992 5.42458H4.05891C4.10173 5.42458 4.14292 5.41602 4.18207 5.39849C4.22122 5.38095 4.25547 5.35648 4.28402 5.32427C4.31297 5.29246 4.33418 5.25575 4.34723 5.21497C4.36068 5.17419 4.36517 5.13219 4.36068 5.08937C4.34478 4.93155 4.20042 4.81696 4.04138 4.81696H1.04688C1.00651 4.81696 0.967767 4.80921 0.930657 4.79371C0.893547 4.77863 0.860515 4.7566 0.832376 4.72806C0.80383 4.69951 0.781809 4.66689 0.766312 4.62937C0.751223 4.59226 0.743475 4.55352 0.743475 4.51315C0.743475 4.47277 0.751223 4.43403 0.766312 4.39692C0.781809 4.35981 0.80383 4.32678 0.832376 4.29823C0.860515 4.26969 0.893547 4.24807 0.930657 4.23258C0.967767 4.21708 1.00651 4.20933 1.04688 4.20933H4.05891C4.10173 4.20933 4.14292 4.20077 4.18207 4.18323C4.22122 4.1657 4.25547 4.14082 4.28402 4.10901C4.31297 4.0772 4.33418 4.0405 4.34723 3.99972C4.36068 3.95894 4.36517 3.91694 4.36068 3.87412C4.34478 3.71589 4.20042 3.60171 4.04138 3.60171H1.94894C1.90612 3.60171 1.86493 3.59274 1.82578 3.57561C1.78623 3.55807 1.75238 3.5332 1.72342 3.50139C1.69488 3.46917 1.67367 3.43288 1.66022 3.3921C1.64717 3.35091 1.64268 3.30931 1.64717 3.26649C1.66307 3.10827 1.80743 2.99408 1.96607 2.99408H3.28082V2.645C3.28082 2.60504 3.28816 2.5667 3.30366 2.52959C3.31875 2.49289 3.34036 2.46027 3.36891 2.43213C3.39705 2.40399 3.42926 2.38197 3.46637 2.36688C3.50308 2.35138 3.54141 2.34404 3.58137 2.34404H10.2963C10.3362 2.34404 10.3745 2.35138 10.4113 2.36688C10.4484 2.38197 10.4806 2.40399 10.5091 2.43213C10.5373 2.46027 10.5589 2.49289 10.574 2.52959C10.5895 2.5667 10.5972 2.60504 10.5972 2.645V8.51614C10.5972 8.54387 10.5944 8.57119 10.5891 8.59851C10.5833 8.62543 10.5756 8.65194 10.565 8.67763C10.5544 8.70291 10.5413 8.72738 10.5263 8.75022C10.5108 8.77346 10.4932 8.79467 10.4736 8.81424C10.4541 8.83382 10.4329 8.85135 10.41 8.86644C10.3872 8.88194 10.3627 8.89499 10.3374 8.90559C10.3117 8.91619 10.2856 8.92394 10.2583 8.92965C10.2314 8.93495 10.2041 8.9374 10.1764 8.9374H3.58137C3.54141 8.9374 3.50308 8.93006 3.46637 8.91456C3.42926 8.89947 3.39705 8.87745 3.36891 8.84931C3.34036 8.82117 3.31875 8.78855 3.30366 8.75185C3.28816 8.71474 3.28082 8.6764 3.28082 8.63644V6.64024H4.05891C4.10173 6.64024 4.14292 6.63127 4.18207 6.61374C4.22122 6.5962 4.25547 6.57173 4.28402 6.53952C4.31297 6.50771 4.33418 6.47141 4.34723 6.43063C4.36068 6.38945 4.36517 6.34785 4.36068 6.30503C4.34478 6.1468 4.20042 6.03262 4.04138 6.03262L3.28082 6.03221Z" fill="#808080"/>
</svg>
