<svg width="499" height="13" viewBox="0 0 499 13" fill="none" xmlns="http://www.w3.org/2000/svg">
<path d="M0.434492 6.78016C0.437803 9.72568 2.8283 12.1108 5.77382 12.1075C8.71933 12.1042 11.1045 9.71369 11.1012 6.76818C11.0978 3.82266 8.70734 1.43753 5.76183 1.44084C2.81631 1.44415 0.431182 3.83465 0.434492 6.78016ZM488.167 6.23196C488.17 9.17748 490.56 11.5626 493.506 11.5593C496.451 11.556 498.837 9.16549 498.833 6.21997C498.83 3.27446 496.439 0.889327 493.494 0.892637C490.548 0.895948 488.163 3.28645 488.167 6.23196ZM5.76895 7.77417L493.501 7.22597L493.499 5.22597L5.7667 5.77417L5.76895 7.77417Z" fill="#CACACA"/>
</svg>
