<svg width="146" height="23" viewBox="0 0 146 23" fill="none" xmlns="http://www.w3.org/2000/svg">
<path d="M5.63047 18.2228H13.5157C14.1553 18.2228 14.6206 18.2958 14.91 18.4403C15.1977 18.5864 15.3906 18.8141 15.4853 19.1268C15.5835 19.436 15.6342 19.8472 15.6342 20.3638C15.6342 20.877 15.5835 21.2882 15.4853 21.6009C15.3906 21.9101 15.2281 22.1225 14.998 22.2398C14.6274 22.4352 14.1249 22.532 13.4886 22.532H3.0517C1.69801 22.532 0.906106 22.1633 0.675979 21.4241C0.557532 21.1166 0.5 20.6221 0.5 19.9424V3.75196C0.5 3.30845 0.513537 2.9754 0.540611 2.7528C0.571069 2.5268 0.664134 2.26851 0.818116 1.97794C1.08885 1.45797 1.84353 1.19629 3.08554 1.19629C4.43415 1.19629 5.23452 1.55483 5.48834 2.27021C5.58309 2.60157 5.63047 3.10624 5.63047 3.78594V18.2228Z" fill="#68B19F"/>
<path d="M27.438 8.82244C27.5548 7.73492 28.3179 7.19116 29.7258 7.19116C30.4838 7.19116 31.0456 7.25064 31.4111 7.36788C31.7766 7.48173 32.0304 7.68564 32.1759 7.97961C32.3249 8.27018 32.4128 8.52677 32.4399 8.74767C32.467 8.97027 32.4805 9.30503 32.4805 9.75363V19.9423C32.4805 20.3875 32.467 20.7223 32.4399 20.9483C32.4128 21.1709 32.3316 21.4275 32.1963 21.7163C31.9255 22.2193 31.2622 22.4708 30.2063 22.4708C29.1538 22.4708 28.4482 22.3417 28.0878 22.0834C27.7308 21.8217 27.5227 21.436 27.4651 20.9279C26.751 21.9576 25.5581 22.4708 23.8846 22.4708C22.2145 22.4708 20.6645 21.7061 19.2347 20.1734C17.8032 18.6424 17.0891 16.8633 17.0891 14.8378C17.0891 12.8089 17.8083 11.0315 19.2482 9.50894C20.6865 7.98301 22.267 7.21835 23.9861 7.21835C24.6444 7.21835 25.2451 7.3373 25.7865 7.57179C26.328 7.80289 26.7037 8.0204 26.9169 8.2243C27.1284 8.42821 27.3027 8.62873 27.438 8.82244ZM22.1654 14.8786C22.1654 15.5175 22.4159 16.0952 22.9167 16.6118C23.4176 17.125 24.0234 17.3799 24.7374 17.3799C25.4549 17.3799 26.0505 17.1199 26.5243 16.5982C26.9981 16.0731 27.235 15.4954 27.235 14.865C27.235 14.2311 27.0066 13.6415 26.5514 13.0977C26.0996 12.554 25.4904 12.2821 24.7239 12.2821C23.9608 12.2821 23.3431 12.554 22.8694 13.0977C22.3989 13.6415 22.1654 14.2362 22.1654 14.8786Z" fill="#68B19F"/>
<path d="M56.1996 1.19629C56.6412 1.19629 56.9729 1.20988 57.1945 1.23707C57.4196 1.26426 57.6717 1.35772 57.9526 1.51575C58.2318 1.67038 58.4281 1.93376 58.5414 2.3042C58.6582 2.67124 58.7174 3.16572 58.7174 3.78594C58.7174 4.40787 58.6582 4.90405 58.5414 5.27448C58.4281 5.64152 58.225 5.89811 57.9323 6.04254C57.6429 6.18868 57.3874 6.27704 57.1675 6.30763C56.9458 6.33482 56.6023 6.34841 56.1387 6.34841H47.2652V9.28471H52.9778C53.4414 9.28471 53.7849 9.3017 54.0066 9.33229C54.2266 9.35948 54.4838 9.45124 54.7782 9.60417C55.2791 9.89984 55.5295 10.6679 55.5295 11.9083C55.5295 13.2677 55.1606 14.0732 54.4262 14.3213C54.1183 14.4215 53.6276 14.4708 52.9507 14.4708H47.2652V19.9696C47.2652 20.4369 47.2517 20.7767 47.2246 20.9891C47.1976 21.2032 47.1045 21.4547 46.9471 21.7436C46.6764 22.2704 45.9217 22.532 44.6865 22.532C43.3328 22.532 42.5409 22.1633 42.3107 21.4241C42.1923 21.1166 42.1348 20.6221 42.1348 19.9424V3.75196C42.1348 2.7647 42.3175 2.09179 42.683 1.73325C43.0519 1.37641 43.749 1.19629 44.7745 1.19629H56.1996Z" fill="#68B19F"/>
<path d="M70.9773 7.368C71.3462 7.48185 71.6508 7.67897 71.8911 7.95934C72.1347 8.24142 72.2566 8.69342 72.2566 9.31874C72.2566 9.94067 72.0704 10.6204 71.7015 11.3578C71.3361 12.0919 70.8047 12.459 70.111 12.459C69.7624 12.459 69.429 12.3825 69.1092 12.2279C68.7928 12.0749 68.3732 11.9968 67.8503 11.9968C67.3258 11.9968 66.8367 12.1803 66.3816 12.5473C65.9298 12.9143 65.7047 13.3613 65.7047 13.8863V19.9968C65.7047 20.4454 65.6878 20.7819 65.6573 21.0028C65.6303 21.2254 65.5389 21.4837 65.3866 21.7776C65.0972 22.2806 64.3443 22.5321 63.1259 22.5321C62.1953 22.5321 61.5286 22.3673 61.1225 22.0359C60.8145 21.764 60.6419 21.3477 60.6013 20.7853C60.6013 20.5916 60.6013 20.3095 60.6013 19.9424V9.71976C60.6013 9.27626 60.6149 8.94321 60.6419 8.72061C60.6724 8.49461 60.757 8.24482 60.8924 7.97294C61.1631 7.45297 61.9161 7.19128 63.153 7.19128C64.3121 7.19128 65.0363 7.41388 65.3257 7.85739C65.5423 8.17005 65.6506 8.49291 65.6506 8.82256C65.7453 8.68662 65.8824 8.52179 66.0634 8.32638C66.2479 8.13267 66.6405 7.86928 67.2412 7.53793C67.8402 7.20827 68.3664 7.04175 68.8182 7.04175C69.2734 7.04175 69.6541 7.06724 69.9621 7.11651C70.2734 7.16749 70.6118 7.25076 70.9773 7.368Z" fill="#68B19F"/>
<path d="M83.7654 8.82244C83.8822 7.73492 84.6453 7.19116 86.0532 7.19116C86.8112 7.19116 87.373 7.25064 87.7385 7.36788C88.104 7.48173 88.3578 7.68564 88.5033 7.97961C88.6522 8.27018 88.7402 8.52677 88.7673 8.74767C88.7944 8.97027 88.8079 9.30503 88.8079 9.75363V19.9423C88.8079 20.3875 88.7944 20.7223 88.7673 20.9483C88.7402 21.1709 88.659 21.4275 88.5236 21.7163C88.2529 22.2193 87.5896 22.4708 86.5337 22.4708C85.4812 22.4708 84.7756 22.3417 84.4152 22.0834C84.0582 21.8217 83.85 21.436 83.7925 20.9279C83.0784 21.9576 81.8855 22.4708 80.212 22.4708C78.5419 22.4708 76.9919 21.7061 75.5621 20.1734C74.1306 18.6424 73.4165 16.8633 73.4165 14.8378C73.4165 12.8089 74.1356 11.0315 75.5756 9.50894C77.0139 7.98301 78.5944 7.21835 80.3135 7.21835C80.9718 7.21835 81.5725 7.3373 82.1139 7.57179C82.6554 7.80289 83.0311 8.0204 83.2443 8.2243C83.4558 8.42821 83.6301 8.62873 83.7654 8.82244ZM78.4928 14.8786C78.4928 15.5175 78.7433 16.0952 79.2441 16.6118C79.745 17.125 80.3508 17.3799 81.0648 17.3799C81.7823 17.3799 82.3779 17.1199 82.8517 16.5982C83.3255 16.0731 83.5624 15.4954 83.5624 14.865C83.5624 14.2311 83.334 13.6415 82.8788 13.0977C82.427 12.554 81.8178 12.2821 81.0513 12.2821C80.2882 12.2821 79.6705 12.554 79.1967 13.0977C78.7263 13.6415 78.4928 14.2362 78.4928 14.8786Z" fill="#68B19F"/>
<path d="M91.1277 9.75368C91.1277 9.30508 91.1412 8.97033 91.1683 8.74773C91.1988 8.52683 91.2834 8.26854 91.4187 7.97287C91.6895 7.46989 92.4425 7.21841 93.6794 7.21841C94.6084 7.21841 95.2649 7.38493 95.649 7.71459C95.9773 7.98647 96.1533 8.40448 96.1769 8.96523C96.1939 9.16065 96.204 9.44102 96.204 9.80806V19.9967C96.204 20.4454 96.1871 20.7818 96.1566 21.0027C96.1296 21.2253 96.0382 21.4836 95.8859 21.7776C95.6321 22.2805 94.8876 22.532 93.6523 22.532C92.434 22.532 91.6895 22.2703 91.4187 21.7436C91.2834 21.4547 91.1988 21.2032 91.1683 20.9891C91.1412 20.7767 91.1277 20.4369 91.1277 19.9696V9.75368ZM93.7132 0L94.3765 0.142737C96.1719 0.727278 97.4714 1.15549 98.2752 1.42737C99.0772 1.69925 99.4799 2.17504 99.4799 2.85474C99.4799 3.22177 99.3733 3.6092 99.1618 4.01702C98.6373 5.04677 98.0586 5.55994 97.4223 5.55994C97.2464 5.55994 96.9367 5.49197 96.4951 5.35603L93.7132 4.13257L91.0126 5.29486C90.7419 5.4308 90.4136 5.49877 90.0312 5.49877C89.2968 5.49877 88.6961 5.00598 88.2308 4.01702C88.0007 3.51404 87.8856 3.10623 87.8856 2.79356C87.8856 2.17334 88.2511 1.73663 88.9821 1.48174L93.0161 0.142737L93.7132 0Z" fill="#68B19F"/>
<path d="M103.305 14.8581C103.305 15.684 103.576 16.3246 104.118 16.7817C104.659 17.2405 105.234 17.4682 105.844 17.4682C106.453 17.4682 107.021 17.2898 107.549 16.9312C108.081 16.5693 108.512 16.3875 108.842 16.3875C109.424 16.3875 110.13 16.9023 110.96 17.9304C111.402 18.4928 111.624 18.9975 111.624 19.4461C111.624 20.1853 111.092 20.8735 110.033 21.5124C108.932 22.2872 107.578 22.6747 105.972 22.6747C104.175 22.6747 102.446 22.0256 100.781 20.7239C99.9905 20.1037 99.3425 19.2745 98.8382 18.2362C98.3373 17.1997 98.0869 16.0544 98.0869 14.8038C98.0869 13.5531 98.3373 12.418 98.8382 11.3985C99.3425 10.3789 99.9905 9.55988 100.781 8.93795C102.387 7.65672 104.097 7.0144 105.911 7.0144C106.646 7.0144 107.361 7.11636 108.057 7.32027C108.756 7.52418 109.268 7.72469 109.593 7.9184L110.06 8.21067C110.407 8.44177 110.678 8.62529 110.872 8.76123C111.373 9.15206 111.624 9.59386 111.624 10.0866C111.624 10.5811 111.421 11.1385 111.015 11.7587C110.319 12.8292 109.654 13.3628 109.018 13.3628C108.647 13.3628 108.125 13.1504 107.448 12.7239C107.099 12.3942 106.602 12.2277 105.952 12.2277C105.305 12.2277 104.703 12.4622 104.145 12.9278C103.585 13.39 103.305 14.034 103.305 14.8581Z" fill="#68B19F"/>
<path d="M121.975 7.2455C123.906 7.2455 125.515 7.98468 126.801 9.46132C128.087 10.9346 128.73 12.7409 128.73 14.8785V19.9967C128.73 20.4453 128.713 20.7817 128.683 21.0026C128.656 21.2252 128.564 21.4835 128.412 21.7775C128.158 22.2805 127.414 22.5319 126.178 22.5319C125.001 22.5319 124.265 22.2805 123.972 21.7775C123.818 21.4835 123.725 21.2201 123.694 20.989C123.667 20.7579 123.654 20.4096 123.654 19.9423V14.8445C123.654 14.0527 123.43 13.4342 122.984 12.989C122.54 12.5404 121.977 12.3161 121.292 12.3161C120.605 12.3161 120.001 12.5251 119.478 12.9414C118.958 13.3594 118.66 13.8284 118.584 14.3484V19.9967C118.584 20.4453 118.567 20.7817 118.537 21.0026C118.51 21.2252 118.418 21.4835 118.266 21.7775C118.012 22.2805 117.268 22.5319 116.033 22.5319C114.814 22.5319 114.07 22.2703 113.799 21.7435C113.664 21.4546 113.579 21.2031 113.549 20.989C113.521 20.7766 113.508 20.4368 113.508 19.9695V2.56238C113.508 2.11378 113.521 1.77902 113.549 1.55642C113.579 1.33552 113.664 1.08743 113.799 0.815551C114.07 0.290483 114.823 0.0270996 116.06 0.0270996C117.278 0.0270996 118.012 0.290483 118.266 0.815551C118.418 1.10612 118.51 1.36441 118.537 1.59041C118.567 1.81301 118.584 2.14606 118.584 2.58957V9.02632C119.549 7.84024 120.679 7.2455 121.975 7.2455Z" fill="#68B19F"/>
<path d="M145.775 13.0299C145.775 14.2228 145.479 15.1064 144.888 15.6807C144.301 16.2517 143.65 16.5371 142.932 16.5371H136.062C136.062 17.0809 136.38 17.5363 137.017 17.9033C137.656 18.2704 138.296 18.4539 138.932 18.4539C140.056 18.4539 140.936 18.3384 141.572 18.1073L141.89 17.9917C142.353 17.7793 142.739 17.6722 143.047 17.6722C143.67 17.6722 144.201 18.1073 144.645 18.9773C144.897 19.504 145.024 19.9492 145.024 20.3163C145.024 22.0478 142.963 22.9127 138.844 22.9127C137.418 22.9127 136.147 22.6646 135.033 22.1719C133.923 21.674 133.059 21.0164 132.441 20.2007C131.223 18.6289 130.614 16.8736 130.614 14.9331C130.614 12.4861 131.4 10.532 132.976 9.06725C134.549 7.6042 136.517 6.87183 138.878 6.87183C141.562 6.87183 143.531 7.82171 144.787 9.71977C145.445 10.7308 145.775 11.8336 145.775 13.0299ZM139.656 13.8863C140.391 13.8863 140.76 13.5771 140.76 12.9551C140.76 12.5065 140.59 12.1463 140.252 11.8744C139.913 11.6025 139.43 11.4666 138.803 11.4666C138.176 11.4666 137.553 11.7249 136.935 12.2414C136.316 12.7546 136.008 13.3018 136.008 13.8863H139.656Z" fill="#68B19F"/>
</svg>
