<svg width="37" height="37" viewBox="0 0 37 37" fill="none" xmlns="http://www.w3.org/2000/svg">
<path opacity="0.25" fill-rule="evenodd" clip-rule="evenodd" d="M18.5 36C28.165 36 36 28.165 36 18.5C36 8.83502 28.165 1 18.5 1C8.83502 1 1 8.83502 1 18.5C1 28.165 8.83502 36 18.5 36Z" stroke="white" stroke-width="1.5"/>
<path d="M14.4837 14.9671C15.303 14.9671 15.9672 14.3029 15.9672 13.4835C15.9672 12.6642 15.303 12 14.4837 12C13.6643 12 13.0001 12.6642 13.0001 13.4835C13.0001 14.3029 13.6643 14.9671 14.4837 14.9671Z" fill="white"/>
<path d="M15.7198 15.958H13.2473C13.1108 15.958 13 16.0688 13 16.2053V23.623C13 23.7595 13.1108 23.8703 13.2473 23.8703H15.7198C15.8563 23.8703 15.9671 23.7595 15.9671 23.623V16.2053C15.9671 16.0688 15.8563 15.958 15.7198 15.958Z" fill="white"/>
<path d="M23.0882 15.5466C22.0314 15.1847 20.7095 15.5026 19.9168 16.0728C19.8896 15.9665 19.7927 15.8874 19.6775 15.8874H17.2049C17.0684 15.8874 16.9576 15.9981 16.9576 16.1346V23.5524C16.9576 23.6889 17.0684 23.7996 17.2049 23.7996H19.6775C19.814 23.7996 19.9247 23.6889 19.9247 23.5524V18.2215C20.3243 17.8773 20.8391 17.7675 21.2604 17.9465C21.6689 18.1191 21.9028 18.5404 21.9028 19.1017V23.5524C21.9028 23.6889 22.0136 23.7996 22.1501 23.7996H24.6227C24.7591 23.7996 24.8699 23.6889 24.8699 23.5524V18.6037C24.8417 16.5718 23.8858 15.8196 23.0882 15.5466Z" fill="white"/>
</svg>
