<svg width="1172" height="356" viewBox="0 0 1172 356" fill="none" xmlns="http://www.w3.org/2000/svg">
<g filter="url(#filter0_d_108_835)">
<path d="M50 79C50 60.7746 64.7746 46 83 46H1089C1107.23 46 1122 60.7746 1122 79V269C1122 287.225 1107.23 302 1089 302H83C64.7746 302 50 287.225 50 269V79Z" fill="#F7F9F2"/>
<path d="M52.5 79C52.5 62.1553 66.1553 48.5 83 48.5H1089C1105.84 48.5 1119.5 62.1553 1119.5 79V269C1119.5 285.845 1105.84 299.5 1089 299.5H83C66.1553 299.5 52.5 285.845 52.5 269V79Z" stroke="white" stroke-width="5"/>
</g>
<defs>
<filter id="filter0_d_108_835" x="0" y="0" width="1172" height="356" filterUnits="userSpaceOnUse" color-interpolation-filters="sRGB">
<feFlood flood-opacity="0" result="BackgroundImageFix"/>
<feColorMatrix in="SourceAlpha" type="matrix" values="0 0 0 0 0 0 0 0 0 0 0 0 0 0 0 0 0 0 127 0" result="hardAlpha"/>
<feOffset dy="4"/>
<feGaussianBlur stdDeviation="25"/>
<feComposite in2="hardAlpha" operator="out"/>
<feColorMatrix type="matrix" values="0 0 0 0 0 0 0 0 0 0 0 0 0 0 0 0 0 0 0.25 0"/>
<feBlend mode="normal" in2="BackgroundImageFix" result="effect1_dropShadow_108_835"/>
<feBlend mode="normal" in="SourceGraphic" in2="effect1_dropShadow_108_835" result="shape"/>
</filter>
</defs>
</svg>
