<svg width="15" height="15" viewBox="0 0 15 15" fill="none" xmlns="http://www.w3.org/2000/svg">
<path d="M11.497 9.15966C11.4357 9.21705 11.4079 9.29968 11.4223 9.38083L12.2305 13.9152C12.267 14.1196 12.0441 14.2754 11.8533 14.179L7.62107 12.0382C7.54512 11.9998 7.45475 11.9998 7.37906 12.0382L3.14656 14.179C2.95579 14.2754 2.73284 14.1196 2.7694 13.9152L3.5778 9.38083C3.59221 9.29968 3.56415 9.21705 3.50288 9.15966L0.0787751 5.94837C-0.0754382 5.80364 0.00952067 5.55153 0.222948 5.5216L4.9549 4.86004C5.0396 4.84817 5.11272 4.7972 5.15057 4.72323L7.26682 0.597787C7.36233 0.41174 7.6378 0.41174 7.73306 0.597787L9.84931 4.72323C9.88715 4.7972 9.96027 4.84817 10.045 4.86004L14.7772 5.5216C14.9904 5.55153 15.0756 5.80364 14.9211 5.94837L11.497 9.15966Z" fill="#68B19F"/>
</svg>
